<svg xmlns="http://www.w3.org/2000/svg" xmlns:xlink="http://www.w3.org/1999/xlink" width="414" height="736" viewBox="0 0 414 736">
  <defs>
    <clipPath id="clip-path">
      <rect id="Rectángulo_23" data-name="Rectángulo 23" width="414" height="736" fill="#fff" stroke="#707070" stroke-width="1"/>
    </clipPath>
  </defs>
  <g id="Enmascarar_grupo_4" data-name="Enmascarar grupo 4" clip-path="url(#clip-path)">
    <g id="Grupo_125" data-name="Grupo 125">
      <g id="Grupo_102" data-name="Grupo 102" transform="translate(293.865 463.804)">
        <path id="Trazado_68" data-name="Trazado 68" d="M276,200.139s10.081.619,14.519,14.058c4.323,13.089-4.145,26.731-2.964,35.7s7.676,17.159-.2,29.5-40.988,10.1-58.088-2.951-16.7-26.089-12.328-35.5,5.143-21.75,5.42-22.706C222.368,218.242,242.15,191.552,276,200.139Z" transform="translate(-201.121 -187.446)" fill="#763154"/>
        <g id="Grupo_59" data-name="Grupo 59" transform="translate(0 1.883)">
          <path id="Trazado_69" data-name="Trazado 69" d="M258.452,337.385c-8.428-1.166-16.731-3.077-26.335-3.334s-14.973-4.614-14.893-11.245c.111-9.128,6.5-18.614,13.626-30.216,6.814-11.1,11.945-5.412,20.584-4.676s14.475.42,15.931,10.34C270.587,320.2,274.6,339.619,258.452,337.385Z" transform="translate(-202.403 -228.905)" fill="#28285c"/>
          <path id="Trazado_70" data-name="Trazado 70" d="M190.147,230.339c.409-.571,1.824,1.068,1.824,1.068s-.77-2.4-.281-2.546,1.678,1.782,1.678,1.782-.131-2.7.458-2.506,1.041,2.217,1.041,2.217.475-2.427.992-2.106.847,3.956.849,3.979v0s1.375-.971,1.529-.407c.109.4-.632,1.553-1.075,2.2,1,3.666,7.916,23.792,8.935,24.585a39.872,39.872,0,0,0,21.216,8.072l-.072.472a18.3,18.3,0,0,1-2.122,6.172h0c-11.3-1.41-17.835-3.887-24.183-9-4.646-3.741-8.758-24-9.525-28.856v0C191.089,233.654,189.977,230.576,190.147,230.339Z" transform="translate(-190.13 -202.778)" fill="#f7c8ae"/>
          <path id="Trazado_71" data-name="Trazado 71" d="M331.075,339.614v0c-1.345-4.73-8.018-25.359-13.478-27.76a37.494,37.494,0,0,0-17.792-3.148l.325,7.059a39.046,39.046,0,0,1,13.974,2.953c1.19.5,10,19.5,11.436,23.023-.363.691-.961,1.925-.8,2.309.221.541,1.466-.586,1.469-.588v0c.005.022.771,3.593,1.321,3.848s.732-2.21.732-2.21.693,1.959,1.3,2.076.153-2.543.153-2.543,1.413,1.775,1.88,1.567-.585-2.494-.585-2.494,1.6,1.457,1.939.841C333.086,344.292,331.612,341.37,331.075,339.614Z" transform="translate(-239.81 -239.256)" fill="#f7c8ae"/>
          <path id="Trazado_72" data-name="Trazado 72" d="M223.092,368.466s-13.939-3.64-23.231,1.586-.6,19.012-.6,19.012-4.673-1.158-5.544.123,5.78,3.579,7.572,1.757c2.3-2.338-2.3-13.1,1.767-15.474s15.335-2.306,24.926,4.663c10.19,7.4,12.824,20.554,6.291,24.474s-9.728,2.033-10.309,3.92-.29,6.243.871,6.534S226,410.125,226,410.125s11.823.29,17.237-5.518,0-27.975,0-27.975Z" transform="translate(-191.719 -265.79)" fill="#28285c"/>
          <path id="Trazado_73" data-name="Trazado 73" d="M237.949,304.283l-8.337-1.963a.508.508,0,0,1-.392-.413c-.464-3.137,1.157-7.857,1.74-9.415a.5.5,0,0,1,.695-.276,63.341,63.341,0,0,0,14.166,4.947h0l16.272,2.809a49.328,49.328,0,0,0,10.606.377.513.513,0,0,1,.55.393c.777,3.067-.661,7.781-1.138,9.2a.507.507,0,0,1-.583.336c-3.412-.683-10.514-2.7-10.516-2.7a142.025,142.025,0,0,0-1.436,26.728c.38,7.068.036,12.8,1.762,18.953a.585.585,0,0,1-.686.732c-14.639-3.133-11.9-19.477-38.613-20.609C230.781,322.777,234.558,314.394,237.949,304.283Z" transform="translate(-204.584 -231.786)" fill="#ed7c98"/>
          <g id="Grupo_44" data-name="Grupo 44" transform="translate(42.019 58.625)">
            <path id="Trazado_74" data-name="Trazado 74" d="M266.966,295.85s2.255-.537,3.078-4.748c1-5.139,4.646.581,4.646.581s-1.737,3.686.68,5.618c0,0-.874,3.287-3.681,3.48S266.695,297.887,266.966,295.85Z" transform="translate(-266.943 -288.959)" fill="#eaa896"/>
          </g>
          <path id="Trazado_75" data-name="Trazado 75" d="M244.025,291.725c-1.46,5.462-6.588,21.788-18.7,35.537a2.03,2.03,0,0,1-2.923.136l-.479-.456a2.018,2.018,0,0,1-.133-2.787c3.563-4.084,13.548-16.62,18.09-33.554a2.015,2.015,0,0,1,2.541-1.4l.246.076A2.017,2.017,0,0,1,244.025,291.725Z" transform="translate(-204.247 -230.403)" fill="#56479a"/>
          <path id="Trazado_76" data-name="Trazado 76" d="M290.4,295.925c-1,5.49-3.358,22.521,1.767,40.2a2.025,2.025,0,0,0,2.583,1.357l.614-.2a2.018,2.018,0,0,0,1.3-2.479c-1.532-5.24-5.361-20.914-2.295-38.15a2.02,2.02,0,0,0-1.777-2.367h0A2.017,2.017,0,0,0,290.4,295.925Z" transform="translate(-234.906 -232.74)" fill="#56479a"/>
          <g id="Grupo_58" data-name="Grupo 58" transform="translate(14.933)">
            <g id="Grupo_47" data-name="Grupo 47">
              <g id="Grupo_45" data-name="Grupo 45" transform="translate(0 27.143)">
                <path id="Trazado_77" data-name="Trazado 77" d="M320.7,250.859a3.86,3.86,0,0,1,4.548-3.017l6.432,1.3a7.95,7.95,0,0,1-3.152,15.584l-6.432-1.3a3.86,3.86,0,0,1-3.018-4.549Z" transform="translate(-263.437 -238.817)" fill="#eaa896"/>
                <path id="Trazado_78" data-name="Trazado 78" d="M217.587,237.782h0a7.949,7.949,0,0,1,9.368-6.215l6.432,1.3a3.86,3.86,0,0,1,3.018,4.548l-1.622,8.017a3.86,3.86,0,0,1-4.548,3.018l-6.432-1.3A7.95,7.95,0,0,1,217.587,237.782Z" transform="translate(-217.428 -231.407)" fill="#eaa896"/>
              </g>
              <path id="Trazado_79" data-name="Trazado 79" d="M286.706,232.537s9.134-7.032,5.311-24.741c-2.758-12.777-14.143-28.248-35.974-25.739S225.1,200.78,225.851,212.863c.6,9.739,6.153,12.348,6.153,12.348Z" transform="translate(-221.224 -181.787)" fill="#763154"/>
              <g id="Grupo_46" data-name="Grupo 46" transform="translate(6.393 10.81)">
                <path id="Trazado_80" data-name="Trazado 80" d="M229.664,226.21c-3.367,16.647,9.2,23.958,25.848,27.326s31.069,1.517,34.437-15.131a30.753,30.753,0,0,0-60.285-12.2Z" transform="translate(-229.115 -201.549)" fill="#f7c8ae"/>
              </g>
            </g>
            <g id="Grupo_52" data-name="Grupo 52" transform="translate(17.552 26.388)">
              <g id="Grupo_50" data-name="Grupo 50" transform="translate(28.653 5.796)">
                <g id="Grupo_49" data-name="Grupo 49">
                  <g id="Grupo_48" data-name="Grupo 48">
                    <path id="Trazado_81" data-name="Trazado 81" d="M302.953,247.3a1.321,1.321,0,0,0,1.556-1.032,3.748,3.748,0,0,1,4.412-2.928l.183.037a3.749,3.749,0,0,1,2.928,4.412,1.32,1.32,0,1,0,2.588.523,6.392,6.392,0,0,0-4.992-7.524l-.183-.037a6.392,6.392,0,0,0-7.524,4.993A1.321,1.321,0,0,0,302.953,247.3Z" transform="translate(-301.895 -240.623)" fill="#28285c"/>
                  </g>
                </g>
              </g>
              <g id="Grupo_51" data-name="Grupo 51">
                <path id="Trazado_82" data-name="Trazado 82" d="M250.572,236.7a1.32,1.32,0,0,0,1.556-1.032,3.747,3.747,0,0,1,4.412-2.927l.184.037a3.749,3.749,0,0,1,2.928,4.413,1.32,1.32,0,0,0,2.588.523,6.392,6.392,0,0,0-4.992-7.524l-.184-.037a6.392,6.392,0,0,0-7.524,4.992A1.32,1.32,0,0,0,250.572,236.7Z" transform="translate(-249.514 -230.027)" fill="#28285c"/>
              </g>
            </g>
            <g id="Grupo_57" data-name="Grupo 57" transform="translate(20.42 39.024)">
              <g id="Grupo_55" data-name="Grupo 55">
                <g id="Grupo_54" data-name="Grupo 54">
                  <g id="Grupo_53" data-name="Grupo 53">
                    <path id="Trazado_83" data-name="Trazado 83" d="M286.724,262.27a16.29,16.29,0,0,1-5.8,7.123,16.27,16.27,0,0,0-10.512-7.208l-.591-.119a16.269,16.269,0,0,0-12.487,2.555,16.283,16.283,0,0,1-2.576-8.818,2.685,2.685,0,0,1,3.217-2.624L284.78,258.6A2.685,2.685,0,0,1,286.724,262.27Z" transform="translate(-254.757 -253.126)" fill="#28285c"/>
                  </g>
                </g>
              </g>
              <g id="Grupo_56" data-name="Grupo 56" transform="translate(2.577 8.614)">
                <path id="Trazado_84" data-name="Trazado 84" d="M271.954,269.2l.591.119a16.271,16.271,0,0,1,10.512,7.208,16.27,16.27,0,0,1-12.486,2.555l-.591-.119a16.271,16.271,0,0,1-10.512-7.208A16.268,16.268,0,0,1,271.954,269.2Z" transform="translate(-259.467 -268.872)" fill="#d45d67"/>
              </g>
            </g>
          </g>
        </g>
        <path id="Trazado_85" data-name="Trazado 85" d="M283.941,203.806s-8.461,9.413-25.747,7.915-22.263-.268-26.149,7.7c0,0-1.535-10.585,5.918-16.683S270.2,189.673,283.941,203.806Z" transform="translate(-209.057 -186.131)" fill="#763154"/>
        <path id="Trazado_86" data-name="Trazado 86" d="M317.04,234.05a1.506,1.506,0,0,0,1.924-2.143,7.3,7.3,0,0,0-7.667-3.651c-5.3.687-5.252,4.784.438,3.926C314.339,231.79,315.3,233.187,317.04,234.05Z" transform="translate(-243.247 -200.916)" fill="#763154"/>
        <path id="Trazado_87" data-name="Trazado 87" d="M225.517,219.517s-8.428-11.243-1.809-26.352c5.668-12.936,26.355-19.843,47.363-10.522l-12.807,8.467S228.651,190.593,225.517,219.517Z" transform="translate(-204.191 -178.345)" fill="#763154"/>
        <path id="Trazado_88" data-name="Trazado 88" d="M303.1,206.456c-2.271,2.194-11.9,10.64-28.538,13.894a.706.706,0,0,0-.506,1l1.59,3.267a.7.7,0,0,0,.835.368c3.147-.944,18.493-5.991,27.979-17.17a.711.711,0,0,0-.007-.922l-.332-.386A.7.7,0,0,0,303.1,206.456Z" transform="translate(-228.116 -190.99)" fill="#763154"/>
        <path id="Trazado_89" data-name="Trazado 89" d="M285.29,246.188s1.3-3.786.185-3.924-2.058,2.167-2.058,2.167-1.982-1.175-2.924.216C279.288,246.425,284.653,249.164,285.29,246.188Z" transform="translate(-230.983 -207.296)" fill="#ea9c87"/>
      </g>
      <g id="Grupo_103" data-name="Grupo 103" transform="translate(21.451 479.586)">
        <path id="Trazado_45" data-name="Trazado 45" d="M91.071,259.593c10.757-.8,21.415-2.546,33.585-2.1s19.314-4.632,19.746-13.027c.594-11.558-6.73-24.073-14.806-39.324-7.727-14.593-14.678-7.808-25.666-7.573s-18.346-.633-20.987,11.8C77.1,236.88,70.457,261.12,91.071,259.593Z" transform="translate(-35.383 -121.837)" fill="#00c5a7"/>
        <g id="Grupo_26" data-name="Grupo 26" transform="translate(17.995 134.899)">
          <path id="Trazado_46" data-name="Trazado 46" d="M50.565,341.553a.307.307,0,0,1-.132-.04c-1.54-.99-6.016-5.548-7.383-3.894s7.034,9.968,9.631,8.272c.227-.148.579-.366,1.031-.644A11.864,11.864,0,0,0,50.565,341.553Z" transform="translate(-42.9 -300.103)" fill="#28285c"/>
          <path id="Trazado_47" data-name="Trazado 47" d="M84.049,320.7a64.378,64.378,0,0,1-6.38-3.387c-9.631,10.1-21.955,18.324-23.715,18.127a11.865,11.865,0,0,1,3.146,3.695A259.915,259.915,0,0,0,82.716,321.7C83.153,321.355,83.6,321.023,84.049,320.7Z" transform="translate(-46.288 -293.987)" fill="#f7c8ae"/>
          <path id="Trazado_48" data-name="Trazado 48" d="M188.306,326.128s-9.835-9.946-17.636-18.236a40.706,40.706,0,0,1-5.127,5.739,32.81,32.81,0,0,1,3.87,2.668c6.7,5.39,14.275,11.429,17.408,13.723a8.624,8.624,0,0,0,1.566-3.984Z" transform="translate(-80.496 -291.1)" fill="#f7c8ae"/>
          <path id="Trazado_49" data-name="Trazado 49" d="M204.015,326.458c-1.086-.346-5.587,4.566-6.222,5.267a8.624,8.624,0,0,1-1.566,3.984c.53.388.936.672,1.186.825C200.568,338.462,205.183,326.831,204.015,326.458Z" transform="translate(-89.902 -296.786)" fill="#28285c"/>
          <path id="Trazado_50" data-name="Trazado 50" d="M138.332,290.836a33.245,33.245,0,0,1-3.186-7.159c-11.339,3.924-23.586,4.892-35.926,4.625a24.9,24.9,0,0,1-2.336,7.372A59.233,59.233,0,0,1,88.152,307a64.407,64.407,0,0,0,6.38,3.387,40.789,40.789,0,0,1,19.372-7.48c1.562-.175,3.376-.455,5.258-.79a33.126,33.126,0,0,1,22.656,4.09,40.746,40.746,0,0,0,5.127-5.739C143.119,296.4,139.781,292.736,138.332,290.836Z" transform="translate(-56.772 -283.677)" fill="#28285c"/>
        </g>
        <path id="Trazado_51" data-name="Trazado 51" d="M200.34,161.368c-.268-.849-2.618.569-2.618.569s1.871-2.584,1.341-2.958-2.723,1.487-2.723,1.487,1.218-3.2.434-3.2-2.127,2.263-2.127,2.263.382-3.112-.367-2.928-2.577,4.435-2.589,4.461v0s-1.275-1.711-1.682-1.092c-.289.438.15,2.121.432,3.069a91.8,91.8,0,0,1-15.73,17.8c-13.03,11.543-35.941,14.151-35.941,14.151l.053.6a23.193,23.193,0,0,0,2.189,7.979h0c35.2-2.135,50.989-27.12,55.791-36.523h0C197.9,164.993,200.451,161.721,200.34,161.368Z" transform="translate(-54.294 -109.82)" fill="#f7c8ae"/>
        <path id="Trazado_52" data-name="Trazado 52" d="M16.956,159.063c.332-.827,2.568.766,2.568.766s-1.67-2.718-1.114-3.051,2.6,1.689,2.6,1.689-.972-3.279-.191-3.224,1.949,2.417,1.949,2.417-.146-3.131.587-2.892,2.234,4.616,2.243,4.643v0s1.4-1.61,1.76-.963c.255.459-.31,2.1-.663,3.027a91.78,91.78,0,0,0,14.34,18.937c12.119,12.5,34.532,16.938,34.532,16.938l-.02.377a17.313,17.313,0,0,1-2.514,8.1h0c-34.942-4.79-48.905-31.1-52.982-40.839v0C19.115,162.862,16.818,159.406,16.956,159.063Z" transform="translate(-16.95 -109.257)" fill="#f7c8ae"/>
        <path id="Trazado_53" data-name="Trazado 53" d="M122.518,220.358l10.7-1.813a.644.644,0,0,0,.528-.491c.84-3.928-.829-10.025-1.441-12.047a.642.642,0,0,0-.863-.407,88.442,88.442,0,0,1-19.344,5.227s-3.012,1.583-10.727,1.157c-11.354-.626-18.841-3.65-20.079-4.385a.654.654,0,0,0-.847.163c-2.513,3.125-3.343,9.31-3.544,11.2a.645.645,0,0,0,.5.7c4.293,1.014,15.669,3.009,15.673,3.008.874,13.2-.093,34.2-2.817,48.792,15.268.329,32.952-1.159,46.981-6.014C132.686,252.781,125.994,233.422,122.518,220.358Z" transform="translate(-35.329 -124.828)" fill="#d45d67"/>
        <g id="Grupo_27" data-name="Grupo 27" transform="translate(66.024 76.909)">
          <path id="Trazado_54" data-name="Trazado 54" d="M122.912,209.141s-2.81-.861-3.512-6.254c-.856-6.582-5.924.361-5.924.361s1.9,4.8-1.313,7.053c0,0,.841,4.229,4.377,4.7S123.091,211.741,122.912,209.141Z" transform="translate(-112.162 -200.052)" fill="#eaa896"/>
        </g>
        <path id="Trazado_55" data-name="Trazado 55" d="M132.258,204.386c1.408,7.027,6.581,28.094,20.8,46.463a2.572,2.572,0,0,0,3.686.408l.643-.539a2.557,2.557,0,0,0,.393-3.515c-4.179-5.453-15.8-22.117-20.186-43.906a2.555,2.555,0,0,0-3.1-1.974l-.316.076A2.558,2.558,0,0,0,132.258,204.386Z" transform="translate(-52.283 -123.511)" fill="#28285c"/>
        <path id="Trazado_56" data-name="Trazado 56" d="M98.442,206.347c.822,7.026,2.436,28.763-5.472,50.715a2.568,2.568,0,0,1-3.376,1.51l-.761-.308a2.558,2.558,0,0,1-1.45-3.241c2.361-6.507,8.466-26.027,5.974-48.08a2.56,2.56,0,0,1,2.439-2.851h0A2.557,2.557,0,0,1,98.442,206.347Z" transform="translate(-38.495 -124.381)" fill="#28285c"/>
        <g id="Grupo_42" data-name="Grupo 42" transform="translate(21.123 0)">
          <g id="Grupo_30" data-name="Grupo 30">
            <g id="Grupo_28" data-name="Grupo 28" transform="translate(0 37.976)">
              <path id="Trazado_57" data-name="Trazado 57" d="M70.274,156.854a4.893,4.893,0,0,0-5.247-4.511l-8.3.626a10.077,10.077,0,1,0,1.516,20.1l8.3-.626a4.893,4.893,0,0,0,4.511-5.247Z" transform="translate(-47.411 -146.489)" fill="#eaa896"/>
              <path id="Trazado_58" data-name="Trazado 58" d="M175.321,153.227h0a10.077,10.077,0,0,0-10.807-9.291l-8.3.625a4.893,4.893,0,0,0-4.511,5.247l.779,10.339a4.893,4.893,0,0,0,5.247,4.511l8.3-.625A10.077,10.077,0,0,0,175.321,153.227Z" transform="translate(-79.379 -143.907)" fill="#eaa896"/>
            </g>
            <g id="Grupo_29" data-name="Grupo 29" transform="translate(8.881 15.523)">
              <path id="Trazado_59" data-name="Trazado 59" d="M138.08,147.583c1.619,21.47-15.34,28.691-36.81,30.31s-39.321-2.976-40.94-24.445a38.985,38.985,0,0,1,77.749-5.865Z" transform="translate(-60.218 -111.529)" fill="#f7c8ae"/>
            </g>
            <path id="Trazado_60" data-name="Trazado 60" d="M125.053,107.13s8.153-3.356,5.3-9.719-20.27,2.625-20.27,2.625,6.68-5.927,1.463-9.675S85.674,91.422,78.2,106.168c0,0,1.777-5.506-1.494-5.259s-3.953,8.156-3.953,8.156-4.371-2.229-7.395,1.288,3.351,3.239,3.351,3.239-7.262,7.1-7.384,19.916a2.014,2.014,0,0,0,2.164,2.026h0a2.005,2.005,0,0,0,1.852-1.825c.454-5.372,2.423-14.256,10.328-17.006a23.241,23.241,0,0,1,14.621.01,25.437,25.437,0,0,0,15.721-.191c4.752-1.619,10.773-2.738,15.858-.746,6.219,2.437,8.459,8.316,9.262,12.516a2.39,2.39,0,0,0,2.523,1.949h0a2.384,2.384,0,0,0,2.174-2.747A35.646,35.646,0,0,0,125.053,107.13Z" transform="translate(-51.676 -89.144)" fill="#d45d67"/>
          </g>
          <g id="Grupo_35" data-name="Grupo 35" transform="translate(20.63 37.434)">
            <g id="Grupo_33" data-name="Grupo 33" transform="translate(0 2.788)">
              <g id="Grupo_32" data-name="Grupo 32">
                <g id="Grupo_31" data-name="Grupo 31">
                  <path id="Trazado_61" data-name="Trazado 61" d="M92.019,156.427a1.674,1.674,0,0,1-1.8-1.543,4.751,4.751,0,0,0-5.09-4.376l-.236.017a4.752,4.752,0,0,0-4.376,5.09,1.674,1.674,0,0,1-3.338.252,8.1,8.1,0,0,1,7.462-8.68l.236-.018a8.1,8.1,0,0,1,8.68,7.462A1.674,1.674,0,0,1,92.019,156.427Z" transform="translate(-77.161 -147.147)" fill="#28285c"/>
                </g>
              </g>
            </g>
            <g id="Grupo_34" data-name="Grupo 34" transform="translate(36.954)">
              <path id="Trazado_62" data-name="Trazado 62" d="M145.31,152.407a1.674,1.674,0,0,1-1.8-1.543,4.751,4.751,0,0,0-5.09-4.376l-.236.017a4.753,4.753,0,0,0-4.376,5.091,1.674,1.674,0,1,1-3.338.252,8.1,8.1,0,0,1,7.462-8.68l.236-.018a8.1,8.1,0,0,1,8.68,7.462A1.674,1.674,0,0,1,145.31,152.407Z" transform="translate(-130.451 -143.127)" fill="#28285c"/>
            </g>
          </g>
          <path id="Trazado_63" data-name="Trazado 63" d="M80.849,140.108c2.121-1.439,6.512-3.781,3.817-5.588s-8.887,2.315-8.81,5.05S80.849,140.108,80.849,140.108Z" transform="translate(-56.131 -102.918)" fill="#d45d67"/>
          <path id="Trazado_64" data-name="Trazado 64" d="M141.9,135.645c-2.312-1.1-7.005-2.761-4.612-4.951s9.133.956,9.468,3.672S141.9,135.645,141.9,135.645Z" transform="translate(-74.76 -101.656)" fill="#d45d67"/>
          <g id="Grupo_41" data-name="Grupo 41" transform="translate(27.454 53.479)">
            <g id="Grupo_38" data-name="Grupo 38">
              <g id="Grupo_37" data-name="Grupo 37">
                <g id="Grupo_36" data-name="Grupo 36">
                  <path id="Trazado_65" data-name="Trazado 65" d="M87.129,173.191a20.647,20.647,0,0,0,6.178,9.872,20.623,20.623,0,0,1,14.355-7.414l.763-.058a20.623,20.623,0,0,1,15.305,5.177,20.65,20.65,0,0,0,4.627-10.687,3.4,3.4,0,0,0-3.634-3.806l-34.572,2.608A3.4,3.4,0,0,0,87.129,173.191Z" transform="translate(-87.002 -166.265)" fill="#28285c"/>
                </g>
              </g>
            </g>
            <g id="Grupo_40" data-name="Grupo 40" transform="translate(6.305 9.267)">
              <g id="Grupo_39" data-name="Grupo 39">
                <path id="Trazado_66" data-name="Trazado 66" d="M111.212,179.688l-.763.058a20.623,20.623,0,0,0-14.355,7.414,20.626,20.626,0,0,0,15.305,5.177l.762-.058a20.624,20.624,0,0,0,14.356-7.414A20.623,20.623,0,0,0,111.212,179.688Z" transform="translate(-96.094 -179.628)" fill="#d45d67"/>
              </g>
            </g>
          </g>
          <path id="Trazado_67" data-name="Trazado 67" d="M117.831,158.311c2.752-1.764,4.589-5.8,1.723-6.839a4.189,4.189,0,0,0-4.618,1.095s-.551-6.1-2.925-4.911C108.787,149.268,109.057,163.934,117.831,158.311Z" transform="translate(-66.635 -107.034)" fill="#ea9c87"/>
        </g>
      </g>
      <g id="Grupo_106" data-name="Grupo 106" transform="translate(211.059 603.5)">
        <g id="Grupo_12" data-name="Grupo 12" transform="translate(0 10.085)">
          <path id="Trazado_159" data-name="Trazado 159" d="M378.862,408.721c-22.156-37.057-61.526-54.682-95.314-56.65-39.082-2.272-67.529,28.649-87.1,61.4-10.974,18.366-19.893,40.169-19.945,64.759-.021,10.421,2.3,21.985,7.5,31.7,5.478,10.244,13.964,17.965,22.613,24.113,20.962,14.906,45.692,21.421,68.214,24.562,23.156,3.227,45.083.176,64.489-10.723,20.812-11.69,36.028-32.084,44.543-57.318C392.3,465.557,394.927,435.594,378.862,408.721Z" transform="translate(-176.498 -351.953)" fill="#ffcb78"/>
          <path id="Trazado_160" data-name="Trazado 160" d="M307.51,423.92c-.865.377-1.022,3.353.154,2.834C308.528,426.375,308.688,423.4,307.51,423.92Z" transform="translate(-127.543 -325.209)" fill="#fffbe9"/>
          <path id="Trazado_161" data-name="Trazado 161" d="M310.142,419.749a1.841,1.841,0,0,0-.769,1.773c.03.554.371,1.3.92,1.063a1.848,1.848,0,0,0,.769-1.773C311.032,420.256,310.692,419.507,310.142,419.749Z" transform="translate(-126.586 -326.755)" fill="#fffbe9"/>
          <path id="Trazado_162" data-name="Trazado 162" d="M305.483,415.388a2.187,2.187,0,0,0-.465,3.162c.622.786,1.1-.21,1.259-1.063a2.744,2.744,0,0,0,.142-1.019C306.393,415.938,306.036,415.1,305.483,415.388Z" transform="translate(-128.396 -328.381)" fill="#fffbe9"/>
          <path id="Trazado_163" data-name="Trazado 163" d="M301.854,407.628c-.022-.039-.051-.067-.073-.1a.985.985,0,0,0-.215-.182.54.54,0,0,0-.165-.089.592.592,0,0,0-.422.012,2.151,2.151,0,0,0-.981,1.805,2.583,2.583,0,0,0,.176,1.328c.092.2.482.734.719.591.5-.306.748-.292,1.019-.9l.011-.037a2.271,2.271,0,0,0,.147-.427c.008-.038.011-.075.018-.118a2.636,2.636,0,0,0,.047-.321,3.045,3.045,0,0,0,.026-.408c0-.051.011-.1.008-.143,0-.071-.029-.15-.041-.226s0-.151-.019-.222A1.6,1.6,0,0,0,301.854,407.628Z" transform="translate(-130.113 -331.397)" fill="#fffbe9"/>
          <path id="Trazado_164" data-name="Trazado 164" d="M305.846,409.081c-.611.269-.724,2.371.107,2.006C306.564,410.816,306.677,408.716,305.846,409.081Z" transform="translate(-128.092 -330.722)" fill="#fffbe9"/>
          <path id="Trazado_165" data-name="Trazado 165" d="M309.271,411.971c-.732.321-.867,2.832.129,2.394C310.13,414.045,310.264,411.533,309.271,411.971Z" transform="translate(-126.841 -329.65)" fill="#fffbe9"/>
          <path id="Trazado_166" data-name="Trazado 166" d="M302.1,420.986c-.9.394-1.063,3.468.153,2.933C303.148,423.527,303.309,420.453,302.1,420.986Z" transform="translate(-129.587 -326.301)" fill="#fffbe9"/>
          <path id="Trazado_167" data-name="Trazado 167" d="M299.569,415.216c-.695-.369-1.1.774-1.16,1.331s.2,1.681.885,1.394a.972.972,0,0,0,.392-.344c-.184.219-.187.261-.006.121a1.142,1.142,0,0,0,.329-.759C300.025,416.6,300.166,415.535,299.569,415.216Z" transform="translate(-130.706 -328.45)" fill="#fffbe9"/>
          <g id="Grupo_9" data-name="Grupo 9" transform="translate(160.883 90.279)">
            <path id="Trazado_168" data-name="Trazado 168" d="M294.794,417.976l0-.012c-.842-.763-1.4.783-1.337,1.527a1.83,1.83,0,0,0,.208.805c.259.44.6.535.915.258a1.826,1.826,0,0,0,.5-1.36c.006-.029.012-.052.018-.081-.007-.047-.012-.11-.017-.182.011.074.019.13.023.167A1,1,0,0,0,294.794,417.976Z" transform="translate(-293.449 -417.758)" fill="#fffbe9"/>
            <path id="Trazado_169" data-name="Trazado 169" d="M294.655,418.735l-.007.015C294.663,418.838,294.67,418.856,294.655,418.735Z" transform="translate(-292.999 -417.394)" fill="#fffbe9"/>
          </g>
          <path id="Trazado_170" data-name="Trazado 170" d="M297.645,426.275c-1.157.509-1.688,2.253-1.612,3.719.066,1.162.783,2.74,1.937,2.232s1.692-2.254,1.611-3.721C299.519,427.343,298.8,425.769,297.645,426.275Z" transform="translate(-131.598 -324.347)" fill="#fffbe9"/>
          <path id="Trazado_171" data-name="Trazado 171" d="M302.1,435.7a2.962,2.962,0,0,0-.473,1.823c.021.375.186,1.228.629,1.353.044.011.092.026.142.038,1.022.281,1.438-1.091,1.417-2.068,0-.078-.005-.158-.005-.237C303.776,435.279,302.716,434.8,302.1,435.7Z" transform="translate(-129.497 -320.977)" fill="#fffbe9"/>
          <path id="Trazado_172" data-name="Trazado 172" d="M305,440.061c.016-.059.032-.117.047-.172-.212.332-.517,1.431.084,1.741a.993.993,0,0,0,.443.136c.729-.016,1.026-1.22.857-1.971C306.127,438.445,305.2,439.453,305,440.061Z" transform="translate(-128.31 -319.531)" fill="#fffbe9"/>
          <path id="Trazado_173" data-name="Trazado 173" d="M309.013,432.474c-.64-.343-1,.853-.948,1.386a1.624,1.624,0,0,0,.472,1.153c.457.433.8-.443.75-.855a.644.644,0,0,0-.018-.122C309.443,433.518,309.537,432.753,309.013,432.474Z" transform="translate(-127.077 -322.027)" fill="#fffbe9"/>
          <path id="Trazado_174" data-name="Trazado 174" d="M295.791,436.132a3.365,3.365,0,0,0-.11,3.575c.061.089.12.178.177.27.475.737,1.274.115,1.55-.274a3.393,3.393,0,0,0,.476-2.645c-.04-.125-.074-.246-.11-.368C297.388,435.357,296.411,435.245,295.791,436.132Z" transform="translate(-131.902 -320.857)" fill="#fffbe9"/>
          <path id="Trazado_175" data-name="Trazado 175" d="M299.075,443.232a1.248,1.248,0,0,0-.422-.1c-.587.01-.937.681-1.085,1.253-.124.477-.227,1.9.484,2.155a.805.805,0,0,0,.941-.2,2.287,2.287,0,0,0,.635-1.456C299.671,444.453,299.614,443.422,299.075,443.232Z" transform="translate(-131.052 -318.041)" fill="#fffbe9"/>
          <path id="Trazado_176" data-name="Trazado 176" d="M307.18,449.42c-.045-.032-.094-.062-.139-.092a.514.514,0,0,0-.608.114c-.221.232-.356.509-.626.571s-.378.686-.171.959c.3.4.329.711.73.989.3.206.637-.11.787-.322l.125-.178C307.588,451.028,307.836,449.856,307.18,449.42Z" transform="translate(-128.029 -315.758)" fill="#fffbe9"/>
          <path id="Trazado_177" data-name="Trazado 177" d="M314.378,441.054c-.77.226-1.231,1.51-1.036,2.463.055.272.26.487.481.394a3.4,3.4,0,0,0,.882-.442C315.22,443.058,315.518,440.719,314.378,441.054Z" transform="translate(-125.11 -318.826)" fill="#fffbe9"/>
          <path id="Trazado_178" data-name="Trazado 178" d="M318.083,425.8c-.221-.484-.635-.317-.831-.038a1.584,1.584,0,0,0-.151,1.449.493.493,0,0,0,.391.322h.067a.163.163,0,0,0,.023.019c.4.235.594-.547.582-.851l0-.011c.005-.047.01-.093.018-.169A1.434,1.434,0,0,0,318.083,425.8Z" transform="translate(-123.724 -324.6)" fill="#fffbe9"/>
          <path id="Trazado_179" data-name="Trazado 179" d="M314.617,430.193a.928.928,0,0,0-.5-.385.909.909,0,0,0-1.058.364c-.623.375-.718,1.628-.461,2.4-.037-.128-.074-.254-.111-.384.022.412.191,1.265.658,1.416a1.08,1.08,0,0,0,1.14-.195A2.63,2.63,0,0,0,314.617,430.193Z" transform="translate(-125.424 -323.014)" fill="#fffbe9"/>
          <path id="Trazado_180" data-name="Trazado 180" d="M319.522,437.358c-.5.708-1.134,2.922-.117,3.843a2.234,2.234,0,0,0,.6.458c1.134.438,1.655-1.1,1.8-2.077a3.246,3.246,0,0,0-.321-2.131C320.889,436.374,320.033,436.62,319.522,437.358Z" transform="translate(-123.019 -320.425)" fill="#fffbe9"/>
          <path id="Trazado_181" data-name="Trazado 181" d="M319.066,416.728a.412.412,0,0,0-.083-.115c-.986-1.121-1.677,1.121-1.638,1.871.085,1.534,1.3,1.545,1.748.486a1.248,1.248,0,0,0,.071-.193A2.2,2.2,0,0,0,319.066,416.728Z" transform="translate(-123.59 -328.019)" fill="#fffbe9"/>
          <path id="Trazado_182" data-name="Trazado 182" d="M323.065,423.921c-.029-.034-.062-.068-.088-.1-.559-.66-.9.76-.817,1.173a1.907,1.907,0,0,1,.034.2c.047.731.6,1.033.959.512C323.415,425.324,323.644,424.3,323.065,423.921Z" transform="translate(-121.786 -325.288)" fill="#fffbe9"/>
          <path id="Trazado_183" data-name="Trazado 183" d="M199.969,415.323l-.022.012a4.915,4.915,0,0,0-1.513,5.884c.406.9,1.172,1.3,1.885,1,1.113-.465,1.735-2.022,1.843-3.39l.008-.043a5.026,5.026,0,0,0-.334-2.472C201.471,415.508,200.629,414.925,199.969,415.323Z" transform="translate(-168.412 -328.432)" fill="#fffbe9"/>
          <path id="Trazado_184" data-name="Trazado 184" d="M200.7,410.015c-.01.037-.019.078-.026.121-.169.678-.212,2.53.85,2.557,1.1.033,1.542-1.868,1.29-2.958l-.025-.114C202.356,407.724,200.946,409.024,200.7,410.015Z" transform="translate(-167.449 -330.866)" fill="#fffbe9"/>
          <path id="Trazado_185" data-name="Trazado 185" d="M196.689,407.232c-.021-.011-.043-.019-.066-.03a.327.327,0,0,0-.385.068,1.656,1.656,0,0,0-.267,1.683c.366,1.239,1.483-.287.978-1.122l0-.007A.61.61,0,0,0,196.689,407.232Z" transform="translate(-169.224 -331.417)" fill="#fffbe9"/>
          <path id="Trazado_186" data-name="Trazado 186" d="M207.481,409.038a2.461,2.461,0,0,0-.641.1c-.231.1-.426.455-.682.476-.37.027-.612.789-.3,1.166a2.1,2.1,0,0,1,.259.561,3.319,3.319,0,0,0,.552.857.645.645,0,0,0,.984.045,2.391,2.391,0,0,0,.594-2.321C208.184,409.542,207.856,409,207.481,409.038Z" transform="translate(-165.523 -330.722)" fill="#fffbe9"/>
          <path id="Trazado_187" data-name="Trazado 187" d="M211.141,423.954a2.415,2.415,0,0,0-.678,1.265,3.077,3.077,0,0,0-.07.429.272.272,0,0,1-.005.034.045.045,0,0,1,0,.023.347.347,0,0,0,0,.038c-.005.064-.007.139-.007.224a2.593,2.593,0,0,0,.283,1.354l.005,0a.812.812,0,0,0,.149.181.58.58,0,0,0,.227.132l.21.056c.845.236,1.374-.766,1.414-1.631,0-.11.014-.213.017-.321C212.732,424.714,212.16,423.054,211.141,423.954Z" transform="translate(-163.772 -325.27)" fill="#fffbe9"/>
          <path id="Trazado_188" data-name="Trazado 188" d="M210.657,433.142a2,2,0,0,0-.834,1.917c.033.6.4,1.413.995,1.151a2,2,0,0,0,.835-1.917C211.62,433.692,211.251,432.881,210.657,433.142Z" transform="translate(-163.981 -321.775)" fill="#fffbe9"/>
          <path id="Trazado_189" data-name="Trazado 189" d="M205.43,430.088c-.6-.621-1.128.274-1.266.8-.1.388-.135,1.9.6,1.8.215-.03.425.2.66.111a.74.74,0,0,0,.439-.554A2.344,2.344,0,0,0,205.43,430.088Z" transform="translate(-166.125 -322.971)" fill="#fffbe9"/>
          <path id="Trazado_190" data-name="Trazado 190" d="M199.062,432.4c-1.058-1.206-2.367,1.97-1.048,3.039.47.383.691.067,1.132.025.509-.045.883-1.034.552-1.615C199.406,433.333,199.486,432.879,199.062,432.4Z" transform="translate(-168.624 -322.134)" fill="#fffbe9"/>
          <path id="Trazado_191" data-name="Trazado 191" d="M193.374,426.727c-.015-.019-.016-.053-.04-.071s-.059-.022-.087-.038c-.011,0-.012-.011-.021-.015l.007.014c-.542-.235-.71.848-.686,1.274.019.342.146.659.458.726l.111.074c.348.231.531-.5.519-.759C193.616,427.62,193.666,427,193.374,426.727Z" transform="translate(-170.47 -324.196)" fill="#fffbe9"/>
          <path id="Trazado_192" data-name="Trazado 192" d="M202.485,424a2.037,2.037,0,0,0-.847,1.954c.033.611.409,1.436,1.017,1.172a2.037,2.037,0,0,0,.849-1.954C203.471,424.556,203.093,423.728,202.485,424Z" transform="translate(-167.056 -325.177)" fill="#fffbe9"/>
          <path id="Trazado_193" data-name="Trazado 193" d="M207.363,416.455c-1.731.759-2.05,6.7.305,5.67C209.4,421.367,209.712,415.422,207.363,416.455Z" transform="translate(-165.422 -328.008)" fill="#fffbe9"/>
          <path id="Trazado_194" data-name="Trazado 194" d="M193.077,416.109c-.149-.642-.545-1.266-1.145-1.006a13.5,13.5,0,0,0,.828,1.272c-.116.763-.228,1.528-.344,2.292a1.988,1.988,0,0,0,.469-.679,3.187,3.187,0,0,0,.263-1.483l0-.026a1.947,1.947,0,0,0-.04-.311A.235.235,0,0,0,193.077,416.109Z" transform="translate(-170.7 -328.488)" fill="#fffbe9"/>
          <path id="Trazado_195" data-name="Trazado 195" d="M194.864,436.213a.578.578,0,0,1-.131-.129c-.655-.785-1.416.082-1.659.663a.585.585,0,0,0-.026.059c-.26.6-.572,2.1.126,2.748a.9.9,0,0,0,1.074.208c.626-.191,1.227-1.7.974-2.723A1.235,1.235,0,0,0,194.864,436.213Z" transform="translate(-170.394 -320.779)" fill="#fffbe9"/>
          <path id="Trazado_196" data-name="Trazado 196" d="M200.707,444.528a.606.606,0,0,0-.71-.213.871.871,0,0,0-.692.052,1.2,1.2,0,0,0-.446,1.314,7.187,7.187,0,0,0,.259.708,3.5,3.5,0,0,0,.226.982c.333.859,1.1.5,1.4.069a2.556,2.556,0,0,0,.084-2.729C200.786,444.649,200.743,444.586,200.707,444.528Z" transform="translate(-168.116 -317.618)" fill="#fffbe9"/>
          <path id="Trazado_197" data-name="Trazado 197" d="M187.439,439.308l-.109-.093c-1.175-1.033-1.974.772-2.079,1.826a2.637,2.637,0,0,0,.429,1.892.813.813,0,0,0,1.253.058c.047-.048.087-.1.133-.141a2.972,2.972,0,0,0,.768-1.77A2.389,2.389,0,0,0,187.439,439.308Z" transform="translate(-173.216 -319.613)" fill="#fffbe9"/>
          <path id="Trazado_198" data-name="Trazado 198" d="M254.325,372.43l-.01-.034a1.185,1.185,0,0,0-.1-.237.756.756,0,0,0-.078-.093.635.635,0,0,0-.12-.123.667.667,0,0,0-.3-.117l-.231-.029c-.415-.055-.644.616-.677.992-.011.143-.026.285-.039.425-.091,1,.638,1.954,1.272,1.048a1.434,1.434,0,0,0,.149-.317.108.108,0,0,1,.01.033,3.381,3.381,0,0,0,.136-.576A2.3,2.3,0,0,0,254.325,372.43Z" transform="translate(-147.849 -344.574)" fill="#fffbe9"/>
          <path id="Trazado_199" data-name="Trazado 199" d="M257.109,380.658c-.57-.816-1.085.8-1.059,1.211a4.614,4.614,0,0,1-.122.931,1.89,1.89,0,0,0,.318,1.4c.037.036.078.08.117.118.919.919,1.41-.938,1.422-1.624A3.7,3.7,0,0,0,257.109,380.658Z" transform="translate(-146.667 -341.361)" fill="#fffbe9"/>
          <path id="Trazado_200" data-name="Trazado 200" d="M250.551,382.751c-.75-.989-1.358.981-1.327,1.517.022.42.215,1.043.666,1.052a.7.7,0,0,0,.593-.38,1.031,1.031,0,0,0,.451-1.188A2.529,2.529,0,0,0,250.551,382.751Z" transform="translate(-149.179 -340.6)" fill="#fffbe9"/>
          <path id="Trazado_201" data-name="Trazado 201" d="M253.246,393.574a.9.9,0,0,1,.063-.077,2.012,2.012,0,0,0-.254,2.438.378.378,0,0,0,.114.128c.849.735,1.422-.553,1.5-1.323C254.777,393.625,253.948,392.561,253.246,393.574Z" transform="translate(-147.851 -336.624)" fill="#fffbe9"/>
          <path id="Trazado_202" data-name="Trazado 202" d="M250.173,427.9c-.032-.025-.059-.048-.088-.07a.8.8,0,0,0-.7-.027,3.778,3.778,0,0,0-.5.331,3.274,3.274,0,0,0-.887,2.59c.036.641.373,1.812,1.114,1.757.757-.053,1.143-.579,1.5-1.273A2.87,2.87,0,0,0,250.173,427.9Z" transform="translate(-149.644 -323.769)" fill="#fffbe9"/>
          <path id="Trazado_203" data-name="Trazado 203" d="M255.4,425.425c-.348-.025-.347.3-.532.5-.16.172-.407.973.055,1.04a.3.3,0,0,0,.021.049.322.322,0,0,0,.491.023.215.215,0,0,1,.049-.044C255.72,426.753,256.087,425.48,255.4,425.425Z" transform="translate(-147.138 -324.627)" fill="#fffbe9"/>
          <path id="Trazado_204" data-name="Trazado 204" d="M257.876,432.119c-.1.053-.211.1-.315.158-.322,0-.491.675-.25.98l.017.019c-.091.5-.139,1.338.406,1.645.023.015.044.027.069.041.747.423,1.208-.87,1.267-1.463C259.153,432.626,258.662,431.532,257.876,432.119Z" transform="translate(-146.184 -322.199)" fill="#fffbe9"/>
          <path id="Trazado_205" data-name="Trazado 205" d="M252.741,431.921a1.959,1.959,0,0,0-.465,1.8.944.944,0,0,0,.4.632c.045.025.07.036.095.047.033.029.07.058.135.1.543.4.858-.833.832-1.21l0-.036a1.959,1.959,0,0,0-.006-.809C253.589,431.838,253.118,431.588,252.741,431.921Z" transform="translate(-148.05 -322.266)" fill="#fffbe9"/>
          <path id="Trazado_206" data-name="Trazado 206" d="M287.257,379.79c-1.385.611-1.638,5.377.245,4.547C288.892,383.732,289.145,378.963,287.257,379.79Z" transform="translate(-135.306 -341.635)" fill="#fffbe9"/>
          <path id="Trazado_207" data-name="Trazado 207" d="M286.98,386.582c-.754-.022-1.27.915-1.431,1.65a.266.266,0,0,0-.012.048c-.171.786-.25,2.922.986,2.955,1.107.032,1.659-1.752,1.564-2.865a.239.239,0,0,1-.005-.049C288.023,387.629,287.742,386.6,286.98,386.582Z" transform="translate(-135.574 -339.074)" fill="#fffbe9"/>
          <path id="Trazado_208" data-name="Trazado 208" d="M283.359,384.137c-.707-1.27-1.52-.014-1.758.713-.025.069-.049.141-.07.213a2.525,2.525,0,0,0,.278,2.151c.446.512.695.425,1.206.434.832.008,1.08-1.505.649-2.3A3.4,3.4,0,0,0,283.359,384.137Z" transform="translate(-137.087 -340.185)" fill="#fffbe9"/>
          <path id="Trazado_209" data-name="Trazado 209" d="M278.375,371.2c-.4.178-.477,1.56.074,1.32C278.847,372.345,278.926,370.964,278.375,371.2Z" transform="translate(-138.349 -344.804)" fill="#fffbe9"/>
          <path id="Trazado_210" data-name="Trazado 210" d="M216.027,378.34c-.5-.7-1.241-.145-1.53.269a3.366,3.366,0,0,0-.47,2.616,1.862,1.862,0,0,0,.8,1.313c.5.287.979-.133,1.233-.5a3.5,3.5,0,0,0,.465-2.585A2.52,2.52,0,0,0,216.027,378.34Z" transform="translate(-162.436 -342.263)" fill="#fffbe9"/>
          <path id="Trazado_211" data-name="Trazado 211" d="M221.235,371.09a1.968,1.968,0,0,0-.842,1.885l1.239,1.063a1.714,1.714,0,0,0,.392-.561,2.746,2.746,0,0,0,.217-1.228C222.208,371.644,221.836,370.823,221.235,371.09Z" transform="translate(-160.009 -344.855)" fill="#fffbe9"/>
          <g id="Grupo_10" data-name="Grupo 10" transform="translate(67.047 44.188)">
            <path id="Trazado_212" data-name="Trazado 212" d="M225.381,384.831h0C225.4,384.727,225.407,384.679,225.381,384.831Z" transform="translate(-225.182 -383.948)" fill="#fffbe9"/>
            <path id="Trazado_213" data-name="Trazado 213" d="M226.4,384.312a.262.262,0,0,1-.128-.077c-.389-.269-.656.257-.785.672-.019.044-.032.092-.049.136s-.022.119-.033.188v0c.014-.085.025-.147.03-.191a3.133,3.133,0,0,0-.124.333,1.786,1.786,0,0,0,.2,1.5.562.562,0,0,0,.935-.165c.025-.038.044-.077.066-.114C226.728,386.216,227.226,384.614,226.4,384.312Z" transform="translate(-225.236 -384.161)" fill="#fffbe9"/>
          </g>
          <path id="Trazado_214" data-name="Trazado 214" d="M219.666,381.136a.423.423,0,0,1-.072.023c-.719.192-1.131,2.1-.271,2.668l.069.047C220.6,384.672,221.148,380.738,219.666,381.136Z" transform="translate(-160.592 -341.11)" fill="#fffbe9"/>
          <g id="Grupo_11" data-name="Grupo 11" transform="translate(52.246 47.566)">
            <path id="Trazado_215" data-name="Trazado 215" d="M216.646,386.964l-.074-.074a.789.789,0,0,0-.715-.254,2.5,2.5,0,0,0-.907,3.653.861.861,0,0,0,1.052.283C216.847,390.256,217.642,387.924,216.646,386.964Z" transform="translate(-214.477 -386.624)" fill="#fffbe9"/>
            <path id="Trazado_216" data-name="Trazado 216" d="M215.362,386.647c.061-.021.11,0,.162-.011.012,0,.023-.011.034-.012C215.493,386.629,215.429,386.64,215.362,386.647Z" transform="translate(-214.145 -386.624)" fill="#fffbe9"/>
          </g>
          <path id="Trazado_217" data-name="Trazado 217" d="M232.21,467.177a1.961,1.961,0,0,0-.814,1.881c.033.589.392,1.382.978,1.126a1.959,1.959,0,0,0,.813-1.88C233.155,467.717,232.792,466.92,232.21,467.177Z" transform="translate(-155.877 -309.116)" fill="#fffbe9"/>
          <path id="Trazado_218" data-name="Trazado 218" d="M239.34,464.5c-.567-.675-1.164.093-1.392.554a2.552,2.552,0,0,0-.047,2.371q.846-.5,1.692-1A2.243,2.243,0,0,0,239.34,464.5Z" transform="translate(-153.538 -310.192)" fill="#fffbe9"/>
          <path id="Trazado_219" data-name="Trazado 219" d="M243.551,477.181l-.083-.086c-1.315-1.373-2.076,1.394-2.076,2.372,0,.06,0,.123,0,.187,0,1.185.923,2.161,1.751,1.432C243.858,480.456,244.572,478.247,243.551,477.181Z" transform="translate(-152.121 -305.549)" fill="#fffbe9"/>
          <path id="Trazado_220" data-name="Trazado 220" d="M237.024,472.529a.281.281,0,0,0-.048-.005c-.794-.108-1.361,1.906-.658,2.564a1.678,1.678,0,0,0,.417.265c.691.332.99-.867.977-1.424,0-.114-.006-.225-.015-.339C237.668,473.128,237.486,472.589,237.024,472.529Z" transform="translate(-154.147 -307.111)" fill="#fffbe9"/>
          <path id="Trazado_221" data-name="Trazado 221" d="M229.045,477.535a2.164,2.164,0,0,0-.9,2.077c.033.652.431,1.53,1.078,1.247a2.164,2.164,0,0,0,.9-2.074C230.092,478.132,229.69,477.251,229.045,477.535Z" transform="translate(-157.097 -305.266)" fill="#fffbe9"/>
          <path id="Trazado_222" data-name="Trazado 222" d="M238.425,487.8c-.6-.716-1.194-.085-1.521.5a.725.725,0,0,0-.38.557,3.927,3.927,0,0,0,.213,1.969c.546,1.209,1.515.35,1.81-.32A2.8,2.8,0,0,0,238.425,487.8Z" transform="translate(-153.963 -301.547)" fill="#fffbe9"/>
          <path id="Trazado_223" data-name="Trazado 223" d="M245.834,490.523c-.395-.044-.673.254-1.021.259-.575,0-1.04,1.368-.491,1.908a4.6,4.6,0,0,1,.538.675C246.072,495.522,247.7,490.723,245.834,490.523Z" transform="translate(-151.112 -300.416)" fill="#fffbe9"/>
          <path id="Trazado_224" data-name="Trazado 224" d="M231.935,489.549a1.272,1.272,0,0,0-.2.25c-.981.531-.7,3.537.534,2.652a2.18,2.18,0,0,0,.589-2.642C232.626,489.34,232.236,489.291,231.935,489.549Z" transform="translate(-155.969 -300.835)" fill="#fffbe9"/>
          <path id="Trazado_225" data-name="Trazado 225" d="M224.073,473.8a1.943,1.943,0,0,0-.809,1.863c.033.582.391,1.372.97,1.118a1.949,1.949,0,0,0,.809-1.863C225.011,474.338,224.652,473.546,224.073,473.8Z" transform="translate(-158.932 -306.653)" fill="#fffbe9"/>
          <path id="Trazado_226" data-name="Trazado 226" d="M220.9,482.639c-.893.392-1.032,1.48-.944,2.46l1.41.988a1.876,1.876,0,0,0,.454-.654,3.147,3.147,0,0,0,.257-1.432C222.036,483.292,221.6,482.333,220.9,482.639Z" transform="translate(-160.182 -303.369)" fill="#fffbe9"/>
          <path id="Trazado_227" data-name="Trazado 227" d="M247.592,476.035a.365.365,0,0,1-.111-.091c-.512-.526-.759.627-.7,1.008a1.119,1.119,0,0,1,.022.233c.022.671.545.92.868.462C247.888,477.341,248.137,476.331,247.592,476.035Z" transform="translate(-150.099 -305.887)" fill="#fffbe9"/>
          <path id="Trazado_228" data-name="Trazado 228" d="M258.593,488.314a.864.864,0,0,0-.908.672c-.01.076-.025.15-.04.225-.065.347-.179,1.351.344,1.531a.618.618,0,0,0,.546-.011,1.419,1.419,0,0,0,.638-1.172C259.211,489.191,259.107,488.281,258.593,488.314Z" transform="translate(-146.037 -301.237)" fill="#fffbe9"/>
          <path id="Trazado_229" data-name="Trazado 229" d="M245.817,483.242c-1.12.492-1.322,4.337.2,3.667C247.132,486.417,247.339,482.577,245.817,483.242Z" transform="translate(-150.793 -303.152)" fill="#fffbe9"/>
          <path id="Trazado_230" data-name="Trazado 230" d="M242.038,482.593l-.08.022c-.3-.418-.553.465-.491.7l-.038.167c-.078.647.42,1.242.818.672C242.437,483.887,242.7,482.612,242.038,482.593Z" transform="translate(-152.11 -303.397)" fill="#fffbe9"/>
          <path id="Trazado_231" data-name="Trazado 231" d="M279.525,469.462c-.11-.2-.31-.476-.53-.436-.395.077-.7.2-.8.7a2.935,2.935,0,0,0,.072,1.826c.261.7.89.4,1.134.056a2.121,2.121,0,0,0,.208-1.981C279.58,469.569,279.551,469.514,279.525,469.462Z" transform="translate(-138.338 -308.412)" fill="#fffbe9"/>
          <path id="Trazado_232" data-name="Trazado 232" d="M290.724,481.313c-.023-.032-.05-.069-.073-.1a.585.585,0,0,0-.905-.041.37.37,0,0,1,.056,0,1.963,1.963,0,0,0-.47,2.622,1.516,1.516,0,0,0,.337.272c.473.276.931-.288,1.084-.685.018-.053.04-.1.062-.159A2.038,2.038,0,0,0,290.724,481.313Z" transform="translate(-134.239 -303.965)" fill="#fffbe9"/>
          <path id="Trazado_233" data-name="Trazado 233" d="M294.809,475.361c-.684-1.095-1.477,1.195-1.278,1.847a2.915,2.915,0,0,0,.253.649c.347.612.825.48,1.121.055a2.222,2.222,0,0,0,.2-1.958A2.584,2.584,0,0,0,294.809,475.361Z" transform="translate(-132.547 -306.163)" fill="#fffbe9"/>
          <path id="Trazado_234" data-name="Trazado 234" d="M289.2,476.32c-1.125.491-1.332,4.356.2,3.682C290.522,479.507,290.731,475.645,289.2,476.32Z" transform="translate(-134.498 -305.727)" fill="#fffbe9"/>
          <path id="Trazado_235" data-name="Trazado 235" d="M285.894,484.109c-.029-.023-.058-.044-.084-.067a.671.671,0,0,0-.992-.043c-.065.047-.129.1-.191.147a2.327,2.327,0,0,0-.633,1.86c.023.445.266,1.317.8,1.261.626-.067.9-.391,1.2-.985C286.21,485.859,286.437,484.572,285.894,484.109Z" transform="translate(-136.119 -302.915)" fill="#fffbe9"/>
          <path id="Trazado_236" data-name="Trazado 236" d="M293.927,486.425c-.151.317-.292,1.1.066,1.454l.193.189c.735.722,1.359-.539,1.382-1.217a2.558,2.558,0,0,0-.032-.67C295.329,485.253,294.456,485.28,293.927,486.425Z" transform="translate(-132.446 -302.275)" fill="#fffbe9"/>
          <path id="Trazado_237" data-name="Trazado 237" d="M299.9,479.725c.093-.14.078-.13-.059.022a2.357,2.357,0,0,0-.619,1.815c.028.534.44,1.553,1.025,1.181a2.418,2.418,0,0,0,.841-2.961C300.774,479.054,300.185,479.36,299.9,479.725Z" transform="translate(-130.399 -304.575)" fill="#fffbe9"/>
          <path id="Trazado_238" data-name="Trazado 238" d="M306.158,474.138c-.605.08-.927.449-1.1,1.122-.122.457-.019,2.095.77,1.67a3.111,3.111,0,0,0,.464-.332C306.665,476.295,307.172,474.015,306.158,474.138Z" transform="translate(-128.222 -306.511)" fill="#fffbe9"/>
          <path id="Trazado_239" data-name="Trazado 239" d="M284.2,478.91c-.686.3-.812,2.66.124,2.251C285.006,480.859,285.131,478.5,284.2,478.91Z" transform="translate(-136.246 -304.752)" fill="#fffbe9"/>
          <path id="Trazado_240" data-name="Trazado 240" d="M280.535,490.516c-.57-.012-.908.447-1.12.988a2.731,2.731,0,0,0-.063,2.087.7.7,0,0,0,1.161.327,2.222,2.222,0,0,0,.724-1.3C281.4,492.072,281.394,490.534,280.535,490.516Z" transform="translate(-137.93 -300.417)" fill="#fffbe9"/>
          <path id="Trazado_241" data-name="Trazado 241" d="M284.384,471.327c-.64.285-.755,2.489.117,2.1C285.141,473.15,285.257,470.947,284.384,471.327Z" transform="translate(-136.162 -307.571)" fill="#fffbe9"/>
          <path id="Trazado_242" data-name="Trazado 242" d="M219.847,452.524c-.465-.25-.791.118-.986.6,0,.014-.015.019-.023.03s-.015.06-.025.088a3,3,0,0,0-.172,1.036,1.865,1.865,0,0,0,.168.679.517.517,0,0,0,.546.42c.336.045.5-.148.48-.576q.184-.373.378-.748c-.047.248-.092.5-.136.748C220.313,454.3,220.612,452.931,219.847,452.524Z" transform="translate(-160.668 -314.578)" fill="#fffbe9"/>
          <path id="Trazado_243" data-name="Trazado 243" d="M221.371,452.339c.085.023.169.044.255.066.348.1.575-.575.593-.864.008-.163.015-.324.025-.483C222.409,447.814,219.314,451.784,221.371,452.339Z" transform="translate(-159.908 -315.562)" fill="#fffbe9"/>
          <path id="Trazado_244" data-name="Trazado 244" d="M234.758,399.867l-.136.06a2.289,2.289,0,0,0-.955,2.2c.036.685.459,1.619,1.145,1.317l.139-.062a2.289,2.289,0,0,0,.953-2.2C235.864,400.5,235.442,399.566,234.758,399.867Z" transform="translate(-155.024 -334.154)" fill="#fffbe9"/>
          <path id="Trazado_245" data-name="Trazado 245" d="M239.1,403.224c-.447-.5-.911-.018-1.116.392-.29.381-.623,1.682.014,1.919a.806.806,0,0,0,.376.332c.743.277,1.154-.883,1.084-1.583A1.668,1.668,0,0,0,239.1,403.224Z" transform="translate(-153.531 -332.962)" fill="#fffbe9"/>
          <path id="Trazado_246" data-name="Trazado 246" d="M279.786,411.873a2.03,2.03,0,0,0-.849,1.952c.034.613.41,1.439,1.018,1.176a2.041,2.041,0,0,0,.846-1.956C280.768,412.43,280.4,411.605,279.786,411.873Z" transform="translate(-138.019 -329.686)" fill="#fffbe9"/>
          <path id="Trazado_247" data-name="Trazado 247" d="M275.188,406.108c-.246.556-.52,1.6.087,2.19a.381.381,0,0,0,.6,0c.658-.129.886-1.486.74-2.128C276.358,405.024,275.47,405.459,275.188,406.108Z" transform="translate(-139.531 -332.053)" fill="#fffbe9"/>
          <path id="Trazado_248" data-name="Trazado 248" d="M275.12,413.789l-.1.14c-.285.4-.7,2.036.117,2.379l.113.047c.878.368,1.3-1.06,1.256-1.832C276.444,413.458,275.647,413.055,275.12,413.789Z" transform="translate(-139.626 -329.093)" fill="#fffbe9"/>
          <path id="Trazado_249" data-name="Trazado 249" d="M277.23,437.575c-.04.038-.083.075-.12.112a2.387,2.387,0,0,0-.571,2.225c0,.011.006.026.012.041.116.414.283.687.655.76a.562.562,0,0,0,.554-.295c.039.018.08.034.121.051a2.4,2.4,0,0,0,.574-2.238C278.29,437.485,277.7,437.153,277.23,437.575Z" transform="translate(-138.946 -320.177)" fill="#fffbe9"/>
          <path id="Trazado_250" data-name="Trazado 250" d="M279.918,442.4c-.6.261-.707,2.312.107,1.955C280.621,444.09,280.731,442.042,279.918,442.4Z" transform="translate(-137.828 -318.33)" fill="#fffbe9"/>
          <path id="Trazado_251" data-name="Trazado 251" d="M275.64,442.769c-.593.263-.707,2.31.1,1.955C276.344,444.466,276.453,442.414,275.64,442.769Z" transform="translate(-139.434 -318.191)" fill="#fffbe9"/>
          <path id="Trazado_252" data-name="Trazado 252" d="M275.96,450.129a1.259,1.259,0,0,0-.473.118,1.6,1.6,0,0,0-.662,1.53c.026.475.319,1.122.8.915a1.776,1.776,0,0,0,.461-.288C276.423,452.1,276.935,450.108,275.96,450.129Z" transform="translate(-139.563 -315.439)" fill="#fffbe9"/>
          <path id="Trazado_253" data-name="Trazado 253" d="M261,458.68c-.565.248-.67,2.2.1,1.858C261.668,460.289,261.769,458.342,261,458.68Z" transform="translate(-144.925 -312.273)" fill="#fffbe9"/>
          <path id="Trazado_254" data-name="Trazado 254" d="M270.988,361.163c-1.041-.624-1.091,2.412-.221,2.018.012.015.014.019.034.043.486.643.867-.724.768-1.107A1.287,1.287,0,0,0,270.988,361.163Z" transform="translate(-141.315 -348.559)" fill="#fffbe9"/>
          <path id="Trazado_255" data-name="Trazado 255" d="M231.738,360.138a3.237,3.237,0,0,0-.488,1.045c-.3.907.069,2.508.919,2.438a.5.5,0,0,0-.047.022.584.584,0,0,1,.085-.008l.023-.01c.008,0,.014,0,.021,0,.949-.126,1.383-1.456,1.325-2.5C233.5,359.646,232.465,359.239,231.738,360.138Z" transform="translate(-155.969 -349.085)" fill="#fffbe9"/>
          <path id="Trazado_256" data-name="Trazado 256" d="M236.732,363.316c-.894.394-1.061,3.467.16,2.936C237.787,365.859,237.951,362.782,236.732,363.316Z" transform="translate(-154.139 -347.75)" fill="#fffbe9"/>
          <path id="Trazado_257" data-name="Trazado 257" d="M238.079,361.81c-.358.158-.425,1.386.063,1.174C238.5,362.826,238.566,361.6,238.079,361.81Z" transform="translate(-153.473 -348.296)" fill="#fffbe9"/>
        </g>
        <g id="Grupo_14" data-name="Grupo 14" transform="translate(143.416)">
          <g id="Grupo_13" data-name="Grupo 13">
            <path id="Trazado_258" data-name="Trazado 258" d="M362.341,376.374c.242,11.552-8.053,23.81-21.131,31.231-14.153,8.029-29.911,8.284-42.152.676a31.405,31.405,0,0,1-15.1-25.973,30,30,0,0,1,9.105-22.132c13.273-13.1,35.853-16.261,52.522-7.356,13.591,7.259,16.614,16.814,16.755,23.553Z" transform="translate(-279.549 -343.421)" fill="#ff8e7b"/>
            <path id="Trazado_259" data-name="Trazado 259" d="M289.559,383.4a25.634,25.634,0,0,1,7.8-18.92c11.989-11.831,32.57-14.5,47.348-6.607,10.07,5.378,14.279,12.505,14.432,19.778.437,20.888-32.622,42.959-56.557,28.09A27.035,27.035,0,0,1,289.559,383.4m-8.8.184a35.784,35.784,0,0,0,17.171,29.606c13.638,8.473,31.081,8.252,46.66-.589,14.461-8.206,23.627-22,23.352-35.135-.136-6.474-2.8-18.636-19.078-27.333-18.3-9.775-43.1-6.292-57.693,8.105a34.348,34.348,0,0,0-10.412,25.345Z" transform="translate(-280.751 -344.602)" fill="#fff"/>
          </g>
          <path id="Trazado_260" data-name="Trazado 260" d="M298.863,379.13c1.421,1.067,3.681.855,5.181.084,1.186-.613,2.314-2.155.9-3.217s-3.677-.857-5.178-.086C298.577,376.524,297.449,378.066,298.863,379.13Z" transform="translate(-274.195 -333.198)" fill="#fffbe9"/>
          <path id="Trazado_261" data-name="Trazado 261" d="M296.693,371.733a3.789,3.789,0,0,0,3.777.062c.868-.447,1.693-1.57.659-2.349a3.8,3.8,0,0,0-3.779-.062C296.487,369.834,295.661,370.958,296.693,371.733Z" transform="translate(-274.943 -335.561)" fill="#fffbe9"/>
          <path id="Trazado_262" data-name="Trazado 262" d="M301.438,367.768c.055.139.11.279.158.42.552,1.457,2.651,1.344,3.822.738,1.5-.772,1.134-2.1-.351-2.5q-.32-.088-.64-.173C303.75,366.068,300.964,366.5,301.438,367.768Z" transform="translate(-273.001 -336.565)" fill="#fffbe9"/>
          <path id="Trazado_263" data-name="Trazado 263" d="M305.313,372.231c-.017.052-.033.1-.048.144-.081.231.054.394.2.545.083.084.165.166.243.247.817.834,3.273-.417,1.875-1.206a2.031,2.031,0,0,0-1.147-.3C306.035,371.674,305.47,371.793,305.313,372.231Z" transform="translate(-271.552 -334.537)" fill="#fffbe9"/>
          <path id="Trazado_264" data-name="Trazado 264" d="M322.125,371.319a4.613,4.613,0,0,0,4.6.07c1.056-.542,2.061-1.911.8-2.858a4.63,4.63,0,0,0-4.6-.075C321.87,369,320.868,370.371,322.125,371.319Z" transform="translate(-265.43 -335.944)" fill="#fffbe9"/>
        </g>
      </g>
      <g id="Grupo_107" data-name="Grupo 107" transform="translate(-34.495 645.559)">
        <path id="Trazado_518" data-name="Trazado 518" d="M495.8,468.54c2.671-4.023,18.429-49.968,26.361-52.653S565.583,451,571.793,449.665,609.077,386,613.536,384.438c4.2-1.125,43.064,39.563,50.127,38.426s32.131-61.185,38.958-63.014,36.562,35.438,43.866,43.042" transform="translate(-488.928 -334.241)" fill="none" stroke="#000" stroke-miterlimit="10" stroke-width="3"/>
        <path id="Trazado_519" data-name="Trazado 519" d="M491.874,453.9c2.671-4.023,18.429-49.967,26.361-52.652s43.418,35.112,49.628,33.778,37.283-63.665,41.743-65.227c4.2-1.125,43.063,39.562,50.127,38.426s32.131-61.184,38.959-63.013,36.562,35.438,43.866,43.042" transform="translate(-488.436 -332.373)" fill="none" stroke="#000" stroke-miterlimit="10" stroke-width="3"/>
        <path id="Trazado_520" data-name="Trazado 520" d="M487.944,439.26c2.671-4.025,18.429-49.968,26.361-52.653s43.417,35.109,49.628,33.779,37.283-63.667,41.742-65.229c4.2-1.125,43.064,39.561,50.127,38.425s32.131-61.184,38.959-63.012,36.561,35.438,43.866,43.043" transform="translate(-487.944 -330.505)" fill="none" stroke="#000" stroke-miterlimit="10" stroke-width="3"/>
      </g>
      <g id="Grupo_108" data-name="Grupo 108" transform="translate(348.896 297.068)">
        <path id="Trazado_372" data-name="Trazado 372" d="M730.011,51.035c-12.3-5.518-24.948-10.267-37.527-15.1C683.033,32.307,672.8,29,662.707,31.855c-17.545,4.968-19.614,32.283-21.131,46.651-2.487,23.687-1.142,47.478-2.288,71.2a1.3,1.3,0,0,0,.3,1c-.136,6.788.793,13.372,4.244,18.253,6.831,9.642,26.931-7.113,32.4-11.121,14.862-10.9,29.284-21.468,44.834-31.493,9.612-6.193,18.936-12.767,28.177-19.5,6.543-4.745,13.971-10.124,17.6-17.568C777.435,67.487,743.92,57.285,730.011,51.035Z" transform="translate(-639.286 -30.774)" fill="#ffcb78"/>
        <path id="Trazado_373" data-name="Trazado 373" d="M663.3,171.525c1.68.483,5.159-2.549,2.863-3.206C664.473,167.834,661,170.869,663.3,171.525Z" transform="translate(-642.198 -48.316)" fill="#fffbe9"/>
        <path id="Trazado_374" data-name="Trazado 374" d="M653.38,174.475c.045.063.091.127.137.188.745,1.082,2.369.318,3.179-.242a1.949,1.949,0,0,0,1.01-1.784.515.515,0,0,0-.5-.465,1.665,1.665,0,0,0-1.259-.209c-.126.035-.26.061-.388.1C654.823,172.238,652.6,173.341,653.38,174.475Z" transform="translate(-641.031 -48.782)" fill="#fffbe9"/>
        <path id="Trazado_375" data-name="Trazado 375" d="M652.185,162.714c.006.069.019.142.027.208.094.808,1.009,1.018,1.7.872.033.032.067.069.11.1.464.463,1.855-.309,1.719-.953,0-.025-.015-.049-.017-.072a2.587,2.587,0,0,0,.666-.871C657.666,159.131,651.869,160.212,652.185,162.714Z" transform="translate(-640.9 -47.298)" fill="#fffbe9"/>
        <path id="Trazado_376" data-name="Trazado 376" d="M660.138,151.135a.485.485,0,0,0,.157.345,1.2,1.2,0,0,0,.24.2c-.009.005-.006.011-.016.019.213.545,1.155.406,1.555.251a4.13,4.13,0,0,0,2.168-1.607,1.11,1.11,0,0,0-.982-1.777C662.007,148.521,659.858,149.99,660.138,151.135Z" transform="translate(-641.894 -45.802)" fill="#fffbe9"/>
        <path id="Trazado_377" data-name="Trazado 377" d="M665.263,161.713c.171.433.715.387,1.2.229.08,0,.146.008.232.01.738-.041,3-1.141,1.884-2.11C667.415,158.816,664.6,160.059,665.263,161.713Z" transform="translate(-642.526 -47.193)" fill="#fffbe9"/>
        <path id="Trazado_378" data-name="Trazado 378" d="M687.5,157.959a3.6,3.6,0,0,0,3.372-1.218c.612-.69.96-1.968-.217-2.3a3.588,3.588,0,0,0-3.37,1.222C686.667,156.351,686.317,157.627,687.5,157.959Z" transform="translate(-645.225 -46.54)" fill="#fffbe9"/>
        <path id="Trazado_379" data-name="Trazado 379" d="M696.012,138.056a.525.525,0,0,0,.116.167c.162.2.258.431.443.63.247.252.824-.01,1.024-.181a11.35,11.35,0,0,0,1.98-2.233,1.142,1.142,0,0,0-1.022-1.834,3.48,3.48,0,0,0-3.071,1.692A1.123,1.123,0,0,0,696.012,138.056Z" transform="translate(-646.294 -44.021)" fill="#fffbe9"/>
        <path id="Trazado_380" data-name="Trazado 380" d="M658.647,56.326c.888-.15,3.929-2.021,2.3-3.119-.1-.089-.107-.033-.035.163-.281-1.563-2.558-.16-3.024.513.126-.209.123-.248-.011-.128C656.489,54.749,656.686,56.657,658.647,56.326Z" transform="translate(-641.502 -33.566)" fill="#fffbe9"/>
        <path id="Trazado_381" data-name="Trazado 381" d="M664.333,41.532c1.212,1.275,4.494-1.216,3.113-2.234C666.347,38.491,663.2,40.345,664.333,41.532Z" transform="translate(-642.392 -31.836)" fill="#fffbe9"/>
        <path id="Trazado_382" data-name="Trazado 382" d="M683.292,48.909l.248-.111c.678-.3,2.134-1.177,1.59-2.152-.5-.922-2.108-.286-2.668.208-.069.058-.145.114-.21.174C681.052,48.064,681.647,49.652,683.292,48.909Z" transform="translate(-644.587 -32.739)" fill="#fffbe9"/>
        <path id="Trazado_383" data-name="Trazado 383" d="M669.366,74.488c0,.042-.024.087-.025.12,0,.063-.038.12-.039.188-.008.669.484.906,1.116.892.04.005.064.028.1.026.056,0,.107-.02.164-.02l.009,0a3.454,3.454,0,0,0,2.793-1.617,3.232,3.232,0,0,0-.091-2.738c-.3-.921-2.046.01-2.371.411A6.652,6.652,0,0,0,669.366,74.488Z" transform="translate(-643.045 -35.899)" fill="#fffbe9"/>
        <path id="Trazado_384" data-name="Trazado 384" d="M668.289,56.111a3.906,3.906,0,0,0,3.646-1.325c.661-.748,1.04-2.125-.237-2.491a3.9,3.9,0,0,0-3.643,1.323C667.392,54.364,667.015,55.742,668.289,56.111Z" transform="translate(-642.812 -33.507)" fill="#fffbe9"/>
        <path id="Trazado_385" data-name="Trazado 385" d="M680.424,61.918a3.2,3.2,0,0,0,3-1.095c.554-.616.865-1.752-.188-2.05a3.175,3.175,0,0,0-3,1.091C679.682,60.471,679.373,61.616,680.424,61.918Z" transform="translate(-644.35 -34.336)" fill="#fffbe9"/>
        <path id="Trazado_386" data-name="Trazado 386" d="M681.935,68.81c.068-.028.136-.069.209-.1.779-.382,2.287-1.918,1.158-2.746-1.233-.907-3.211.346-3.884,1.408-.031.047-.066.1-.1.152C678.124,69.42,680.94,69.3,681.935,68.81Z" transform="translate(-644.263 -35.223)" fill="#fffbe9"/>
        <path id="Trazado_387" data-name="Trazado 387" d="M659.951,67.61c1.521.441,4.671-2.311,2.592-2.9C661.018,64.267,657.875,67.015,659.951,67.61Z" transform="translate(-641.788 -35.097)" fill="#fffbe9"/>
        <path id="Trazado_388" data-name="Trazado 388" d="M753.289,92.762c.207,1.184,1.323,1.143,2.363.749,1.32-.214,4.575-2.01,2.8-3.353C756.794,88.924,752.874,90.371,753.289,92.762Z" transform="translate(-653.558 -38.293)" fill="#fffbe9"/>
        <path id="Trazado_389" data-name="Trazado 389" d="M750.64,103.871c-.016-.009-.039-.018-.058-.031a.692.692,0,0,0,.118.123c.016.014.017.035.032.051-.163-.165.18.237.188.242a.606.606,0,0,0,.576.044c.121.017.234.019.353.028.632.044,2.942-1.32,1.777-1.986a2.192,2.192,0,0,0-2.789.526A.84.84,0,0,0,750.64,103.871Z" transform="translate(-653.218 -39.868)" fill="#fffbe9"/>
        <path id="Trazado_390" data-name="Trazado 390" d="M731.92,98.122a2.646,2.646,0,0,1,.7.013c.792.041,3.608-1.571,2.195-2.457a3.607,3.607,0,0,1-.426-.284c-.961-1.122-2.805-.274-3.624.634C729.71,97.214,730.467,98.279,731.92,98.122Z" transform="translate(-650.68 -38.95)" fill="#fffbe9"/>
        <path id="Trazado_391" data-name="Trazado 391" d="M740.02,82.2c.839.75,3.116-.721,3.466-1.371a1.731,1.731,0,0,0,.3-1.087c-.166-1.013-1.47-1.043-2.232-.7a6.726,6.726,0,0,0-2.036,1.411A.957.957,0,0,0,740.02,82.2Z" transform="translate(-651.786 -36.907)" fill="#fffbe9"/>
        <path id="Trazado_392" data-name="Trazado 392" d="M741.9,92.48c.42,1.079,2.106.587,2.8.155.634-.4,1.512-1.065,1.427-1.921a1.752,1.752,0,0,0-.07-.426c-.318-1.47-2.64-.553-3.223.243-.1.138-.22.27-.336.413A1.344,1.344,0,0,0,741.9,92.48Z" transform="translate(-652.126 -38.267)" fill="#fffbe9"/>
        <path id="Trazado_393" data-name="Trazado 393" d="M737.279,106.029c.113,1.431,2.364.609,2.965.1a3.719,3.719,0,0,0,1.372-2.023c.278-1.334-1.387-.714-2.181-.13C738.414,104.215,737.2,104.944,737.279,106.029Z" transform="translate(-651.557 -40.028)" fill="#fffbe9"/>
        <path id="Trazado_394" data-name="Trazado 394" d="M722.918,91.349a3.254,3.254,0,0,0,2.566.471c.459-.025,2.1-.694,1.545-1.432-.417-.55-.178-1.075-.513-1.618-.714-1.15-2.635-.12-3.273.572-.053.064-.108.117-.161.174C722.6,90.048,722.327,90.8,722.918,91.349Z" transform="translate(-649.717 -38.107)" fill="#fffbe9"/>
        <path id="Trazado_395" data-name="Trazado 395" d="M751.03,73.856c-.393,1.419,1.388,1.417,2.262,1.145a3.489,3.489,0,0,0,2.491-2.349c.38-1.6-1.534-1.293-2.7-.679A3.152,3.152,0,0,0,751.03,73.856Z" transform="translate(-653.272 -35.967)" fill="#fffbe9"/>
        <path id="Trazado_396" data-name="Trazado 396" d="M707.994,70.609c.022.045.039.085.059.126.359.8,1.577.474,2.322.07,1.1-.347,2.895-1.485,1.735-2.4a2.73,2.73,0,0,0-3.723.72A1.433,1.433,0,0,0,707.994,70.609Z" transform="translate(-647.878 -35.515)" fill="#fffbe9"/>
        <path id="Trazado_397" data-name="Trazado 397" d="M695.226,95.684c1.435.407,4.381-2.166,2.436-2.722C696.227,92.556,693.279,95.127,695.226,95.684Z" transform="translate(-646.21 -38.702)" fill="#fffbe9"/>
        <path id="Trazado_398" data-name="Trazado 398" d="M708.537,100.014c.227-.03.459-.058.687-.088.486-.065,2.011-.92,1.465-1.623-.1-.122-.182-.243-.28-.366C708.871,95.952,705.594,100.4,708.537,100.014Z" transform="translate(-647.81 -39.277)" fill="#fffbe9"/>
        <path id="Trazado_399" data-name="Trazado 399" d="M681.279,102.107a3.685,3.685,0,0,0,3.467-1.26c.636-.709.994-2.019-.221-2.369a3.707,3.707,0,0,0-3.468,1.259C680.425,100.448,680.065,101.757,681.279,102.107Z" transform="translate(-644.444 -39.4)" fill="#fffbe9"/>
      </g>
      <g id="Grupo_109" data-name="Grupo 109" transform="translate(-72.697 343.107)">
        <path id="Trazado_344" data-name="Trazado 344" d="M746.412-30.681c-1.664-12.946-4.144-25.79-6.515-38.621-1.791-9.636-4.238-19.756-11.728-26.63-13.025-11.952-36.731.2-49.414,6.24C657.844-79.725,638.8-66.545,618.539-55.45a1.269,1.269,0,0,0-.674.753c-5.7,3.336-10.691,7.443-12.987,12.768-4.53,10.528,19.564,18.605,25.664,21.081,16.58,6.732,32.67,13.268,48.871,21.005,10.019,4.787,20.2,9.145,30.471,13.357,7.256,2.989,15.49,6.388,23.5,5.6C756.839,16.793,748.291-16.033,746.412-30.681Z" transform="translate(-604.314 101)" fill="#ffd0ca"/>
        <path id="Trazado_345" data-name="Trazado 345" d="M628.744-26.528c.455,1.635,4.731,2.966,4.113.739C632.4-27.426,628.127-28.754,628.744-26.528Z" transform="translate(-607.365 91.648)" fill="#fffbe9"/>
        <path id="Trazado_346" data-name="Trazado 346" d="M621.3-33.257c-.032.068-.06.141-.091.208-.515,1.164.939,2.118,1.816,2.5a1.9,1.9,0,0,0,1.989-.074.489.489,0,0,0,.136-.644,1.6,1.6,0,0,0-.463-1.142c-.094-.087-.187-.185-.279-.274C623.883-33.2,621.844-34.476,621.3-33.257Z" transform="translate(-606.416 92.422)" fill="#fffbe9"/>
        <path id="Trazado_347" data-name="Trazado 347" d="M630.376-40.214c-.05.043-.107.087-.157.13-.618.486-.332,1.344.139,1.836-.011.048-.023.1-.035.146-.146.617,1.205,1.375,1.666.938.019-.017.034-.039.052-.055a2.545,2.545,0,0,0,1.061.111C636.128-37.511,632.294-41.744,630.376-40.214Z" transform="translate(-607.513 93.287)" fill="#fffbe9"/>
        <path id="Trazado_348" data-name="Trazado 348" d="M644-39.494a.481.481,0,0,0-.206.307,1.2,1.2,0,0,0-.047.3c-.005,0-.013,0-.02,0-.344.449.249,1.161.58,1.411a4.01,4.01,0,0,0,2.433.973,1.077,1.077,0,0,0,.975-1.712C647.112-39.276,644.8-40.307,644-39.494Z" transform="translate(-609.236 93.19)" fill="#fffbe9"/>
        <path id="Trazado_349" data-name="Trazado 349" d="M637.929-29.939c-.275.366.039.794.423,1.117a1.652,1.652,0,0,0,.113.193c.4.59,2.462,1.894,2.7.485C641.424-29.628,638.966-31.322,637.929-29.939Z" transform="translate(-608.51 91.999)" fill="#fffbe9"/>
        <path id="Trazado_350" data-name="Trazado 350" d="M652.209-13.389a3.483,3.483,0,0,0,2.724,2.163c.879.154,2.113-.206,1.8-1.351A3.481,3.481,0,0,0,654-14.734C653.121-14.894,651.888-14.534,652.209-13.389Z" transform="translate(-610.305 89.998)" fill="#fffbe9"/>
        <path id="Trazado_351" data-name="Trazado 351" d="M672.965-16.452a.514.514,0,0,0-.086.177c-.076.236-.223.434-.291.688-.09.33.424.675.669.754a11.1,11.1,0,0,0,2.856.5,1.109,1.109,0,0,0,1-1.773,3.374,3.374,0,0,0-2.964-1.674A1.087,1.087,0,0,0,672.965-16.452Z" transform="translate(-612.862 90.382)" fill="#fffbe9"/>
        <path id="Trazado_352" data-name="Trazado 352" d="M721.636-88.826c.57.653,3.667,2.212,3.747.307.028-.123-.025-.106-.149.056,1.149-1.025-1.163-2.189-1.962-2.235.241,0,.271-.022.1-.072C721.847-91.408,720.365-90.279,721.636-88.826Z" transform="translate(-618.945 99.718)" fill="#fffbe9"/>
        <path id="Trazado_353" data-name="Trazado 353" d="M736.864-91.673c-.444,1.644,3.29,3.09,3.435,1.438C740.413-91.555,737.272-93.212,736.864-91.673Z" transform="translate(-620.907 99.889)" fill="#fffbe9"/>
        <path id="Trazado_354" data-name="Trazado 354" d="M740.356-72.243l.218.149c.592.4,2.062,1.162,2.594.22.506-.883-.834-1.884-1.527-2.1-.087-.026-.171-.055-.256-.082C739.917-74.52,738.9-73.224,740.356-72.243Z" transform="translate(-621.261 97.575)" fill="#fffbe9"/>
        <path id="Trazado_355" data-name="Trazado 355" d="M711.913-70.665c-.033.019-.08.026-.111.043-.053.027-.117.029-.172.06-.56.337-.511.859-.173,1.376a.25.25,0,0,0,.031.1c.024.047.07.081.094.126.007,0,.005,0,.01.006a3.367,3.367,0,0,0,2.759,1.485,3.142,3.142,0,0,0,2.221-1.466c.615-.717-1.045-1.686-1.543-1.747A6.522,6.522,0,0,0,711.913-70.665Z" transform="translate(-617.699 97.156)" fill="#fffbe9"/>
        <path id="Trazado_356" data-name="Trazado 356" d="M726.675-80.952a3.781,3.781,0,0,0,2.946,2.336c.961.168,2.293-.216,1.946-1.458a3.76,3.76,0,0,0-2.943-2.332C727.668-82.578,726.333-82.189,726.675-80.952Z" transform="translate(-619.629 98.632)" fill="#fffbe9"/>
        <path id="Trazado_357" data-name="Trazado 357" d="M728.1-68a3.1,3.1,0,0,0,2.431,1.92c.79.143,1.886-.178,1.6-1.2a3.082,3.082,0,0,0-2.428-1.925C728.923-69.343,727.824-69.016,728.1-68Z" transform="translate(-619.81 96.946)" fill="#fffbe9"/>
        <path id="Trazado_358" data-name="Trazado 358" d="M723.148-63.223l.188.122c.715.449,2.755.916,2.867-.441.129-1.475-1.919-2.472-3.133-2.489-.058,0-.116,0-.178-.005C720.712-66.06,722.239-63.795,723.148-63.223Z" transform="translate(-619.022 96.539)" fill="#fffbe9"/>
        <path id="Trazado_359" data-name="Trazado 359" d="M713.039-82.037c.409,1.479,4.285,2.684,3.722.663C716.353-82.854,712.476-84.056,713.039-82.037Z" transform="translate(-617.922 98.716)" fill="#fffbe9"/>
        <path id="Trazado_360" data-name="Trazado 360" d="M739.482,7.945c-.881.773-.276,1.672.577,2.328.847.982,3.992,2.758,4.2.607C744.448,8.89,741.256,6.393,739.482,7.945Z" transform="translate(-621.186 87.162)" fill="#fffbe9"/>
        <path id="Trazado_361" data-name="Trazado 361" d="M729.14,11.328c0-.02,0-.044,0-.065a.421.421,0,0,0-.039.161c-.008.022-.023.033-.027.051.05-.218-.1.268-.107.281a.589.589,0,0,0,.255.5c.045.106.1.2.155.3.283.546,2.59,1.755,2.549.461a2.126,2.126,0,0,0-1.853-2.037A.818.818,0,0,0,729.14,11.328Z" transform="translate(-619.922 86.715)" fill="#fffbe9"/>
        <path id="Trazado_362" data-name="Trazado 362" d="M724.3-7.032a2.708,2.708,0,0,1,.346.585c.362.674,3.136,2.178,3.15.565a3.133,3.133,0,0,1,.017-.5c.447-1.361-1.2-2.457-2.362-2.669C723.936-9.316,723.433-8.149,724.3-7.032Z" transform="translate(-619.286 89.273)" fill="#fffbe9"/>
        <path id="Trazado_363" data-name="Trazado 363" d="M741.555-8.389c-.192,1.076,2.181,2.209,2.9,2.167a1.667,1.667,0,0,0,1.05-.3c.758-.652.121-1.739-.545-2.2a6.722,6.722,0,0,0-2.2-.963C741.751-9.964,741.193-9.157,741.555-8.389Z" transform="translate(-621.486 89.357)" fill="#fffbe9"/>
        <path id="Trazado_364" data-name="Trazado 364" d="M733.986-1.607c-.686.894.578,2.039,1.29,2.389.651.319,1.644.706,2.316.2a2.287,2.287,0,0,0,.316-.272c1.062-1.011-.876-2.459-1.833-2.539-.171-.014-.339-.041-.516-.066A1.31,1.31,0,0,0,733.986-1.607Z" transform="translate(-620.527 88.372)" fill="#fffbe9"/>
        <path id="Trazado_365" data-name="Trazado 365" d="M720.434,1.442c-1.132.816.7,2.263,1.419,2.5a3.622,3.622,0,0,0,2.372.106c1.25-.447-.113-1.506-.995-1.863C722.515,1.457,721.294.825,720.434,1.442Z" transform="translate(-618.809 87.962)" fill="#fffbe9"/>
        <path id="Trazado_366" data-name="Trazado 366" d="M725.314-17.906a3.134,3.134,0,0,0,.91,2.358c.254.364,1.644,1.382,1.971.548.248-.624.8-.689,1.081-1.243.592-1.177-1.233-2.239-2.135-2.411-.081-.013-.152-.03-.226-.044C726.233-18.825,725.47-18.671,725.314-17.906Z" transform="translate(-619.461 90.504)" fill="#fffbe9"/>
        <path id="Trazado_367" data-name="Trazado 367" d="M754.021-3.5c-1.382.4-.472,1.87.2,2.449a3.4,3.4,0,0,0,3.212.864c1.514-.5.291-1.922-.812-2.575A3.053,3.053,0,0,0,754.021-3.5Z" transform="translate(-622.97 88.57)" fill="#fffbe9"/>
        <path id="Trazado_368" data-name="Trazado 368" d="M734.9-40.776l-.073.11c-.481.7.408,1.541,1.12,1.953.847.726,2.7,1.63,2.867.206a2.63,2.63,0,0,0-2.486-2.7A1.391,1.391,0,0,0,734.9-40.776Z" transform="translate(-620.64 93.374)" fill="#fffbe9"/>
        <path id="Trazado_369" data-name="Trazado 369" d="M707.738-38.623c.387,1.389,4.017,2.515,3.491.626C710.843-39.385,707.212-40.512,707.738-38.623Z" transform="translate(-617.258 93.169)" fill="#fffbe9"/>
        <path id="Trazado_370" data-name="Trazado 370" d="M710.925-25.43l.418.519c.3.37,1.785,1.193,2.093.388l.158-.419C714.463-27.217,709.107-27.664,710.925-25.43Z" transform="translate(-617.616 91.545)" fill="#fffbe9"/>
        <path id="Trazado_371" data-name="Trazado 371" d="M695.242-46.871a3.576,3.576,0,0,0,2.8,2.221c.909.161,2.181-.2,1.854-1.384a3.6,3.6,0,0,0-2.807-2.225C696.183-48.419,694.916-48.05,695.242-46.871Z" transform="translate(-615.694 94.275)" fill="#fffbe9"/>
      </g>
      <g id="Grupo_16" data-name="Grupo 16" transform="translate(-33.622 208.954)">
        <path id="Trazado_265" data-name="Trazado 265" d="M364.95,418.822c14.514,4.494,39.405,8.561,41.052,11.354s-8.5,12.129-12.93,16c-6.179,5.391-12.47,9.207-18.331,14.934-.672.653-1.489,2.013-.6,2.588a.957.957,0,0,0,.8.558c9.839,1.92,39.23,3.879,41.573-1.1,6.392-13.594,15.058-35.737,15.489-41.518.31-4.143-25.186-10.709-36.554-12.332-3.622-.517,18.684-26.767,22.068-34.5.723-1.658-1.464-1.67-2.3-1.063-15.952,11.628-35.322,30.621-49.263,41.964C365.12,416.376,363.431,418.352,364.95,418.822Z" transform="translate(-364.339 -373.37)" fill="#99ddc6"/>
        <path id="Trazado_266" data-name="Trazado 266" d="M429.148,449.526c.36-.511-.265-2.033-.753-1.336C428.036,448.7,428.661,450.222,429.148,449.526Z" transform="translate(-372.347 -382.892)" fill="#fffbe9"/>
        <path id="Trazado_267" data-name="Trazado 267" d="M427.711,454.708a1.517,1.517,0,0,0,.034-1.139c-.1-.3-.361-.625-.7-.462.086-.072.027-.032-.043.021a.73.73,0,0,1-.07.031.275.275,0,0,0-.124.176,1.257,1.257,0,0,0-.021,1.338C427.026,455.1,427.488,455.2,427.711,454.708Z" transform="translate(-372.135 -383.537)" fill="#fffbe9"/>
        <path id="Trazado_268" data-name="Trazado 268" d="M423.576,452.95c-.055.123-.049.131.021.026a1.583,1.583,0,0,0-.031-1.609c-.285-.506-.866-.653-1.121-.041a1.711,1.711,0,0,0-.134.771C422.357,452.708,423.051,454,423.576,452.95Z" transform="translate(-371.598 -383.264)" fill="#fffbe9"/>
        <path id="Trazado_269" data-name="Trazado 269" d="M426.643,450.356c.042-.247-.185-1.241-.625-.9-.311.238-.236.529-.134.868C426.02,450.79,426.552,450.908,426.643,450.356Z" transform="translate(-372.034 -383.068)" fill="#fffbe9"/>
        <path id="Trazado_270" data-name="Trazado 270" d="M424.678,439.831c.06-.013.119-.028.179-.039.6-.138.451-1.127.237-1.5-.307-.543-.882-.45-.978.172-.016.092-.029.187-.044.279C424.024,439.053,424.177,439.946,424.678,439.831Z" transform="translate(-371.818 -381.607)" fill="#fffbe9"/>
        <path id="Trazado_271" data-name="Trazado 271" d="M433.4,431.224c.336-.48-.247-1.9-.7-1.251C432.358,430.452,432.94,431.874,433.4,431.224Z" transform="translate(-372.886 -380.57)" fill="#fffbe9"/>
        <path id="Trazado_272" data-name="Trazado 272" d="M429.686,428.628c.334-.477-.248-1.9-.7-1.248C428.646,427.857,429.228,429.28,429.686,428.628Z" transform="translate(-372.421 -380.239)" fill="#fffbe9"/>
        <path id="Trazado_273" data-name="Trazado 273" d="M432.921,428.3c.042.008.084.012.126.02a.321.321,0,0,0,.352-.146,1.26,1.26,0,0,0,.1-1.128.5.5,0,0,0-.458-.407l-.075,0a.34.34,0,0,0-.22.15,1.074,1.074,0,0,0-.159.458.47.47,0,0,0-.015.12c-.006.084-.013.17-.024.267C432.526,427.851,432.6,428.34,432.921,428.3Z" transform="translate(-372.88 -380.166)" fill="#fffbe9"/>
        <path id="Trazado_274" data-name="Trazado 274" d="M393.646,467.6a.927.927,0,0,0,.267-.994c-.1-.315-.3-.922-.751-.843-.53.094-.461.947-.337,1.3C392.928,467.352,393.272,467.854,393.646,467.6Z" transform="translate(-367.895 -385.156)" fill="#fffbe9"/>
        <path id="Trazado_275" data-name="Trazado 275" d="M388.671,471.039a1.4,1.4,0,0,0,.074-1.151c-.084-.235-.36-.725-.695-.618a1.554,1.554,0,0,0-.446.229,1.24,1.24,0,0,0,.173,1.77A.583.583,0,0,0,388.671,471.039Z" transform="translate(-367.215 -385.603)" fill="#fffbe9"/>
        <path id="Trazado_276" data-name="Trazado 276" d="M393.4,472.184a1.281,1.281,0,0,0-.023-1.282c-.164-.29-.557-.555-.811-.194a1.282,1.282,0,0,0,.026,1.281C392.756,472.278,393.149,472.544,393.4,472.184Z" transform="translate(-367.853 -385.766)" fill="#fffbe9"/>
        <path id="Trazado_277" data-name="Trazado 277" d="M400.906,469.674c.289-.414-.215-1.643-.609-1.079C400.007,469.007,400.512,470.236,400.906,469.674Z" transform="translate(-368.831 -385.5)" fill="#fffbe9"/>
        <path id="Trazado_278" data-name="Trazado 278" d="M400.335,462.977c.326-.094.4-.314.536-.6a1.533,1.533,0,0,0-.264-1.488.5.5,0,0,0-.9.159,1.969,1.969,0,0,0,.007,1.378C399.8,462.644,400.031,463.064,400.335,462.977Z" transform="translate(-368.753 -384.508)" fill="#fffbe9"/>
        <path id="Trazado_279" data-name="Trazado 279" d="M397.872,468.07c.011,0,.022,0,.034,0,.971.164.8-2.038-.2-2.075a.683.683,0,0,0-.3.1c-.34.155-.366.587-.26,1a1.311,1.311,0,0,0,.065.269,1.251,1.251,0,0,0,.227.4c.008.008.019.014.026.021A.64.64,0,0,0,397.872,468.07Z" transform="translate(-368.441 -385.187)" fill="#fffbe9"/>
        <path id="Trazado_280" data-name="Trazado 280" d="M405.255,467.231a1.137,1.137,0,0,0,.066-.407c-.009-.28-.378-1.186-.749-.672-.243.339-.122,1.114.323,1.245l-.036-.008C405.012,467.518,405.2,467.385,405.255,467.231Z" transform="translate(-369.362 -385.187)" fill="#fffbe9"/>
        <path id="Trazado_281" data-name="Trazado 281" d="M399.206,428.32a1.659,1.659,0,0,0-.031-1.652c-.212-.372-.718-.714-1.044-.25a1.653,1.653,0,0,0,.032,1.651C398.374,428.44,398.88,428.783,399.206,428.32Z" transform="translate(-368.544 -380.109)" fill="#fffbe9"/>
        <path id="Trazado_282" data-name="Trazado 282" d="M392.788,422.77a.337.337,0,0,0,.022-.044,1.332,1.332,0,0,0-.383-1.478c-.476-.325-.769.332-.743.721,0,.02,0,.039.006.06C391.726,422.551,392.344,423.7,392.788,422.77Z" transform="translate(-367.763 -379.467)" fill="#fffbe9"/>
        <path id="Trazado_283" data-name="Trazado 283" d="M394.471,428.97a1.634,1.634,0,0,0-.327-1.263.488.488,0,0,0-.835.054c-.451.138-.251,1.179-.116,1.419C393.593,429.886,394.365,429.874,394.471,428.97Z" transform="translate(-367.931 -380.275)" fill="#fffbe9"/>
        <path id="Trazado_284" data-name="Trazado 284" d="M396.092,424.845c.1.268.274.518.52.427.032-.012.063-.024.1-.036.528-.2.367-1.119-.019-1.385-.032-.024-.066-.044-.1-.068-.4-.273-.61.28-.605.585a1.413,1.413,0,0,0,.032.225s-.008-.01-.012-.014A1.467,1.467,0,0,0,396.092,424.845Z" transform="translate(-368.301 -379.792)" fill="#fffbe9"/>
        <path id="Trazado_285" data-name="Trazado 285" d="M377.22,425.3l.032.009c.591.175.681-.788.61-1.137a.156.156,0,0,0-.006-.034c-.07-.339-.247-.81-.63-.909a.375.375,0,0,0-.249.02C376.348,423.386,376.508,425.087,377.22,425.3Z" transform="translate(-365.872 -379.729)" fill="#fffbe9"/>
        <path id="Trazado_286" data-name="Trazado 286" d="M372.838,421.808a.2.2,0,0,0,.113-.083c.619-.6-.148-2.364-.728-1.611l.01-.015C371.632,420.481,372.049,422.147,372.838,421.808Z" transform="translate(-365.292 -379.31)" fill="#fffbe9"/>
        <path id="Trazado_287" data-name="Trazado 287" d="M379.561,419.265c.493-.216.229-.735-.084-.988-.294-.243-.411.559-.121.738l.009,0C379.357,419.137,379.426,419.324,379.561,419.265Z" transform="translate(-366.198 -379.093)" fill="#fffbe9"/>
        <path id="Trazado_288" data-name="Trazado 288" d="M381.032,423.62c.116.112.267.21.425.1a.762.762,0,0,0,.252-.7,1.038,1.038,0,0,0-.542-.982.656.656,0,0,0-.319,0c-.443-.051-.409.678-.241.92,0-.157.021-.115.06.125.045.1.093.205.145.306S381.375,423.953,381.032,423.62Z" transform="translate(-366.361 -379.576)" fill="#fffbe9"/>
        <path id="Trazado_289" data-name="Trazado 289" d="M408.862,389.976c.295.076.425-.146.47-.416a.637.637,0,0,0,.037-.267.846.846,0,0,0-.027-.174,1.215,1.215,0,0,0-.051-.263.891.891,0,0,0-.332-.458c-.147-.124-.315-.142-.481.1C408.2,388.886,408.321,389.835,408.862,389.976Z" transform="translate(-369.848 -375.276)" fill="#fffbe9"/>
        <path id="Trazado_290" data-name="Trazado 290" d="M405.518,394.756c.015-.043.031-.086.045-.13.149-.423-.117-2.087-.883-1.567l-.083.058c-.481.325-.343,1.185-.106,1.6C404.739,395.157,405.312,395.342,405.518,394.756Z" transform="translate(-369.34 -375.869)" fill="#fffbe9"/>
        <path id="Trazado_291" data-name="Trazado 291" d="M407.65,394.754c.1-.224-.127-1.214-.5-.88a.953.953,0,0,0-.367,1.091.651.651,0,0,0,.209.263C407.361,395.55,407.567,394.942,407.65,394.754Z" transform="translate(-369.646 -375.977)" fill="#fffbe9"/>
        <path id="Trazado_292" data-name="Trazado 292" d="M403.029,400.661a1.834,1.834,0,0,0,.179-.727c0-.044-.006-.069-.008-.1a5.155,5.155,0,0,1,.11-.51c.052-.21-.1-.667-.38-.544a.691.691,0,0,1-.577-.069c-.824-.322-.752,1.277-.626,1.634C401.94,400.945,402.689,401.5,403.029,400.661Z" transform="translate(-369.011 -376.597)" fill="#fffbe9"/>
        <path id="Trazado_293" data-name="Trazado 293" d="M398.374,397.723c.07,0,.139.009.209.015.444.036.415-.669.242-.92-.052-.074-.1-.149-.153-.226C397.977,395.54,397.544,397.684,398.374,397.723Z" transform="translate(-368.544 -376.295)" fill="#fffbe9"/>
        <path id="Trazado_294" data-name="Trazado 294" d="M396.188,401.45a1.025,1.025,0,0,0-.166-1.513c-.363-.22-.44.275-.385.605a.707.707,0,0,0-.03.078C395.475,400.927,395.8,401.916,396.188,401.45Z" transform="translate(-368.25 -376.752)" fill="#fffbe9"/>
        <path id="Trazado_295" data-name="Trazado 295" d="M415.953,475.185l.106-.075c.456-.331.335-1.14.1-1.559s-.789-.6-1-.036c-.018.053-.039.1-.059.157C414.954,474.07,415.231,475.705,415.953,475.185Z" transform="translate(-370.69 -386.101)" fill="#fffbe9"/>
      </g>
    </g>
  </g>
</svg>
