<svg xmlns="http://www.w3.org/2000/svg" xmlns:xlink="http://www.w3.org/1999/xlink" width="834" height="1112" viewBox="0 0 834 1112">
  <defs>
    <clipPath id="clip-path">
      <rect id="Rectángulo_22" data-name="Rectángulo 22" width="834" height="1112" fill="#fff" stroke="#707070" stroke-width="1"/>
    </clipPath>
  </defs>
  <g id="Enmascarar_grupo_3" data-name="Enmascarar grupo 3" clip-path="url(#clip-path)">
    <g id="Grupo_124" data-name="Grupo 124">
      <g id="Grupo_102" data-name="Grupo 102" transform="translate(557.865 799.804)">
        <path id="Trazado_68" data-name="Trazado 68" d="M276,200.139s10.081.619,14.519,14.058c4.323,13.089-4.145,26.731-2.964,35.7s7.676,17.159-.2,29.5-40.988,10.1-58.088-2.951-16.7-26.089-12.328-35.5,5.143-21.75,5.42-22.706C222.368,218.242,242.15,191.552,276,200.139Z" transform="translate(-201.121 -187.446)" fill="#763154"/>
        <g id="Grupo_59" data-name="Grupo 59" transform="translate(0 1.883)">
          <path id="Trazado_69" data-name="Trazado 69" d="M258.452,337.385c-8.428-1.166-16.731-3.077-26.335-3.334s-14.973-4.614-14.893-11.245c.111-9.128,6.5-18.614,13.626-30.216,6.814-11.1,11.945-5.412,20.584-4.676s14.475.42,15.931,10.34C270.587,320.2,274.6,339.619,258.452,337.385Z" transform="translate(-202.403 -228.905)" fill="#28285c"/>
          <path id="Trazado_70" data-name="Trazado 70" d="M190.147,230.339c.409-.571,1.824,1.068,1.824,1.068s-.77-2.4-.281-2.546,1.678,1.782,1.678,1.782-.131-2.7.458-2.506,1.041,2.217,1.041,2.217.475-2.427.992-2.106.847,3.956.849,3.979v0s1.375-.971,1.529-.407c.109.4-.632,1.553-1.075,2.2,1,3.666,7.916,23.792,8.935,24.585a39.872,39.872,0,0,0,21.216,8.072l-.072.472a18.3,18.3,0,0,1-2.122,6.172h0c-11.3-1.41-17.835-3.887-24.183-9-4.646-3.741-8.758-24-9.525-28.856v0C191.089,233.654,189.977,230.576,190.147,230.339Z" transform="translate(-190.13 -202.778)" fill="#f7c8ae"/>
          <path id="Trazado_71" data-name="Trazado 71" d="M331.075,339.614v0c-1.345-4.73-8.018-25.359-13.478-27.76a37.494,37.494,0,0,0-17.792-3.148l.325,7.059a39.046,39.046,0,0,1,13.974,2.953c1.19.5,10,19.5,11.436,23.023-.363.691-.961,1.925-.8,2.309.221.541,1.466-.586,1.469-.588v0c.005.022.771,3.593,1.321,3.848s.732-2.21.732-2.21.693,1.959,1.3,2.076.153-2.543.153-2.543,1.413,1.775,1.88,1.567-.585-2.494-.585-2.494,1.6,1.457,1.939.841C333.086,344.292,331.612,341.37,331.075,339.614Z" transform="translate(-239.81 -239.256)" fill="#f7c8ae"/>
          <path id="Trazado_72" data-name="Trazado 72" d="M223.092,368.466s-13.939-3.64-23.231,1.586-.6,19.012-.6,19.012-4.673-1.158-5.544.123,5.78,3.579,7.572,1.757c2.3-2.338-2.3-13.1,1.767-15.474s15.335-2.306,24.926,4.663c10.19,7.4,12.824,20.554,6.291,24.474s-9.728,2.033-10.309,3.92-.29,6.243.871,6.534S226,410.125,226,410.125s11.823.29,17.237-5.518,0-27.975,0-27.975Z" transform="translate(-191.719 -265.79)" fill="#28285c"/>
          <path id="Trazado_73" data-name="Trazado 73" d="M237.949,304.283l-8.337-1.963a.508.508,0,0,1-.392-.413c-.464-3.137,1.157-7.857,1.74-9.415a.5.5,0,0,1,.695-.276,63.341,63.341,0,0,0,14.166,4.947h0l16.272,2.809a49.328,49.328,0,0,0,10.606.377.513.513,0,0,1,.55.393c.777,3.067-.661,7.781-1.138,9.2a.507.507,0,0,1-.583.336c-3.412-.683-10.514-2.7-10.516-2.7a142.025,142.025,0,0,0-1.436,26.728c.38,7.068.036,12.8,1.762,18.953a.585.585,0,0,1-.686.732c-14.639-3.133-11.9-19.477-38.613-20.609C230.781,322.777,234.558,314.394,237.949,304.283Z" transform="translate(-204.584 -231.786)" fill="#ed7c98"/>
          <g id="Grupo_44" data-name="Grupo 44" transform="translate(42.019 58.625)">
            <path id="Trazado_74" data-name="Trazado 74" d="M266.966,295.85s2.255-.537,3.078-4.748c1-5.139,4.646.581,4.646.581s-1.737,3.686.68,5.618c0,0-.874,3.287-3.681,3.48S266.695,297.887,266.966,295.85Z" transform="translate(-266.943 -288.959)" fill="#eaa896"/>
          </g>
          <path id="Trazado_75" data-name="Trazado 75" d="M244.025,291.725c-1.46,5.462-6.588,21.788-18.7,35.537a2.03,2.03,0,0,1-2.923.136l-.479-.456a2.018,2.018,0,0,1-.133-2.787c3.563-4.084,13.548-16.62,18.09-33.554a2.015,2.015,0,0,1,2.541-1.4l.246.076A2.017,2.017,0,0,1,244.025,291.725Z" transform="translate(-204.247 -230.403)" fill="#56479a"/>
          <path id="Trazado_76" data-name="Trazado 76" d="M290.4,295.925c-1,5.49-3.358,22.521,1.767,40.2a2.025,2.025,0,0,0,2.583,1.357l.614-.2a2.018,2.018,0,0,0,1.3-2.479c-1.532-5.24-5.361-20.914-2.295-38.15a2.02,2.02,0,0,0-1.777-2.367h0A2.017,2.017,0,0,0,290.4,295.925Z" transform="translate(-234.906 -232.74)" fill="#56479a"/>
          <g id="Grupo_58" data-name="Grupo 58" transform="translate(14.933)">
            <g id="Grupo_47" data-name="Grupo 47">
              <g id="Grupo_45" data-name="Grupo 45" transform="translate(0 27.143)">
                <path id="Trazado_77" data-name="Trazado 77" d="M320.7,250.859a3.86,3.86,0,0,1,4.548-3.017l6.432,1.3a7.95,7.95,0,0,1-3.152,15.584l-6.432-1.3a3.86,3.86,0,0,1-3.018-4.549Z" transform="translate(-263.437 -238.817)" fill="#eaa896"/>
                <path id="Trazado_78" data-name="Trazado 78" d="M217.587,237.782h0a7.949,7.949,0,0,1,9.368-6.215l6.432,1.3a3.86,3.86,0,0,1,3.018,4.548l-1.622,8.017a3.86,3.86,0,0,1-4.548,3.018l-6.432-1.3A7.95,7.95,0,0,1,217.587,237.782Z" transform="translate(-217.428 -231.407)" fill="#eaa896"/>
              </g>
              <path id="Trazado_79" data-name="Trazado 79" d="M286.706,232.537s9.134-7.032,5.311-24.741c-2.758-12.777-14.143-28.248-35.974-25.739S225.1,200.78,225.851,212.863c.6,9.739,6.153,12.348,6.153,12.348Z" transform="translate(-221.224 -181.787)" fill="#763154"/>
              <g id="Grupo_46" data-name="Grupo 46" transform="translate(6.393 10.81)">
                <path id="Trazado_80" data-name="Trazado 80" d="M229.664,226.21c-3.367,16.647,9.2,23.958,25.848,27.326s31.069,1.517,34.437-15.131a30.753,30.753,0,0,0-60.285-12.2Z" transform="translate(-229.115 -201.549)" fill="#f7c8ae"/>
              </g>
            </g>
            <g id="Grupo_52" data-name="Grupo 52" transform="translate(17.552 26.388)">
              <g id="Grupo_50" data-name="Grupo 50" transform="translate(28.653 5.796)">
                <g id="Grupo_49" data-name="Grupo 49">
                  <g id="Grupo_48" data-name="Grupo 48">
                    <path id="Trazado_81" data-name="Trazado 81" d="M302.953,247.3a1.321,1.321,0,0,0,1.556-1.032,3.748,3.748,0,0,1,4.412-2.928l.183.037a3.749,3.749,0,0,1,2.928,4.412,1.32,1.32,0,1,0,2.588.523,6.392,6.392,0,0,0-4.992-7.524l-.183-.037a6.392,6.392,0,0,0-7.524,4.993A1.321,1.321,0,0,0,302.953,247.3Z" transform="translate(-301.895 -240.623)" fill="#28285c"/>
                  </g>
                </g>
              </g>
              <g id="Grupo_51" data-name="Grupo 51">
                <path id="Trazado_82" data-name="Trazado 82" d="M250.572,236.7a1.32,1.32,0,0,0,1.556-1.032,3.747,3.747,0,0,1,4.412-2.927l.184.037a3.749,3.749,0,0,1,2.928,4.413,1.32,1.32,0,0,0,2.588.523,6.392,6.392,0,0,0-4.992-7.524l-.184-.037a6.392,6.392,0,0,0-7.524,4.992A1.32,1.32,0,0,0,250.572,236.7Z" transform="translate(-249.514 -230.027)" fill="#28285c"/>
              </g>
            </g>
            <g id="Grupo_57" data-name="Grupo 57" transform="translate(20.42 39.024)">
              <g id="Grupo_55" data-name="Grupo 55">
                <g id="Grupo_54" data-name="Grupo 54">
                  <g id="Grupo_53" data-name="Grupo 53">
                    <path id="Trazado_83" data-name="Trazado 83" d="M286.724,262.27a16.29,16.29,0,0,1-5.8,7.123,16.27,16.27,0,0,0-10.512-7.208l-.591-.119a16.269,16.269,0,0,0-12.487,2.555,16.283,16.283,0,0,1-2.576-8.818,2.685,2.685,0,0,1,3.217-2.624L284.78,258.6A2.685,2.685,0,0,1,286.724,262.27Z" transform="translate(-254.757 -253.126)" fill="#28285c"/>
                  </g>
                </g>
              </g>
              <g id="Grupo_56" data-name="Grupo 56" transform="translate(2.577 8.614)">
                <path id="Trazado_84" data-name="Trazado 84" d="M271.954,269.2l.591.119a16.271,16.271,0,0,1,10.512,7.208,16.27,16.27,0,0,1-12.486,2.555l-.591-.119a16.271,16.271,0,0,1-10.512-7.208A16.268,16.268,0,0,1,271.954,269.2Z" transform="translate(-259.467 -268.872)" fill="#d45d67"/>
              </g>
            </g>
          </g>
        </g>
        <path id="Trazado_85" data-name="Trazado 85" d="M283.941,203.806s-8.461,9.413-25.747,7.915-22.263-.268-26.149,7.7c0,0-1.535-10.585,5.918-16.683S270.2,189.673,283.941,203.806Z" transform="translate(-209.057 -186.131)" fill="#763154"/>
        <path id="Trazado_86" data-name="Trazado 86" d="M317.04,234.05a1.506,1.506,0,0,0,1.924-2.143,7.3,7.3,0,0,0-7.667-3.651c-5.3.687-5.252,4.784.438,3.926C314.339,231.79,315.3,233.187,317.04,234.05Z" transform="translate(-243.247 -200.916)" fill="#763154"/>
        <path id="Trazado_87" data-name="Trazado 87" d="M225.517,219.517s-8.428-11.243-1.809-26.352c5.668-12.936,26.355-19.843,47.363-10.522l-12.807,8.467S228.651,190.593,225.517,219.517Z" transform="translate(-204.191 -178.345)" fill="#763154"/>
        <path id="Trazado_88" data-name="Trazado 88" d="M303.1,206.456c-2.271,2.194-11.9,10.64-28.538,13.894a.706.706,0,0,0-.506,1l1.59,3.267a.7.7,0,0,0,.835.368c3.147-.944,18.493-5.991,27.979-17.17a.711.711,0,0,0-.007-.922l-.332-.386A.7.7,0,0,0,303.1,206.456Z" transform="translate(-228.116 -190.99)" fill="#763154"/>
        <path id="Trazado_89" data-name="Trazado 89" d="M285.29,246.188s1.3-3.786.185-3.924-2.058,2.167-2.058,2.167-1.982-1.175-2.924.216C279.288,246.425,284.653,249.164,285.29,246.188Z" transform="translate(-230.983 -207.296)" fill="#ea9c87"/>
      </g>
      <g id="Grupo_112" data-name="Grupo 112" transform="translate(0.274 927.594)">
        <g id="Grupo_12" data-name="Grupo 12" transform="translate(0 18.768)">
          <path id="Trazado_159" data-name="Trazado 159" d="M553.087,457.595c-41.231-68.961-114.5-101.761-177.375-105.422-72.73-4.228-125.668,53.314-162.1,114.266C193.194,500.617,176.6,541.19,176.5,586.952c-.038,19.393,4.285,40.913,13.957,58.994,10.194,19.064,25.987,33.433,42.081,44.873,39.009,27.739,85.03,39.864,126.943,45.708,43.092,6,83.9.327,120.01-19.955,38.73-21.755,67.046-59.706,82.893-106.665C578.09,563.364,582.983,507.6,553.087,457.595Z" transform="translate(-176.498 -351.953)" fill="#ffcb78"/>
          <path id="Trazado_160" data-name="Trazado 160" d="M308.1,423.972c-1.61.7-1.9,6.24.287,5.275C310,428.54,310.294,423.007,308.1,423.972Z" transform="translate(26.807 -240.275)" fill="#fffbe9"/>
          <path id="Trazado_161" data-name="Trazado 161" d="M310.807,419.789c-1.032.447-1.5,2-1.431,3.3.056,1.031.691,2.423,1.713,1.979s1.5-2,1.431-3.3C312.464,420.733,311.831,419.339,310.807,419.789Z" transform="translate(30.781 -246.733)" fill="#fffbe9"/>
          <path id="Trazado_162" data-name="Trazado 162" d="M306.288,415.438c-1.7.883-2.458,3.85-.865,5.885,1.157,1.463,2.038-.391,2.342-1.979a5.107,5.107,0,0,0,.264-1.9C307.98,416.462,307.317,414.9,306.288,415.438Z" transform="translate(23.261 -253.524)" fill="#fffbe9"/>
          <path id="Trazado_163" data-name="Trazado 163" d="M303.467,407.978c-.041-.072-.095-.125-.136-.189a1.836,1.836,0,0,0-.4-.34,1,1,0,0,0-.307-.166,1.1,1.1,0,0,0-.786.023c-1.119.47-1.7,2.007-1.825,3.36a4.807,4.807,0,0,0,.328,2.471c.172.378.9,1.366,1.339,1.1.932-.569,1.393-.544,1.9-1.667l.02-.069a4.224,4.224,0,0,0,.274-.794c.015-.072.02-.14.033-.219a4.882,4.882,0,0,0,.087-.6,5.665,5.665,0,0,0,.049-.758c-.005-.094.021-.179.015-.266-.008-.133-.054-.278-.077-.421s0-.281-.036-.414A2.989,2.989,0,0,0,303.467,407.978Z" transform="translate(16.134 -266.116)" fill="#fffbe9"/>
          <path id="Trazado_164" data-name="Trazado 164" d="M306.265,409.117c-1.137.5-1.347,4.412.2,3.733C307.6,412.347,307.811,408.438,306.265,409.117Z" transform="translate(24.525 -263.295)" fill="#fffbe9"/>
          <path id="Trazado_165" data-name="Trazado 165" d="M309.773,412.015c-1.362.6-1.613,5.27.241,4.455C311.371,415.875,311.622,411.2,309.773,412.015Z" transform="translate(29.719 -258.819)" fill="#fffbe9"/>
          <path id="Trazado_166" data-name="Trazado 166" d="M302.714,421.039c-1.672.733-1.979,6.454.284,5.458C304.669,425.767,304.969,420.048,302.714,421.039Z" transform="translate(18.318 -244.835)" fill="#fffbe9"/>
          <path id="Trazado_167" data-name="Trazado 167" d="M300.573,415.278c-1.293-.687-2.051,1.44-2.158,2.477-.1,1.052.363,3.128,1.646,2.594a1.806,1.806,0,0,0,.73-.641c-.343.409-.348.485-.01.225a2.125,2.125,0,0,0,.612-1.412C301.423,417.844,301.684,415.871,300.573,415.278Z" transform="translate(13.672 -253.811)" fill="#fffbe9"/>
          <g id="Grupo_9" data-name="Grupo 9" transform="translate(299.395 168.005)">
            <path id="Trazado_168" data-name="Trazado 168" d="M295.952,418.164l-.005-.023c-1.567-1.419-2.611,1.458-2.488,2.842a3.4,3.4,0,0,0,.387,1.5c.481.82,1.111,1,1.7.48a3.4,3.4,0,0,0,.937-2.53c.01-.054.023-.1.033-.151-.013-.087-.023-.2-.031-.34.021.138.036.243.044.311A1.862,1.862,0,0,0,295.952,418.164Z" transform="translate(-293.449 -417.758)" fill="#fffbe9"/>
            <path id="Trazado_169" data-name="Trazado 169" d="M294.661,418.735l-.013.028C294.676,418.926,294.689,418.96,294.661,418.735Z" transform="translate(-291.579 -416.24)" fill="#fffbe9"/>
          </g>
          <path id="Trazado_170" data-name="Trazado 170" d="M299.039,426.359c-2.153.947-3.141,4.192-3,6.921.123,2.163,1.457,5.1,3.6,4.154s3.149-4.195,3-6.924C302.526,428.346,301.195,425.417,299.039,426.359Z" transform="translate(9.966 -236.675)" fill="#fffbe9"/>
          <path id="Trazado_171" data-name="Trazado 171" d="M302.507,436.092a5.511,5.511,0,0,0-.881,3.393c.038.7.346,2.285,1.17,2.517.082.02.171.049.264.072,1.9.523,2.675-2.03,2.637-3.848,0-.146-.01-.294-.01-.442C305.635,435.313,303.661,434.425,302.507,436.092Z" transform="translate(18.689 -222.603)" fill="#fffbe9"/>
          <path id="Trazado_172" data-name="Trazado 172" d="M305.191,440.867c.031-.11.059-.217.087-.319-.394.618-.963,2.663.156,3.24a1.852,1.852,0,0,0,.824.253c1.357-.031,1.91-2.27,1.595-3.669C307.288,437.859,305.562,439.736,305.191,440.867Z" transform="translate(23.621 -216.568)" fill="#fffbe9"/>
          <path id="Trazado_173" data-name="Trazado 173" d="M309.834,432.527c-1.19-.638-1.866,1.588-1.764,2.579a3.023,3.023,0,0,0,.878,2.145c.85.807,1.492-.825,1.4-1.591a1.2,1.2,0,0,0-.033-.227C310.633,434.47,310.809,433.045,309.834,432.527Z" transform="translate(28.739 -226.991)" fill="#fffbe9"/>
          <path id="Trazado_174" data-name="Trazado 174" d="M296.284,436.625a6.263,6.263,0,0,0-.2,6.653c.113.166.223.332.33.5.883,1.371,2.371.215,2.885-.511a6.313,6.313,0,0,0,.886-4.922c-.074-.232-.138-.457-.2-.684C299.257,435.183,297.439,434.974,296.284,436.625Z" transform="translate(8.704 -222.105)" fill="#fffbe9"/>
          <path id="Trazado_175" data-name="Trazado 175" d="M300.449,443.32a2.326,2.326,0,0,0-.786-.189c-1.093.018-1.743,1.266-2.02,2.331-.23.888-.422,3.538.9,4.011a1.5,1.5,0,0,0,1.751-.375,4.257,4.257,0,0,0,1.183-2.709C301.558,445.592,301.453,443.672,300.449,443.32Z" transform="translate(12.232 -210.346)" fill="#fffbe9"/>
          <path id="Trazado_176" data-name="Trazado 176" d="M308.6,449.55c-.084-.059-.174-.115-.259-.171a.956.956,0,0,0-1.132.212c-.412.431-.663.947-1.165,1.062-.517.115-.7,1.277-.318,1.785.556.743.612,1.322,1.359,1.841.563.383,1.185-.2,1.464-.6l.233-.332C309.364,452.542,309.825,450.362,308.6,449.55Z" transform="translate(24.785 -200.813)" fill="#fffbe9"/>
          <path id="Trazado_177" data-name="Trazado 177" d="M315.309,441.082c-1.434.421-2.291,2.811-1.928,4.583.1.506.484.906.9.733a6.332,6.332,0,0,0,1.641-.822C316.875,444.812,317.431,440.459,315.309,441.082Z" transform="translate(36.909 -213.622)" fill="#fffbe9"/>
          <path id="Trazado_178" data-name="Trazado 178" d="M319.025,426.068c-.412-.9-1.183-.59-1.546-.071a2.949,2.949,0,0,0-.281,2.7.918.918,0,0,0,.727.6h.125a.305.305,0,0,0,.044.036c.74.437,1.106-1.019,1.083-1.583l-.008-.021c.01-.087.018-.174.033-.314A2.669,2.669,0,0,0,319.025,426.068Z" transform="translate(42.667 -237.734)" fill="#fffbe9"/>
          <path id="Trazado_179" data-name="Trazado 179" d="M316.472,430.566a1.727,1.727,0,0,0-.937-.717,1.691,1.691,0,0,0-1.969.677c-1.16.7-1.336,3.03-.858,4.458-.069-.237-.138-.472-.207-.715.041.766.356,2.354,1.224,2.635a2.009,2.009,0,0,0,2.122-.363C317.228,435.639,317.758,432.281,316.472,430.566Z" transform="translate(35.605 -231.111)" fill="#fffbe9"/>
          <path id="Trazado_180" data-name="Trazado 180" d="M320.088,437.9c-.922,1.317-2.109,5.438-.218,7.151a4.153,4.153,0,0,0,1.114.853c2.109.814,3.08-2.055,3.356-3.865a6.04,6.04,0,0,0-.6-3.965C322.633,436.074,321.04,436.531,320.088,437.9Z" transform="translate(45.593 -220.298)" fill="#fffbe9"/>
          <path id="Trazado_181" data-name="Trazado 181" d="M320.549,417.092a.767.767,0,0,0-.154-.215c-1.836-2.086-3.121,2.086-3.049,3.482.159,2.854,2.427,2.875,3.254.9a2.321,2.321,0,0,0,.133-.36A4.1,4.1,0,0,0,320.549,417.092Z" transform="translate(43.222 -252.01)" fill="#fffbe9"/>
          <path id="Trazado_182" data-name="Trazado 182" d="M323.855,424.158c-.054-.064-.115-.128-.164-.191-1.039-1.228-1.677,1.414-1.521,2.183a3.516,3.516,0,0,1,.064.37c.087,1.361,1.108,1.922,1.784.952C324.508,426.768,324.932,424.863,323.855,424.158Z" transform="translate(50.714 -240.607)" fill="#fffbe9"/>
          <path id="Trazado_183" data-name="Trazado 183" d="M201.643,415.433l-.041.023c-2.854,1.716-4.692,6.8-2.816,10.95.755,1.667,2.181,2.428,3.507,1.866,2.071-.866,3.228-3.763,3.43-6.309l.015-.079a9.353,9.353,0,0,0-.622-4.6C204.439,415.778,202.872,414.693,201.643,415.433Z" transform="translate(-142.917 -253.734)" fill="#fffbe9"/>
          <path id="Trazado_184" data-name="Trazado 184" d="M200.806,411.189c-.018.069-.036.146-.049.225-.315,1.261-.394,4.708,1.582,4.759,2.051.061,2.87-3.477,2.4-5.5l-.046-.212C203.88,406.926,201.256,409.346,200.806,411.189Z" transform="translate(-138.92 -263.897)" fill="#fffbe9"/>
          <path id="Trazado_185" data-name="Trazado 185" d="M197.4,407.288c-.038-.02-.079-.036-.123-.056a.608.608,0,0,0-.717.128,3.081,3.081,0,0,0-.5,3.133c.681,2.305,2.76-.534,1.82-2.088l-.008-.013A1.135,1.135,0,0,0,197.4,407.288Z" transform="translate(-146.29 -266.2)" fill="#fffbe9"/>
          <path id="Trazado_186" data-name="Trazado 186" d="M209,409.039a4.574,4.574,0,0,0-1.193.189c-.43.184-.794.848-1.27.886-.689.051-1.139,1.468-.561,2.17a3.9,3.9,0,0,1,.481,1.044,6.175,6.175,0,0,0,1.027,1.6,1.2,1.2,0,0,0,1.83.084c1.139-1.019,1.408-2.52,1.106-4.32C210.31,409.979,209.7,408.963,209,409.039Z" transform="translate(-130.922 -263.299)" fill="#fffbe9"/>
          <path id="Trazado_187" data-name="Trazado 187" d="M211.8,424.176a4.494,4.494,0,0,0-1.262,2.354,5.724,5.724,0,0,0-.131.8.484.484,0,0,1-.01.064.084.084,0,0,1,0,.043.656.656,0,0,0,0,.072c-.01.12-.013.258-.013.416a4.827,4.827,0,0,0,.527,2.52l.01.008a1.514,1.514,0,0,0,.277.337,1.08,1.08,0,0,0,.422.245l.392.1c1.572.439,2.557-1.425,2.632-3.036.008-.2.026-.4.031-.6C214.76,425.591,213.7,422.5,211.8,424.176Z" transform="translate(-123.647 -240.531)" fill="#fffbe9"/>
          <path id="Trazado_188" data-name="Trazado 188" d="M211.378,433.185c-1.116.488-1.628,2.16-1.551,3.567.061,1.118.748,2.63,1.851,2.142,1.119-.485,1.626-2.16,1.554-3.567C213.17,434.209,212.484,432.7,211.378,433.185Z" transform="translate(-124.517 -225.938)" fill="#fffbe9"/>
          <path id="Trazado_189" data-name="Trazado 189" d="M206.565,430.27c-1.124-1.157-2.1.51-2.355,1.488-.184.723-.251,3.536,1.116,3.342.4-.056.791.375,1.229.207a1.377,1.377,0,0,0,.817-1.031A4.362,4.362,0,0,0,206.565,430.27Z" transform="translate(-133.421 -230.931)" fill="#fffbe9"/>
          <path id="Trazado_190" data-name="Trazado 190" d="M200.442,432.628c-1.969-2.244-4.406,3.666-1.951,5.655.876.712,1.285.125,2.107.046.947-.084,1.644-1.925,1.027-3C201.082,434.371,201.231,433.526,200.442,432.628Z" transform="translate(-143.8 -227.436)" fill="#fffbe9"/>
          <path id="Trazado_191" data-name="Trazado 191" d="M194.088,426.851c-.028-.036-.031-.1-.074-.133-.059-.036-.11-.041-.161-.072-.02-.005-.023-.02-.038-.028l.013.026c-1.009-.437-1.321,1.578-1.277,2.372.036.636.271,1.225.853,1.351.067.046.141.094.207.138.648.429.988-.934.965-1.412C194.539,428.513,194.631,427.364,194.088,426.851Z" transform="translate(-151.464 -236.046)" fill="#fffbe9"/>
          <path id="Trazado_192" data-name="Trazado 192" d="M203.218,424.042c-1.129.5-1.656,2.2-1.577,3.636.061,1.136.76,2.673,1.892,2.18s1.659-2.2,1.58-3.636C205.053,425.081,204.349,423.542,203.218,424.042Z" transform="translate(-137.287 -240.143)" fill="#fffbe9"/>
          <path id="Trazado_193" data-name="Trazado 193" d="M208.55,416.558c-3.22,1.412-3.814,12.474.568,10.552C212.339,425.7,212.923,414.636,208.55,416.558Z" transform="translate(-130.501 -251.963)" fill="#fffbe9"/>
          <path id="Trazado_194" data-name="Trazado 194" d="M194.062,417.027c-.276-1.195-1.014-2.357-2.13-1.871a25.119,25.119,0,0,0,1.541,2.367c-.215,1.42-.425,2.844-.64,4.266a3.7,3.7,0,0,0,.873-1.264,5.93,5.93,0,0,0,.489-2.76l-.008-.049a3.631,3.631,0,0,0-.074-.58A.44.44,0,0,0,194.062,417.027Z" transform="translate(-152.421 -253.969)" fill="#fffbe9"/>
          <path id="Trazado_195" data-name="Trazado 195" d="M196.685,436.594a1.077,1.077,0,0,1-.243-.24c-1.219-1.46-2.634.153-3.087,1.233a1.089,1.089,0,0,0-.049.11c-.484,1.123-1.065,3.9.236,5.114a1.676,1.676,0,0,0,2,.388c1.165-.355,2.284-3.156,1.812-5.068A2.3,2.3,0,0,0,196.685,436.594Z" transform="translate(-151.147 -221.777)" fill="#fffbe9"/>
          <path id="Trazado_196" data-name="Trazado 196" d="M202.339,444.752a1.128,1.128,0,0,0-1.321-.4,1.621,1.621,0,0,0-1.288.1,2.234,2.234,0,0,0-.829,2.446,13.337,13.337,0,0,0,.481,1.317,6.514,6.514,0,0,0,.42,1.828c.62,1.6,2.038.934,2.6.128a4.757,4.757,0,0,0,.156-5.078C202.485,444.977,202.406,444.859,202.339,444.752Z" transform="translate(-141.687 -208.579)" fill="#fffbe9"/>
          <path id="Trazado_197" data-name="Trazado 197" d="M189.338,439.654c-.072-.061-.138-.117-.2-.174-2.186-1.922-3.674,1.437-3.868,3.4a4.907,4.907,0,0,0,.8,3.521,1.513,1.513,0,0,0,2.332.107c.087-.089.161-.181.248-.263a5.531,5.531,0,0,0,1.428-3.293C190.158,442.1,190.132,440.351,189.338,439.654Z" transform="translate(-162.87 -216.907)" fill="#fffbe9"/>
          <path id="Trazado_198" data-name="Trazado 198" d="M255.669,372.978l-.018-.064a2.2,2.2,0,0,0-.184-.442,1.416,1.416,0,0,0-.146-.174,1.183,1.183,0,0,0-.223-.23,1.243,1.243,0,0,0-.558-.217l-.43-.054c-.773-.1-1.2,1.146-1.259,1.846-.021.266-.049.531-.072.791-.169,1.859,1.188,3.636,2.368,1.951a2.67,2.67,0,0,0,.276-.59.2.2,0,0,1,.018.061,6.3,6.3,0,0,0,.253-1.072A4.287,4.287,0,0,0,255.669,372.978Z" transform="translate(-57.522 -321.14)" fill="#fffbe9"/>
          <path id="Trazado_199" data-name="Trazado 199" d="M258.141,380.854c-1.06-1.519-2.02,1.5-1.971,2.254a8.588,8.588,0,0,1-.228,1.733,3.517,3.517,0,0,0,.591,2.6c.069.066.146.148.218.22,1.71,1.71,2.624-1.746,2.647-3.023A6.876,6.876,0,0,0,258.141,380.854Z" transform="translate(-52.613 -307.723)" fill="#fffbe9"/>
          <path id="Trazado_200" data-name="Trazado 200" d="M251.695,382.987c-1.4-1.841-2.527,1.825-2.47,2.824.041.781.4,1.94,1.239,1.958a1.3,1.3,0,0,0,1.1-.707,1.918,1.918,0,0,0,.84-2.211A4.707,4.707,0,0,0,251.695,382.987Z" transform="translate(-63.048 -304.546)" fill="#fffbe9"/>
          <path id="Trazado_201" data-name="Trazado 201" d="M253.667,393.925a1.686,1.686,0,0,1,.118-.143,3.743,3.743,0,0,0-.474,4.537.7.7,0,0,0,.212.237c1.58,1.368,2.647-1.029,2.785-2.461C256.516,394.02,254.972,392.038,253.667,393.925Z" transform="translate(-57.532 -287.944)" fill="#fffbe9"/>
          <path id="Trazado_202" data-name="Trazado 202" d="M252.057,428.041c-.059-.046-.11-.089-.164-.13a1.481,1.481,0,0,0-1.308-.051,7.037,7.037,0,0,0-.937.615c-1.19.973-1.748,3.025-1.651,4.82.067,1.192.694,3.373,2.074,3.27,1.408-.1,2.127-1.077,2.79-2.369C253.723,432.515,253.841,429.522,252.057,428.041Z" transform="translate(-64.977 -234.262)" fill="#fffbe9"/>
          <path id="Trazado_203" data-name="Trazado 203" d="M256.041,425.426c-.648-.046-.645.559-.991.924-.3.319-.758,1.81.1,1.935a.573.573,0,0,0,.038.092.6.6,0,0,0,.914.043.4.4,0,0,1,.092-.082C256.635,427.9,257.318,425.529,256.041,425.426Z" transform="translate(-54.569 -237.846)" fill="#fffbe9"/>
          <path id="Trazado_204" data-name="Trazado 204" d="M258.461,432.262c-.189.1-.392.191-.586.294-.6,0-.914,1.256-.466,1.823l.031.036c-.169.937-.259,2.489.755,3.061.043.028.082.051.128.077,1.39.786,2.248-1.619,2.358-2.722C260.837,433.206,259.923,431.169,258.461,432.262Z" transform="translate(-50.607 -227.706)" fill="#fffbe9"/>
          <path id="Trazado_205" data-name="Trazado 205" d="M253.183,432.049a3.645,3.645,0,0,0-.865,3.344,1.757,1.757,0,0,0,.74,1.177c.084.046.131.066.177.087.061.054.131.107.251.194,1.011.74,1.6-1.55,1.549-2.252l-.008-.066a3.646,3.646,0,0,0-.01-1.506C254.76,431.894,253.885,431.429,253.183,432.049Z" transform="translate(-58.359 -227.986)" fill="#fffbe9"/>
          <path id="Trazado_206" data-name="Trazado 206" d="M288.207,379.873c-2.578,1.136-3.049,10.006.456,8.461C291.248,387.208,291.719,378.333,288.207,379.873Z" transform="translate(-5.434 -308.869)" fill="#fffbe9"/>
          <path id="Trazado_207" data-name="Trazado 207" d="M288.305,386.582c-1.4-.041-2.363,1.7-2.662,3.071a.5.5,0,0,0-.023.089c-.317,1.463-.466,5.438,1.836,5.5,2.061.059,3.087-3.26,2.911-5.331a.439.439,0,0,1-.01-.092C290.246,388.53,289.723,386.618,288.305,386.582Z" transform="translate(-6.546 -298.172)" fill="#fffbe9"/>
          <path id="Trazado_208" data-name="Trazado 208" d="M285.035,384.606c-1.316-2.364-2.829-.025-3.272,1.328-.046.128-.092.263-.131.4a4.7,4.7,0,0,0,.517,4c.829.952,1.293.791,2.245.807,1.549.015,2.01-2.8,1.208-4.279A6.324,6.324,0,0,0,285.035,384.606Z" transform="translate(-12.83 -302.813)" fill="#fffbe9"/>
          <path id="Trazado_209" data-name="Trazado 209" d="M278.651,371.226c-.747.332-.888,2.9.138,2.456C279.529,373.353,279.675,370.782,278.651,371.226Z" transform="translate(-18.069 -322.1)" fill="#fffbe9"/>
          <path id="Trazado_210" data-name="Trazado 210" d="M217.829,378.628c-.924-1.3-2.309-.271-2.847.5a6.264,6.264,0,0,0-.875,4.869,3.465,3.465,0,0,0,1.492,2.443c.922.534,1.823-.248,2.294-.927a6.517,6.517,0,0,0,.865-4.81A4.688,4.688,0,0,0,217.829,378.628Z" transform="translate(-118.099 -311.489)" fill="#fffbe9"/>
          <path id="Trazado_211" data-name="Trazado 211" d="M221.961,371.135c-1.149.5-1.6,2.114-1.567,3.508l2.307,1.979a3.192,3.192,0,0,0,.73-1.044,5.112,5.112,0,0,0,.4-2.285C223.771,372.166,223.079,370.637,221.961,371.135Z" transform="translate(-108.023 -322.312)" fill="#fffbe9"/>
          <g id="Grupo_10" data-name="Grupo 10" transform="translate(124.77 82.231)">
            <path id="Trazado_212" data-name="Trazado 212" d="M225.381,384.915l0,0C225.412,384.721,225.43,384.632,225.381,384.915Z" transform="translate(-225.01 -383.272)" fill="#fffbe9"/>
            <path id="Trazado_213" data-name="Trazado 213" d="M227.4,384.441a.487.487,0,0,1-.238-.143c-.724-.5-1.221.477-1.462,1.251-.036.082-.059.171-.092.253-.015.1-.041.222-.061.35l0,.008c.026-.158.046-.273.056-.355a5.832,5.832,0,0,0-.23.62,3.324,3.324,0,0,0,.369,2.79,1.046,1.046,0,0,0,1.741-.306c.046-.072.082-.143.123-.212C228.013,387.985,228.94,385,227.4,384.441Z" transform="translate(-225.236 -384.161)" fill="#fffbe9"/>
          </g>
          <path id="Trazado_214" data-name="Trazado 214" d="M220.376,381.16a.8.8,0,0,1-.133.043c-1.339.358-2.1,3.9-.5,4.966.041.028.084.056.128.087C222.11,387.742,223.136,380.42,220.376,381.16Z" transform="translate(-110.445 -306.674)" fill="#fffbe9"/>
          <g id="Grupo_11" data-name="Grupo 11" transform="translate(97.227 88.518)">
            <path id="Trazado_215" data-name="Trazado 215" d="M218.514,387.255l-.138-.138a1.468,1.468,0,0,0-1.331-.472c-1.93.444-3.679,4.6-1.687,6.8a1.6,1.6,0,0,0,1.958.526C218.887,393.383,220.367,389.043,218.514,387.255Z" transform="translate(-214.477 -386.622)" fill="#fffbe9"/>
            <path id="Trazado_216" data-name="Trazado 216" d="M215.362,386.667c.113-.038.2,0,.3-.02.023-.005.044-.02.064-.023C215.605,386.634,215.487,386.655,215.362,386.667Z" transform="translate(-213.097 -386.624)" fill="#fffbe9"/>
          </g>
          <path id="Trazado_217" data-name="Trazado 217" d="M232.915,467.22c-1.091.475-1.59,2.122-1.516,3.5.061,1.1.73,2.571,1.82,2.1s1.59-2.119,1.513-3.5C234.674,468.224,234,466.741,232.915,467.22Z" transform="translate(-90.863 -173.077)" fill="#fffbe9"/>
          <path id="Trazado_218" data-name="Trazado 218" d="M240.821,464.731c-1.055-1.256-2.166.174-2.591,1.031-.484.955-1.047,3.23-.087,4.412q1.574-.923,3.149-1.859A4.174,4.174,0,0,0,240.821,464.731Z" transform="translate(-81.148 -177.568)" fill="#fffbe9"/>
          <path id="Trazado_219" data-name="Trazado 219" d="M245.41,477.578l-.154-.161c-2.447-2.556-3.863,2.594-3.863,4.414,0,.112,0,.23.005.347,0,2.206,1.718,4.021,3.259,2.665C245.981,483.673,247.31,479.562,245.41,477.578Z" transform="translate(-75.262 -158.18)" fill="#fffbe9"/>
          <path id="Trazado_220" data-name="Trazado 220" d="M237.906,472.537a.54.54,0,0,0-.09-.01c-1.477-.2-2.532,3.546-1.224,4.772a3.121,3.121,0,0,0,.776.493c1.285.618,1.843-1.614,1.818-2.65,0-.212-.01-.419-.028-.63C239.1,473.653,238.766,472.649,237.906,472.537Z" transform="translate(-83.676 -164.704)" fill="#fffbe9"/>
          <path id="Trazado_221" data-name="Trazado 221" d="M229.821,477.582c-1.2.528-1.756,2.341-1.669,3.865.061,1.213.8,2.847,2.007,2.321s1.759-2.336,1.677-3.86C231.77,478.693,231.022,477.053,229.821,477.582Z" transform="translate(-95.931 -156.999)" fill="#fffbe9"/>
          <path id="Trazado_222" data-name="Trazado 222" d="M240.092,488.071c-1.119-1.333-2.222-.158-2.831.937a1.349,1.349,0,0,0-.707,1.036,7.309,7.309,0,0,0,.4,3.664c1.016,2.249,2.819.651,3.369-.595C240.885,491.847,241.269,489.468,240.092,488.071Z" transform="translate(-82.913 -141.472)" fill="#fffbe9"/>
          <path id="Trazado_223" data-name="Trazado 223" d="M247.346,490.527c-.735-.082-1.252.472-1.9.483-1.07,0-1.935,2.545-.914,3.551a8.566,8.566,0,0,1,1,1.256C247.789,499.83,250.813,490.9,247.346,490.527Z" transform="translate(-71.075 -136.748)" fill="#fffbe9"/>
          <path id="Trazado_224" data-name="Trazado 224" d="M232.613,489.682a2.366,2.366,0,0,0-.366.465c-1.825.988-1.3,6.582.993,4.935a4.056,4.056,0,0,0,1.1-4.917C233.9,489.294,233.174,489.2,232.613,489.682Z" transform="translate(-91.245 -138.495)" fill="#fffbe9"/>
          <path id="Trazado_225" data-name="Trazado 225" d="M224.772,473.842c-1.08.47-1.577,2.1-1.505,3.467.061,1.083.727,2.553,1.8,2.081s1.577-2.1,1.505-3.467C226.518,474.843,225.85,473.37,224.772,473.842Z" transform="translate(-103.548 -162.79)" fill="#fffbe9"/>
          <path id="Trazado_226" data-name="Trazado 226" d="M221.73,482.689c-1.661.73-1.92,2.755-1.756,4.578.876.613,1.751,1.228,2.624,1.838a3.492,3.492,0,0,0,.845-1.218,5.856,5.856,0,0,0,.479-2.665C223.847,483.9,223.038,482.12,221.73,482.689Z" transform="translate(-108.741 -149.078)" fill="#fffbe9"/>
          <path id="Trazado_227" data-name="Trazado 227" d="M248.3,476.229a.676.676,0,0,1-.207-.168c-.952-.978-1.413,1.167-1.3,1.877a2.079,2.079,0,0,1,.041.434c.041,1.248,1.014,1.713,1.615.86C248.846,478.66,249.31,476.781,248.3,476.229Z" transform="translate(-66.866 -159.593)" fill="#fffbe9"/>
          <path id="Trazado_228" data-name="Trazado 228" d="M259.458,488.315a1.607,1.607,0,0,0-1.69,1.251c-.018.14-.046.278-.074.419-.12.646-.333,2.515.64,2.849a1.151,1.151,0,0,0,1.016-.02,2.641,2.641,0,0,0,1.188-2.18C260.61,489.946,260.416,488.254,259.458,488.315Z" transform="translate(-49.999 -140.174)" fill="#fffbe9"/>
          <path id="Trazado_229" data-name="Trazado 229" d="M246.584,483.308c-2.084.916-2.46,8.07.369,6.824C249.032,489.216,249.416,482.07,246.584,483.308Z" transform="translate(-69.75 -148.17)" fill="#fffbe9"/>
          <path id="Trazado_230" data-name="Trazado 230" d="M242.569,482.67l-.148.041c-.558-.779-1.029.866-.914,1.31l-.072.312c-.146,1.2.781,2.311,1.523,1.251C243.312,485.077,243.8,482.705,242.569,482.67Z" transform="translate(-75.219 -149.196)" fill="#fffbe9"/>
          <path id="Trazado_231" data-name="Trazado 231" d="M280.765,469.841c-.2-.378-.576-.886-.986-.812-.735.143-1.306.365-1.49,1.3a5.462,5.462,0,0,0,.133,3.4c.486,1.3,1.656.748,2.109.1a3.946,3.946,0,0,0,.387-3.687C280.868,470.04,280.814,469.938,280.765,469.841Z" transform="translate(-18.025 -170.134)" fill="#fffbe9"/>
          <path id="Trazado_232" data-name="Trazado 232" d="M292.212,481.6c-.044-.059-.092-.128-.136-.184a1.09,1.09,0,0,0-1.685-.077.694.694,0,0,1,.1-.005c-1.1.6-2.245,3.424-.876,4.879a2.824,2.824,0,0,0,.627.505c.881.513,1.733-.536,2.017-1.274.033-.1.074-.194.115-.3A3.792,3.792,0,0,0,292.212,481.6Z" transform="translate(-1.001 -151.566)" fill="#fffbe9"/>
          <path id="Trazado_233" data-name="Trazado 233" d="M295.936,475.612c-1.272-2.037-2.749,2.224-2.378,3.436a5.425,5.425,0,0,0,.471,1.208c.645,1.139,1.536.893,2.086.1a4.136,4.136,0,0,0,.379-3.643A4.806,4.806,0,0,0,295.936,475.612Z" transform="translate(6.024 -160.743)" fill="#fffbe9"/>
          <path id="Trazado_234" data-name="Trazado 234" d="M289.975,476.388c-2.094.914-2.478,8.106.366,6.853C292.43,482.319,292.819,475.132,289.975,476.388Z" transform="translate(-2.077 -158.922)" fill="#fffbe9"/>
          <path id="Trazado_235" data-name="Trazado 235" d="M287.533,484.375c-.054-.043-.107-.082-.156-.125a1.249,1.249,0,0,0-1.846-.079c-.12.087-.241.179-.356.273A4.332,4.332,0,0,0,284,487.906c.044.827.494,2.451,1.485,2.346,1.165-.125,1.672-.728,2.235-1.833C288.122,487.63,288.545,485.235,287.533,484.375Z" transform="translate(-8.811 -147.181)" fill="#fffbe9"/>
          <path id="Trazado_236" data-name="Trazado 236" d="M294.064,487.2c-.282.59-.543,2.047.123,2.706.123.12.235.23.358.352,1.367,1.343,2.529-1,2.573-2.265a4.762,4.762,0,0,0-.059-1.246C296.673,485.021,295.047,485.072,294.064,487.2Z" transform="translate(6.444 -144.508)" fill="#fffbe9"/>
          <path id="Trazado_237" data-name="Trazado 237" d="M300.489,480.057c.174-.26.146-.243-.11.041a4.386,4.386,0,0,0-1.152,3.378c.051.993.819,2.89,1.907,2.2a4.5,4.5,0,0,0,1.564-5.51C302.112,478.809,301.017,479.378,300.489,480.057Z" transform="translate(14.946 -154.112)" fill="#fffbe9"/>
          <path id="Trazado_238" data-name="Trazado 238" d="M307.143,474.142c-1.126.148-1.725.835-2.05,2.088-.228.85-.036,3.9,1.434,3.107a5.783,5.783,0,0,0,.863-.618C308.088,478.156,309.03,473.913,307.143,474.142Z" transform="translate(23.985 -162.196)" fill="#fffbe9"/>
          <path id="Trazado_239" data-name="Trazado 239" d="M284.669,478.95c-1.278.562-1.51,4.95.23,4.19C286.171,482.578,286.4,478.192,284.669,478.95Z" transform="translate(-9.338 -154.851)" fill="#fffbe9"/>
          <path id="Trazado_240" data-name="Trazado 240" d="M281.71,490.516c-1.06-.023-1.69.832-2.084,1.838a5.083,5.083,0,0,0-.118,3.883,1.309,1.309,0,0,0,2.161.608,4.137,4.137,0,0,0,1.346-2.415C283.315,493.412,283.31,490.55,281.71,490.516Z" transform="translate(-16.33 -136.753)" fill="#fffbe9"/>
          <path id="Trazado_241" data-name="Trazado 241" d="M284.822,471.365c-1.19.531-1.405,4.631.218,3.916C286.23,474.758,286.447,470.657,284.822,471.365Z" transform="translate(-8.989 -166.623)" fill="#fffbe9"/>
          <path id="Trazado_242" data-name="Trazado 242" d="M220.888,452.593c-.865-.465-1.472.22-1.836,1.118-.008.025-.028.036-.044.056-.013.043-.028.112-.046.163a5.585,5.585,0,0,0-.32,1.928,3.47,3.47,0,0,0,.312,1.264.961.961,0,0,0,1.016.781c.625.084.922-.276.893-1.072q.342-.693.7-1.391c-.087.462-.172.932-.253,1.391C221.756,455.9,222.311,453.351,220.888,452.593Z" transform="translate(-110.759 -195.883)" fill="#fffbe9"/>
          <path id="Trazado_243" data-name="Trazado 243" d="M221.982,454.529c.159.043.315.082.474.123.648.179,1.07-1.07,1.1-1.608.015-.3.028-.6.046-.9C223.912,446.107,218.152,453.5,221.982,454.529Z" transform="translate(-107.601 -199.994)" fill="#fffbe9"/>
          <path id="Trazado_244" data-name="Trazado 244" d="M235.7,399.917l-.253.112c-1.277.559-1.866,2.477-1.777,4.1.067,1.274.855,3.013,2.13,2.451l.259-.115c1.275-.554,1.861-2.474,1.774-4.093C237.76,401.094,236.974,399.357,235.7,399.917Z" transform="translate(-87.321 -277.629)" fill="#fffbe9"/>
          <path id="Trazado_245" data-name="Trazado 245" d="M240.366,403.407c-.832-.924-1.695-.033-2.076.73-.54.71-1.16,3.13.026,3.572a1.5,1.5,0,0,0,.7.618c1.382.516,2.148-1.644,2.017-2.946A3.1,3.1,0,0,0,240.366,403.407Z" transform="translate(-81.121 -272.653)" fill="#fffbe9"/>
          <path id="Trazado_246" data-name="Trazado 246" d="M280.52,411.918c-1.137.493-1.656,2.2-1.579,3.633.064,1.141.763,2.678,1.894,2.188,1.129-.505,1.659-2.2,1.574-3.641C282.348,412.954,281.654,411.42,280.52,411.918Z" transform="translate(-16.699 -258.973)" fill="#fffbe9"/>
          <path id="Trazado_247" data-name="Trazado 247" d="M275.43,406.666c-.458,1.034-.968,2.982.161,4.075a.709.709,0,0,0,1.119.005c1.224-.24,1.649-2.765,1.377-3.96C277.606,404.649,275.954,405.459,275.43,406.666Z" transform="translate(-22.978 -268.853)" fill="#fffbe9"/>
          <path id="Trazado_248" data-name="Trazado 248" d="M275.522,414.11l-.192.26c-.53.748-1.311,3.789.218,4.427.072.028.138.059.21.087,1.633.684,2.417-1.973,2.337-3.408C277.985,413.5,276.5,412.745,275.522,414.11Z" transform="translate(-23.375 -256.496)" fill="#fffbe9"/>
          <path id="Trazado_249" data-name="Trazado 249" d="M277.891,437.735c-.074.072-.154.14-.223.209a4.443,4.443,0,0,0-1.062,4.141.77.77,0,0,0,.023.077c.215.771.527,1.279,1.219,1.414a1.046,1.046,0,0,0,1.032-.549c.072.033.148.064.225.095,1.006-.712,1.39-2.724,1.067-4.164C279.862,437.567,278.756,436.949,277.891,437.735Z" transform="translate(-20.551 -219.263)" fill="#fffbe9"/>
          <path id="Trazado_250" data-name="Trazado 250" d="M280.328,442.431c-1.114.485-1.316,4.3.2,3.638C281.636,445.584,281.841,441.773,280.328,442.431Z" transform="translate(-15.905 -211.551)" fill="#fffbe9"/>
          <path id="Trazado_251" data-name="Trazado 251" d="M276.048,442.8c-1.1.49-1.316,4.3.195,3.638C277.359,445.963,277.561,442.143,276.048,442.8Z" transform="translate(-22.577 -210.972)" fill="#fffbe9"/>
          <path id="Trazado_252" data-name="Trazado 252" d="M276.939,450.129a2.345,2.345,0,0,0-.881.22c-.883.388-1.29,1.721-1.231,2.847.049.883.594,2.089,1.48,1.7a3.308,3.308,0,0,0,.858-.536C277.8,453.8,278.754,450.091,276.939,450.129Z" transform="translate(-23.113 -199.477)" fill="#fffbe9"/>
          <path id="Trazado_253" data-name="Trazado 253" d="M261.387,458.713c-1.052.462-1.247,4.085.189,3.457C262.631,461.708,262.82,458.085,261.387,458.713Z" transform="translate(-45.379 -186.258)" fill="#fffbe9"/>
          <path id="Trazado_254" data-name="Trazado 254" d="M271.7,361.236c-1.938-1.162-2.03,4.488-.412,3.756.023.028.026.036.064.079.9,1.2,1.613-1.348,1.428-2.06A2.4,2.4,0,0,0,271.7,361.236Z" transform="translate(-30.39 -337.781)" fill="#fffbe9"/>
          <path id="Trazado_255" data-name="Trazado 255" d="M232.247,360.546a6.024,6.024,0,0,0-.909,1.945c-.556,1.688.128,4.667,1.71,4.537a.9.9,0,0,0-.087.041,1.082,1.082,0,0,1,.159-.015l.043-.018c.015.005.026-.008.038-.005,1.766-.235,2.573-2.709,2.465-4.659C235.521,359.632,233.6,358.873,232.247,360.546Z" transform="translate(-91.245 -339.978)" fill="#fffbe9"/>
          <path id="Trazado_256" data-name="Trazado 256" d="M237.346,363.369c-1.664.733-1.974,6.452.3,5.464C239.309,368.1,239.614,362.376,237.346,363.369Z" transform="translate(-83.646 -334.402)" fill="#fffbe9"/>
          <path id="Trazado_257" data-name="Trazado 257" d="M238.325,361.831c-.666.294-.791,2.579.118,2.185C239.108,363.723,239.231,361.433,238.325,361.831Z" transform="translate(-80.877 -336.683)" fill="#fffbe9"/>
        </g>
        <g id="Grupo_14" data-name="Grupo 14" transform="translate(266.889)">
          <g id="Grupo_13" data-name="Grupo 13">
            <path id="Trazado_258" data-name="Trazado 258" d="M429.83,400.994c.451,21.5-14.986,44.309-39.324,58.118-26.337,14.941-55.662,15.416-78.443,1.259-17.185-10.677-27.689-28.745-28.1-48.335a55.822,55.822,0,0,1,16.945-41.186c24.7-24.374,66.721-30.262,97.741-13.69,25.293,13.508,30.917,31.291,31.181,43.831Z" transform="translate(-275.76 -339.669)" fill="#ff8e7b"/>
            <path id="Trazado_259" data-name="Trazado 259" d="M297.142,416.8a47.7,47.7,0,0,1,14.52-35.21c22.31-22.018,60.611-26.986,88.113-12.3,18.739,10.008,26.573,23.271,26.857,36.805.814,38.871-60.708,79.945-105.249,52.274-15.427-9.587-23.9-25.454-24.241-41.574m-16.376.342c.469,22.357,12.416,42.953,31.954,55.1,25.38,15.768,57.841,15.357,86.833-1.1,26.911-15.27,43.968-40.936,43.456-65.385-.254-12.048-5.2-34.681-35.5-50.865-34.056-18.191-80.215-11.708-107.364,15.084a63.92,63.92,0,0,0-19.377,47.166Z" transform="translate(-280.751 -344.602)" fill="#fff"/>
          </g>
          <path id="Trazado_260" data-name="Trazado 260" d="M299.43,382.459c2.645,1.986,6.851,1.591,9.641.156,2.207-1.141,4.306-4.011,1.672-5.987s-6.843-1.6-9.636-.161C298.9,377.609,296.8,380.478,299.43,382.459Z" transform="translate(-253.525 -296.982)" fill="#fffbe9"/>
          <path id="Trazado_261" data-name="Trazado 261" d="M297.106,374.162c1.928,1.45,5,1.167,7.03.115,1.615-.832,3.151-2.921,1.226-4.371s-5-1.162-7.032-.115C296.722,370.629,295.186,372.72,297.106,374.162Z" transform="translate(-256.631 -306.848)" fill="#fffbe9"/>
          <path id="Trazado_262" data-name="Trazado 262" d="M301.484,369.109c.1.258.2.518.294.781,1.027,2.711,4.933,2.5,7.112,1.374,2.785-1.437,2.11-3.906-.653-4.657q-.6-.165-1.19-.322C305.787,365.945,300.6,366.755,301.484,369.109Z" transform="translate(-248.565 -311.042)" fill="#fffbe9"/>
          <path id="Trazado_263" data-name="Trazado 263" d="M305.375,372.719c-.031.1-.061.184-.09.268-.151.429.1.733.371,1.014.154.156.307.309.453.46,1.521,1.552,6.09-.776,3.489-2.244a3.777,3.777,0,0,0-2.135-.551C306.719,371.682,305.667,371.9,305.375,372.719Z" transform="translate(-242.549 -302.573)" fill="#fffbe9"/>
          <path id="Trazado_264" data-name="Trazado 264" d="M322.629,374.278c2.347,1.759,6.088,1.417,8.558.13,1.966-1.008,3.835-3.556,1.487-5.318s-6.083-1.414-8.558-.14C322.156,369.971,320.289,372.514,322.629,374.278Z" transform="translate(-217.122 -308.447)" fill="#fffbe9"/>
        </g>
      </g>
      <g id="Grupo_113" data-name="Grupo 113" transform="translate(678.959 397.601)">
        <path id="Trazado_102" data-name="Trazado 102" d="M461.072,48.875c-24.914,40.7-39.406,84.081-18.212,129.8C521.509,347.351,750.511,378.6,842.981,205.6c23.467-43.9,29.714-94.089,3.226-137.655C819.769,24.511,775.264-15.96,734.892-46.335,694.8-76.522,648.418-90.051,599.573-74.924,540.061-56.478,492.355-2.263,461.072,48.875Z" transform="translate(-432.625 81.154)" fill="#ff8e7b"/>
        <path id="Trazado_103" data-name="Trazado 103" d="M461.082-6.394a3.454,3.454,0,0,0,1.444,1.376c.376.143.747.3,1.116.462a.559.559,0,0,1,.138.023c.026.013.036.023.066.036.015,0,.036-.008.051.005.215.056.422.084.64.123.328.077.515.1.41.054a6.47,6.47,0,0,0,1.275.077c.041.005.072.018.1.02a6.51,6.51,0,0,0,4.659-1.8,2.433,2.433,0,0,0,.3-.549c.031-.051.056-.11.084-.161a2.057,2.057,0,0,0,.184-.863,1.717,1.717,0,0,0-.031-.534,2.646,2.646,0,0,0-.609-1.049c-.033-.036-.026-.077-.059-.11-.026.008-.038.008-.059.015a3.982,3.982,0,0,0-.814-.638,8.12,8.12,0,0,0-6.569-.243C461.986-9.58,460.2-8.132,461.082-6.394Z" transform="translate(-388.6 190.541)" fill="#fffbe9"/>
        <path id="Trazado_104" data-name="Trazado 104" d="M455.308-9.657c1.733,1.6,4.736,1.614,6.81.8,1.641-.656,3.328-2.538,1.613-4.123-1.738-1.6-4.741-1.614-6.815-.794C455.272-13.124,453.588-11.242,455.308-9.657Z" transform="translate(-398.365 184.965)" fill="#fffbe9"/>
        <path id="Trazado_105" data-name="Trazado 105" d="M452.19-1.97c1.58,1.46,4.316,1.465,6.213.717,1.5-.592,3.039-2.311,1.467-3.758s-4.321-1.465-6.213-.717C452.156-5.136,450.613-3.421,452.19-1.97Z" transform="translate(-403.137 197.538)" fill="#fffbe9"/>
        <path id="Trazado_106" data-name="Trazado 106" d="M459.453-17.074c.238.311.484.623.722.942,1.006.968,1.331,1.159.983.546a8.123,8.123,0,0,0,8.786.324c-.832.457-.5.294.97-.477A3.6,3.6,0,0,0,472.8-18.7c-.1-2.441-3.195-3.488-5.164-3.735-2.552-.314-5.809.181-7.626,2.188A2.779,2.779,0,0,0,459.453-17.074Z" transform="translate(-391.213 172.215)" fill="#fffbe9"/>
        <path id="Trazado_107" data-name="Trazado 107" d="M471.314-25.337c3.041,2.8,13.591.061,9.449-3.748C477.722-31.88,467.167-29.159,471.314-25.337Z" transform="translate(-373.754 160.24)" fill="#fffbe9"/>
        <path id="Trazado_108" data-name="Trazado 108" d="M475.45-17.569c1.971,1.815,8.809.043,6.121-2.423C479.6-21.8,472.764-20.033,475.45-17.569Z" transform="translate(-366.78 174.99)" fill="#fffbe9"/>
        <path id="Trazado_109" data-name="Trazado 109" d="M484.948-18c1.989,1.866,5.082,1.933,7.6,1.524.079-.005.153-.02.233-.033,1.943-.309,4.424-1.616,4.493-3.845l.008-.156c.061-1.769-2.043-2.885-3.438-3.319a9.948,9.948,0,0,0-8.051.957C484.039-21.727,483.248-19.608,484.948-18Z" transform="translate(-352.472 169.503)" fill="#fffbe9"/>
        <path id="Trazado_110" data-name="Trazado 110" d="M480.534-31.812c1.375,1.945,3.1,2.395,5.394,2.729,1.213.189,3.371-.143,3.886-1.5a5.811,5.811,0,0,0,.461-2.405c-.1-2.275-3.384-2.854-5.1-2.78C483.759-35.713,478.8-34.255,480.534-31.812Z" transform="translate(-358.454 151.632)" fill="#fffbe9"/>
        <path id="Trazado_111" data-name="Trazado 111" d="M478.812-9.646c-1.382,2.648,4.523,2.558,5.7,1.731a10.567,10.567,0,0,0,1.052-.888,1.488,1.488,0,0,0,.43-1.062c-.023-.115-.056-.212-.079-.329-.387-1.6-2.552-2.007-3.965-1.616A4.32,4.32,0,0,0,478.812-9.646Z" transform="translate(-360.897 188.636)" fill="#fffbe9"/>
        <path id="Trazado_112" data-name="Trazado 112" d="M462.134-30.976c2.381,2.191,6.513,2.221,9.365,1.088,2.263-.9,4.587-3.48,2.217-5.67s-6.515-2.211-9.367-1.077C462.085-35.74,459.761-33.156,462.134-30.976Z" transform="translate(-388.144 149.146)" fill="#fffbe9"/>
        <path id="Trazado_113" data-name="Trazado 113" d="M571.237-2.163c2.962,2.719,13.207.066,9.188-3.63C577.468-8.521,567.212-5.871,571.237-2.163Z" transform="translate(-217.83 196.454)" fill="#fffbe9"/>
        <path id="Trazado_114" data-name="Trazado 114" d="M577.029-13.016c1.836,1.688,5.015,1.708,7.209.835,1.738-.687,3.54-2.686,1.715-4.363-1.846-1.69-5.025-1.711-7.219-.837C576.986-16.695,575.2-14.693,577.029-13.016Z" transform="translate(-208.552 179.314)" fill="#fffbe9"/>
        <path id="Trazado_115" data-name="Trazado 115" d="M587.319-4.471c2.411.74,8.852.421,8.7-3.38-.1-2.545-3.271-3.378-5.97-3.276-.01.01-.02,0-.031,0a.053.053,0,0,0-.031.008,7.873,7.873,0,0,0-2.916.6c1.3-.368,1.316-.368.192-.049-.064.028-.128.02-.192.049l.064-.005c-.087.023-.131.041-.238.074C583.4-9.069,583.873-5.526,587.319-4.471Z" transform="translate(-195.709 189.9)" fill="#fffbe9"/>
        <path id="Trazado_116" data-name="Trazado 116" d="M581.155,4.54l.284.368c1.633,2.132,6.157,1.557,8.079.3,2.417-1.585,1.214-4.133-1.236-4.784l-.607-.151C585.226-.382,578.211.728,581.155,4.54Z" transform="translate(-202.024 207.342)" fill="#fffbe9"/>
        <path id="Trazado_117" data-name="Trazado 117" d="M576.537-8.61a2.66,2.66,0,0,0,1.823,2.252c1.513.7,7.219.682,5.929-2.334a3.625,3.625,0,0,0-2.591-1.925C580.349-11.015,576.34-10.88,576.537-8.61Z" transform="translate(-208.132 190.434)" fill="#fffbe9"/>
        <path id="Trazado_118" data-name="Trazado 118" d="M566.12-12.711a7.283,7.283,0,0,0,6.09.227c1.124-.454,3.208-1.981,2.155-3.475-.187-.273-.386-.541-.573-.817-1.515-2.155-4.175-2.247-6.577-1.933C563.632-18.248,562.406-15.057,566.12-12.711Z" transform="translate(-227.892 177.932)" fill="#fffbe9"/>
        <path id="Trazado_119" data-name="Trazado 119" d="M559.39,1.454c1.2.365,7.025-.171,5.333-2.724-.069-.059-.13-.128-.194-.194.09-1.672-3.023-1.552-3.937-1.174-.156,0-.32.005-.476.015C557.465-2.288,556.512.571,559.39,1.454Z" transform="translate(-237.612 202.729)" fill="#fffbe9"/>
        <path id="Trazado_120" data-name="Trazado 120" d="M561,8.2c.878,2.471,7.255.768,5.2-1.545a12.878,12.878,0,0,0-.97-.848,2.879,2.879,0,0,0-3.648.153A1.974,1.974,0,0,0,561,8.2Z" transform="translate(-232.59 215.32)" fill="#fffbe9"/>
        <path id="Trazado_121" data-name="Trazado 121" d="M565.539-1.8c.179.12.256.4.359.582.735,1.351,3.743,1.233,4.367-.179.087-.191.141-.47.31-.6,2.468-1.989-.594-3.628-2.662-3.539S562.918-3.582,565.539-1.8Z" transform="translate(-226.899 198.588)" fill="#fffbe9"/>
        <path id="Trazado_122" data-name="Trazado 122" d="M574.142,9.712c1.5,1.379,4.117,1.4,5.921.682,1.426-.567,2.9-2.206,1.4-3.585-1.516-1.381-4.119-1.4-5.924-.684C574.108,6.691,572.639,8.331,574.142,9.712Z" transform="translate(-212.843 215.982)" fill="#fffbe9"/>
        <path id="Trazado_123" data-name="Trazado 123" d="M585.547,21.741c-.1-.322-.1-.237-.015.217.333,2.824,4.662,2.609,6.554,1.963a8.612,8.612,0,0,0,2.36-1.139c1.191-.878,2.232-2.686.673-3.873l-.338-.245a6.973,6.973,0,0,0-7.6-.283c-.131.074-.271.146-.4.23A2.5,2.5,0,0,0,585.547,21.741Z" transform="translate(-194.284 234.212)" fill="#fffbe9"/>
        <path id="Trazado_124" data-name="Trazado 124" d="M591.033,12.212c.727.36,1.469.636,2.209.934a8.608,8.608,0,0,0,5.837-.23c1.016-.4,3.126-1.667,2.747-3.115a3.612,3.612,0,0,1-.143-.692,3.094,3.094,0,0,0-1.308-2.117C598.882,5.345,596.007,4.9,594,5.452a8.252,8.252,0,0,0-4.122,2.234C588.33,9.223,589.333,11.37,591.033,12.212Z" transform="translate(-188.508 215.312)" fill="#fffbe9"/>
        <path id="Trazado_125" data-name="Trazado 125" d="M571.739-24.181c-.01.146-.023.291-.041.444-.369,3.835,9.3,3.819,10.112.406.033-.153.064-.286.1-.439C583.06-28.585,572.192-28.874,571.739-24.181Z" transform="translate(-215.686 164.413)" fill="#fffbe9"/>
        <path id="Trazado_126" data-name="Trazado 126" d="M572.148-34.378c1.377,1.256,6.131.033,4.262-1.69C575.039-37.325,570.285-36.1,572.148-34.378Z" transform="translate(-215.634 150.376)" fill="#fffbe9"/>
        <path id="Trazado_127" data-name="Trazado 127" d="M531.278,37.1c1.843,1.7,5.056,1.723,7.27.84,1.761-.7,3.569-2.7,1.726-4.4s-5.061-1.723-7.278-.843C531.235,33.388,529.435,35.4,531.278,37.1Z" transform="translate(-279.934 257.074)" fill="#fffbe9"/>
        <path id="Trazado_128" data-name="Trazado 128" d="M520.826,33.805c2.3,1.256,5.867.973,7.626-1.083.878-.84,1.226-2.012.179-2.992-1.4-1.32-3.51-1.307-5.271-1.06a5.438,5.438,0,0,0-1.733.551C519.62,30.236,518.217,32.381,520.826,33.805Z" transform="translate(-297.252 251.521)" fill="#fffbe9"/>
        <path id="Trazado_129" data-name="Trazado 129" d="M523.334,41.156c1.756,1.621,7.846.041,5.458-2.16C527.034,37.385,520.943,38.955,523.334,41.156Z" transform="translate(-291.974 266.732)" fill="#fffbe9"/>
        <path id="Trazado_130" data-name="Trazado 130" d="M527.974,28.905c2.048,1.892,5.612,1.91,8.069.934,1.953-.766,3.96-3,1.912-4.882s-5.617-1.912-8.074-.937C527.93,24.787,525.923,27.021,527.974,28.905Z" transform="translate(-285.224 243.51)" fill="#fffbe9"/>
        <path id="Trazado_131" data-name="Trazado 131" d="M520.468,22.816c1.441.781,4.961.993,6.308-.549a1.09,1.09,0,0,0,.5-.638c.041-.186.079-.36.12-.534.463-2.1-2.079-2.668-3.684-2.671a7.92,7.92,0,0,0-2.575.541C519.239,19.63,518.466,21.721,520.468,22.816Z" transform="translate(-297.424 235.81)" fill="#fffbe9"/>
        <path id="Trazado_132" data-name="Trazado 132" d="M542.086,27.278a7.066,7.066,0,0,0,1.121,1.57c1.692,1.833,5.3,1.688,7.4.85,1.641-.643,3.794-2.877,1.754-4.476a11.412,11.412,0,0,0-1.9-1.246C548.476,22.955,540,23.157,542.086,27.278Z" transform="translate(-262.375 243.629)" fill="#fffbe9"/>
        <path id="Trazado_133" data-name="Trazado 133" d="M534.5,42.692c2.483,2.282,11.105.056,7.718-3.059C539.734,37.351,531.117,39.578,534.5,42.692Z" transform="translate(-274.906 267.294)" fill="#fffbe9"/>
        <path id="Trazado_134" data-name="Trazado 134" d="M515.134,41.727a.6.6,0,0,0,.067.286c-.545,2.39,3.226,2.5,4.672,1.933,2.529-1.014,1.193-3.048-.888-3.388-.159-.046-.323-.1-.486-.143C517.63,40.149,514.991,40.244,515.134,41.727Z" transform="translate(-303.918 269.781)" fill="#fffbe9"/>
        <g id="Grupo_5" data-name="Grupo 5" transform="translate(200.784 355.732)">
          <path id="Trazado_135" data-name="Trazado 135" d="M512.161,59.582a5.451,5.451,0,0,0-.456.329,2,2,0,0,0-.612,1.787.033.033,0,0,0,.013-.028c0,.02-.008.031-.005.051a.581.581,0,0,0,.044.128,2.286,2.286,0,0,0,.5.865,5.994,5.994,0,0,0,3.326,1.616,7.665,7.665,0,0,0,4.992-1c.686-.46,2.2-2.134,1.206-3.059-.138-.125-.294-.2-.43-.317-.023-.054-.016-.094-.041-.148a3.064,3.064,0,0,0-1.876-1.3,6.915,6.915,0,0,0-2.985-.3c-.11,0-.225.005-.343.015a7.9,7.9,0,0,0-1.731.439,1.906,1.906,0,0,0-.251.064l-.059.026a6.266,6.266,0,0,0-.84.5A3.882,3.882,0,0,0,512.161,59.582Z" transform="translate(-511.052 -58.18)" fill="#fffbe9"/>
          <path id="Trazado_136" data-name="Trazado 136" d="M511.105,59.581c0-.01-.01-.01-.008-.023-.133.283.038.692.732,1.333-.108-.1-.095-.217-.184-.317a2.219,2.219,0,0,1-.5-.866C511.141,59.668,511.113,59.624,511.105,59.581Z" transform="translate(-511.056 -56.039)" fill="#fffbe9"/>
        </g>
        <path id="Trazado_137" data-name="Trazado 137" d="M521.793,58.562a1.312,1.312,0,0,0-1.144,1.08l-.015.018c-.146.386-.287.781-.44,1.177-.571,1.532,2.355,1.333,3.054.919L524.7,60.9c.049-.028.046-.059.09-.087a1.117,1.117,0,0,0,.369-.378c.468-.62-.036-1.2-.927-1.575A3.1,3.1,0,0,0,521.793,58.562Z" transform="translate(-296.133 297.939)" fill="#fffbe9"/>
        <path id="Trazado_138" data-name="Trazado 138" d="M518.7,71.49c2.24,2.428,9.695-.306,6.789-2.683-.015-.013-.015,0-.031-.013.865-2.428-5.75-2.821-7.173-1.136C517.055,69.106,517.521,70.216,518.7,71.49Z" transform="translate(-300.127 310.677)" fill="#fffbe9"/>
        <path id="Trazado_139" data-name="Trazado 139" d="M449.611,16.914c1.746.7,6.4.97,6.269-1.963-.008-.115-.1-.174-.125-.271-.1-.291-.266-.73-.282-.753-.7-2.058-4.536-1.805-6.031-1.213C446.8,13.759,447.264,15.967,449.611,16.914Z" transform="translate(-409.191 226.286)" fill="#fffbe9"/>
        <path id="Trazado_140" data-name="Trazado 140" d="M475.657,24.347c1.674,1.542,4.567,1.56,6.569.766,1.59-.625,3.218-2.441,1.549-3.97s-4.562-1.557-6.564-.763C475.621,21,473.993,22.82,475.657,24.347Z" transform="translate(-366.585 238.04)" fill="#fffbe9"/>
        <path id="Trazado_141" data-name="Trazado 141" d="M478.958,19.781c2.03,1.859,9.055.041,6.3-2.492C483.231,15.418,476.2,17.236,478.958,19.781Z" transform="translate(-361.331 232.85)" fill="#fffbe9"/>
        <path id="Trazado_142" data-name="Trazado 142" d="M531.989-52.267c2.163,1.986,5.919,2.009,8.507.98,2.058-.809,4.168-3.158,2.01-5.134-2.166-2-5.911-2.017-8.5-.991C531.95-56.6,529.833-54.25,531.989-52.267Z" transform="translate(-279.026 116.988)" fill="#fffbe9"/>
        <path id="Trazado_143" data-name="Trazado 143" d="M527.609-47.344c-1.72,1.912.192,3.993,2.189,4.493.154.043.312.087.471.12a8.521,8.521,0,0,0,6.71-.789c1.405-.924,2.2-2.783.706-4.067-1.372-1.185-2.427-2.071-4.342-1.677-.1.023-.192.038-.292.061A7.027,7.027,0,0,0,527.609-47.344Z" transform="translate(-285.493 130.537)" fill="#fffbe9"/>
        <path id="Trazado_144" data-name="Trazado 144" d="M522.292-54.256c1.887.753,4.326.756,5.739-.761.156-.8.317-1.606.476-2.405-.668-2.2-4.874-1.9-6.4-1.287C519.312-57.6,519.791-55.256,522.292-54.256Z" transform="translate(-295.997 115.323)" fill="#fffbe9"/>
        <path id="Trazado_145" data-name="Trazado 145" d="M523.234-64.019c3.948,3.628,17.615.1,12.25-4.843C531.536-72.493,517.866-68.96,523.234-64.019Z" transform="translate(-293.197 97.928)" fill="#fffbe9"/>
        <path id="Trazado_146" data-name="Trazado 146" d="M531.446-64.293c2.143,1.963,9.572.049,6.656-2.642C535.96-68.9,528.528-66.987,531.446-64.293Z" transform="translate(-279.508 101.985)" fill="#fffbe9"/>
        <path id="Trazado_147" data-name="Trazado 147" d="M525.546-61.6c-.888,2.175,2.57,2.926,3.973,2.87s4.79-1.088,3.725-3.173a3.006,3.006,0,0,0-2.977-1.685l-.32.1C528.405-63.484,526.219-63.229,525.546-61.6Z" transform="translate(-287.892 108.411)" fill="#fffbe9"/>
        <path id="Trazado_148" data-name="Trazado 148" d="M542.1-48c2.668,2.464,7.3,2.484,10.509,1.22,2.539-1.011,5.146-3.916,2.486-6.36-2.668-2.464-7.309-2.484-10.511-1.22C542.047-53.347,539.444-50.439,542.1-48Z" transform="translate(-263.58 121.487)" fill="#fffbe9"/>
        <path id="Trazado_149" data-name="Trazado 149" d="M544.484-56.182c.481.163,1.1.1,1.549.278.824.314,4.388.112,3.943-1.54-.056-.212.228-.638.189-.945-.31-2.456-4.163-2.415-5.839-1.751C541.975-59.207,542.106-56.932,544.484-56.182Z" transform="translate(-261.017 113.19)" fill="#fffbe9"/>
        <path id="Trazado_150" data-name="Trazado 150" d="M516.345-50.934a2.376,2.376,0,0,1,.087.883c-.092,2.03,3.656,1.9,4.774,1.43a5.118,5.118,0,0,0,2.726-2.063,1.418,1.418,0,0,0-.048-1.213,3.838,3.838,0,0,0-.842-1.016C521.549-54.21,514.545-53.873,516.345-50.934Z" transform="translate(-302.479 123.897)" fill="#fffbe9"/>
        <path id="Trazado_151" data-name="Trazado 151" d="M504.634-61.607c1.3,2.543,4.971,3.166,7.513,3.061,2.284-.092,4.928-.771,6.515-2.525,1.733-1.922.776-4.46-1.423-5.51l-.082-.036c-3.136-1.488-7.739-1.736-10.678.426a.427.427,0,0,1-.062.046C504.979-65.087,503.681-63.479,504.634-61.607Z" transform="translate(-320.799 101.936)" fill="#fffbe9"/>
      </g>
      <g id="Grupo_114" data-name="Grupo 114" transform="translate(654.575 641.387)">
        <g id="Grupo_7" data-name="Grupo 7">
          <path id="Trazado_152" data-name="Trazado 152" d="M638.542,105.932c-2.266,28.684-25.853,57.013-60.091,72.186-37.053,16.411-76.165,13.161-104.614-8.711-21.46-16.483-33.047-41.929-30.986-68.076a74.744,74.744,0,0,1,28.04-52.588c36.134-29.187,92.867-31.464,131.963-5.305,31.882,21.341,37.007,45.767,35.689,62.494Z" transform="translate(-431.655 -14.394)" fill="#ffd0ca"/>
          <path id="Trazado_153" data-name="Trazado 153" d="M460.452,108.8A63.848,63.848,0,0,1,484.47,63.832c32.638-26.363,84.293-27.91,118.956-4.71,23.619,15.8,32.294,34.49,30.871,52.55-4.086,51.869-91.471,98.421-147.1,55.678-19.264-14.8-28.442-37.043-26.747-58.55m-21.85-1.713c-2.35,29.823,10.816,58.831,35.218,77.586,31.7,24.354,74.97,28.1,115.761,10.029,37.865-16.774,63.995-48.685,66.565-81.316,1.267-16.074-2.312-46.859-40.512-72.421-42.923-28.73-105.242-26.2-144.962,5.885A85.574,85.574,0,0,0,438.6,107.086Z" transform="translate(-438.334 -20.991)" fill="#fff"/>
        </g>
        <path id="Trazado_154" data-name="Trazado 154" d="M462.464,69.171c3.256,2.995,8.909,3.025,12.818,1.473,3.087-1.225,6.264-4.762,3.021-7.741-3.256-3-8.9-3.038-12.808-1.488C462.4,62.64,459.223,66.176,462.464,69.171Z" transform="translate(-402.813 40.222)" fill="#fffbe9"/>
        <path id="Trazado_155" data-name="Trazado 155" d="M460.356,57.974c2.376,2.185,6.5,2.208,9.349,1.075,2.26-.894,4.58-3.465,2.212-5.65s-6.5-2.208-9.347-1.09C460.318,53.218,458,55.791,460.356,57.974Z" transform="translate(-405.521 26.515)" fill="#fffbe9"/>
        <path id="Trazado_156" data-name="Trazado 156" d="M466.752,51.9c.1.35.2.715.287,1.08,1.009,3.748,6.234,3.985,9.285,2.768,3.9-1.55,3.33-4.92-.248-6.286q-.772-.295-1.541-.592C472.9,48.253,465.892,48.647,466.752,51.9Z" transform="translate(-394.115 21.926)" fill="#fffbe9"/>
        <path id="Trazado_157" data-name="Trazado 157" d="M471.388,57.417c-.054.123-.105.232-.156.342-.258.551.036.988.361,1.4.182.23.366.444.543.671,1.818,2.27,8.21-.227,4.943-2.525a5.009,5.009,0,0,0-2.77-1.016C473.313,56.209,471.885,56.37,471.388,57.417Z" transform="translate(-387.167 33.802)" fill="#fffbe9"/>
        <path id="Trazado_158" data-name="Trazado 158" d="M494.393,61.42c2.89,2.653,7.918,2.691,11.377,1.3,2.755-1.083,5.578-4.23,2.688-6.883s-7.91-2.688-11.374-1.32C494.334,55.619,491.511,58.752,494.393,61.42Z" transform="translate(-352.769 29.7)" fill="#fffbe9"/>
      </g>
      <g id="Grupo_116" data-name="Grupo 116" transform="translate(442.483 905.934)">
        <path id="Trazado_344" data-name="Trazado 344" d="M1020.158,104.783c-4.869-37.885-12.127-75.474-19.067-113.023-5.24-28.2-12.4-57.815-34.322-77.93-38.118-34.977-107.492.574-144.607,18.262C760.968-38.741,705.227-.169,645.942,32.3a3.711,3.711,0,0,0-1.974,2.2c-16.676,9.763-31.286,21.78-38.006,37.364-13.258,30.811,57.252,54.447,75.105,61.693,48.52,19.7,95.608,38.827,143.02,61.471,29.32,14.009,59.121,26.761,89.172,39.088,21.235,8.747,45.33,18.694,68.777,16.381C1050.671,243.715,1025.657,147.652,1020.158,104.783Z" transform="translate(-604.314 101)" fill="#ffd0ca"/>
        <path id="Trazado_345" data-name="Trazado 345" d="M628.861-24.262c1.331,4.784,13.845,8.681,12.037,2.162C639.57-26.889,627.054-30.778,628.861-24.262Z" transform="translate(-566.297 214.834)" fill="#fffbe9"/>
        <path id="Trazado_346" data-name="Trazado 346" d="M621.681-32.272c-.095.2-.177.414-.266.608-1.508,3.406,2.749,6.2,5.314,7.322,1.992.863,4.009,1.116,5.821-.217a1.431,1.431,0,0,0,.4-1.884,4.676,4.676,0,0,0-1.354-3.342c-.274-.255-.548-.541-.817-.8C629.246-32.1,623.279-35.841,621.681-32.272Z" transform="translate(-578.128 205.416)" fill="#fffbe9"/>
        <path id="Trazado_347" data-name="Trazado 347" d="M631.361-39.574c-.146.125-.315.255-.461.38-1.81,1.422-.97,3.934.407,5.374-.031.14-.067.281-.1.426-.427,1.805,3.528,4.024,4.874,2.745.057-.051.1-.115.151-.161a7.45,7.45,0,0,0,3.105.324C648.2-31.664,636.975-44.052,631.361-39.574Z" transform="translate(-564.455 194.89)" fill="#fffbe9"/>
        <path id="Trazado_348" data-name="Trazado 348" d="M644.724-38.93a1.409,1.409,0,0,0-.6.9,3.514,3.514,0,0,0-.138.866c-.015-.01-.038-.005-.059-.008-1.006,1.315.73,3.4,1.7,4.128,2.045,1.534,4.472,2.921,7.119,2.847,2.923-.071,4.28-2.474,2.852-5.009C653.84-38.292,647.079-41.31,644.724-38.93Z" transform="translate(-542.997 196.069)" fill="#fffbe9"/>
        <path id="Trazado_349" data-name="Trazado 349" d="M638.129-28.952c-.8,1.07.115,2.323,1.239,3.268a4.841,4.841,0,0,0,.33.564c1.185,1.726,7.206,5.543,7.9,1.42C648.357-28.043,641.163-33,638.129-28.952Z" transform="translate(-552.036 210.567)" fill="#fffbe9"/>
        <path id="Trazado_350" data-name="Trazado 350" d="M652.31-10.728c.914,3.362,4.705,5.734,7.972,6.329,2.573.452,6.182-.6,5.258-3.952-.932-3.365-4.708-5.727-7.982-6.314C654.978-15.132,651.368-14.078,652.31-10.728Z" transform="translate(-529.678 234.921)" fill="#fffbe9"/>
        <path id="Trazado_351" data-name="Trazado 351" d="M673.712-13.892a1.5,1.5,0,0,0-.251.518c-.223.689-.653,1.271-.852,2.014-.264.965,1.242,1.976,1.958,2.206a32.493,32.493,0,0,0,8.358,1.46c3.082.148,4.36-2.711,2.931-5.188a9.874,9.874,0,0,0-8.673-4.9C674.807-17.806,673.323-16.206,673.712-13.892Z" transform="translate(-497.822 230.245)" fill="#fffbe9"/>
        <path id="Trazado_352" data-name="Trazado 352" d="M722.563-84.729c1.669,1.91,10.731,6.472,10.964.9.082-.36-.074-.311-.435.163,3.361-3-3.4-6.406-5.742-6.541.7.008.794-.064.287-.212C723.18-92.286,718.843-88.98,722.563-84.729Z" transform="translate(-422.042 116.603)" fill="#fffbe9"/>
        <path id="Trazado_353" data-name="Trazado 353" d="M736.934-90.482c-1.3,4.81,9.628,9.043,10.053,4.207C747.32-90.134,738.13-94.985,736.934-90.482Z" transform="translate(-397.593 114.523)" fill="#fffbe9"/>
        <path id="Trazado_354" data-name="Trazado 354" d="M741.714-68.563l.638.437c1.733,1.185,6.034,3.4,7.59.643,1.48-2.584-2.44-5.515-4.467-6.148-.253-.077-.5-.161-.75-.24C740.429-75.226,737.467-71.432,741.714-68.563Z" transform="translate(-393.188 142.693)" fill="#fffbe9"/>
        <path id="Trazado_355" data-name="Trazado 355" d="M713.277-70.265c-.1.056-.233.077-.325.125-.156.079-.343.084-.5.176-1.638.985-1.5,2.515-.507,4.026a.734.734,0,0,0,.092.286c.069.138.2.237.276.368.02,0,.015.01.028.018a9.853,9.853,0,0,0,8.075,4.345c3.028-.163,4.677-2.157,6.5-4.289,1.8-2.1-3.057-4.933-4.516-5.114C719.562-70.658,716.052-71.4,713.277-70.265Z" transform="translate(-437.565 147.788)" fill="#fffbe9"/>
        <path id="Trazado_356" data-name="Trazado 356" d="M726.781-78.077c1.029,3.643,5.1,6.2,8.622,6.837,2.811.49,6.71-.633,5.7-4.266-1-3.631-5.087-6.191-8.612-6.824C729.686-82.836,725.78-81.7,726.781-78.077Z" transform="translate(-413.516 129.817)" fill="#fffbe9"/>
        <path id="Trazado_357" data-name="Trazado 357" d="M728.191-65.618c.837,3,4.2,5.1,7.114,5.619,2.312.419,5.519-.521,4.692-3.5-.827-3.01-4.186-5.121-7.1-5.632C730.587-69.56,727.369-68.6,728.191-65.618Z" transform="translate(-411.27 150.341)" fill="#fffbe9"/>
        <path id="Trazado_358" data-name="Trazado 358" d="M725.793-57.8c.169.112.353.227.55.357,2.092,1.315,8.061,2.681,8.389-1.292.377-4.317-5.617-7.235-9.17-7.284-.169.008-.34-.008-.52-.015C718.663-66.1,723.133-59.475,725.793-57.8Z" transform="translate(-421.073 155.299)" fill="#fffbe9"/>
        <path id="Trazado_359" data-name="Trazado 359" d="M713.147-79.98c1.2,4.327,12.539,7.853,10.893,1.94C722.844-82.37,711.5-85.888,713.147-79.98Z" transform="translate(-434.79 128.792)" fill="#fffbe9"/>
        <path id="Trazado_360" data-name="Trazado 360" d="M740.314,8.879c-2.578,2.262-.806,4.894,1.69,6.812,2.478,2.875,11.684,8.07,12.278,1.777C754.847,11.644,745.506,4.337,740.314,8.879Z" transform="translate(-394.125 269.447)" fill="#fffbe9"/>
        <path id="Trazado_361" data-name="Trazado 361" d="M729.487,12.037c0-.059-.013-.13-.013-.189a1.233,1.233,0,0,0-.113.47c-.023.064-.067.1-.079.148.146-.638-.307.784-.312.822a1.723,1.723,0,0,0,.745,1.45c.133.311.3.6.453.888.829,1.6,7.58,5.137,7.46,1.348a6.22,6.22,0,0,0-5.422-5.961A2.393,2.393,0,0,0,729.487,12.037Z" transform="translate(-409.866 274.883)" fill="#fffbe9"/>
        <path id="Trazado_362" data-name="Trazado 362" d="M725.116-3.076a7.912,7.912,0,0,1,1.014,1.713c1.06,1.974,9.177,6.375,9.219,1.654a9.155,9.155,0,0,1,.049-1.453c1.308-3.983-3.5-7.189-6.912-7.81C724.051-9.76,722.579-6.344,725.116-3.076Z" transform="translate(-417.796 243.749)" fill="#fffbe9"/>
        <path id="Trazado_363" data-name="Trazado 363" d="M741.768-5.779c-.563,3.148,6.382,6.464,8.489,6.342a4.879,4.879,0,0,0,3.072-.891c2.219-1.907.353-5.088-1.595-6.436a19.671,19.671,0,0,0-6.449-2.819C742.342-10.387,740.709-8.026,741.768-5.779Z" transform="translate(-390.39 242.728)" fill="#fffbe9"/>
        <path id="Trazado_364" data-name="Trazado 364" d="M734.366-.8c-2.007,2.617,1.692,5.967,3.776,6.99,1.9.934,4.81,2.065,6.779.587a6.72,6.72,0,0,0,.924-.8c3.108-2.959-2.565-7.2-5.366-7.429-.5-.041-.993-.12-1.51-.194C737.277-2.206,735.5-2.3,734.366-.8Z" transform="translate(-402.334 254.718)" fill="#fffbe9"/>
        <path id="Trazado_365" data-name="Trazado 365" d="M721.129,1.925c-3.313,2.387,2.038,6.623,4.152,7.3,2.3.728,4.616,1.146,6.943.311,3.658-1.307-.33-4.407-2.911-5.451C727.22,1.968,723.646.117,721.129,1.925Z" transform="translate(-423.729 259.712)" fill="#fffbe9"/>
        <path id="Trazado_366" data-name="Trazado 366" d="M725.38-16.3c-.543,2.7,1.229,4.848,2.662,6.9.742,1.065,4.81,4.044,5.768,1.6.724-1.825,2.353-2.017,3.164-3.638,1.733-3.444-3.607-6.551-6.246-7.057-.238-.038-.445-.087-.66-.13C728.068-18.993,725.836-18.541,725.38-16.3Z" transform="translate(-415.607 228.758)" fill="#fffbe9"/>
        <path id="Trazado_367" data-name="Trazado 367" d="M755.411-3.362c-4.045,1.157-1.38,5.471.578,7.167,2.542,2.211,6.057,3.61,9.4,2.528,4.431-1.463.853-5.624-2.376-7.537C760.968-2.951,757.809-4.066,755.411-3.362Z" transform="translate(-371.897 252.307)" fill="#fffbe9"/>
        <path id="Trazado_368" data-name="Trazado 368" d="M735.31-39.9l-.215.322c-1.408,2.058,1.193,4.509,3.277,5.716,2.478,2.124,7.911,4.769,8.39.6.5-4.133-3.282-7.486-7.276-7.9C737.929-41.316,736.3-41.336,735.31-39.9Z" transform="translate(-400.92 193.826)" fill="#fffbe9"/>
        <path id="Trazado_369" data-name="Trazado 369" d="M707.839-36.7c1.132,4.065,11.756,7.361,10.217,1.831C716.924-38.931,706.3-42.227,707.839-36.7Z" transform="translate(-443.053 196.326)" fill="#fffbe9"/>
        <path id="Trazado_370" data-name="Trazado 370" d="M711.655-22.608q.611.762,1.224,1.519c.891,1.083,5.225,3.493,6.124,1.136.156-.411.307-.814.463-1.225C722.01-27.837,706.335-29.147,711.655-22.608Z" transform="translate(-438.592 216.09)" fill="#fffbe9"/>
        <path id="Trazado_371" data-name="Trazado 371" d="M695.343-44.13c.965,3.467,4.838,5.9,8.2,6.5,2.66.472,6.382-.6,5.427-4.049-.968-3.467-4.861-5.9-8.215-6.51C698.1-48.659,694.389-47.579,695.343-44.13Z" transform="translate(-462.547 182.856)" fill="#fffbe9"/>
      </g>
      <g id="Grupo_117" data-name="Grupo 117" transform="translate(-80.372 641.677)">
        <g id="Grupo_50-2" data-name="Grupo 50" transform="translate(198.169 200.448)">
          <path id="Trazado_441" data-name="Trazado 441" d="M376.379-22.447c-3.966,2.334-6.075,7.241-8.922,10.743-1.687,2.076-3.307,4.192-4.859,6.373-.7.983-1.428,1.956-2.076,2.977C360.615-2.5,358,1.167,359.639.01c-7.048,4.948.338,15.073,7.035,9.49,1.795-1.5,2.366-3.235,3.351-5.257A73.285,73.285,0,0,1,374.638-3.6c1.562-2.387,3.466-4.634,4.841-7.131,1.011-1.838,1.472-4.019,2.68-5.732,2.486-3.526-2.2-8.088-5.78-5.984Z" transform="translate(-356.78 22.98)" fill="#4d4962"/>
        </g>
        <g id="Grupo_51-2" data-name="Grupo 51" transform="translate(276.754 185.531)">
          <path id="Trazado_442" data-name="Trazado 442" d="M406.067-28.724c-4.181,1.2-7.137,6.38-9.669,9.653-1.807,2.341-3.331,4.887-5,7.325-1.149,1.677-2.25,4.253-3.113,5.535-3,4.46,2.982,11.257,7.639,7.912,2.514-1.808,2.726-3.334,3.627-6.038a69.418,69.418,0,0,1,3.2-6.612c2.1-4.516,3.766-9.556,6.17-13.886,1.037-1.871-.6-4.534-2.854-3.888Z" transform="translate(-387.477 28.823)" fill="#4d4962"/>
        </g>
        <g id="Grupo_52-2" data-name="Grupo 52" transform="translate(229.495 228.642)">
          <path id="Trazado_443" data-name="Trazado 443" d="M388.739-10.99l-.381-.281a4.38,4.38,0,0,0-4.5-.084c-3.051,2.091-4.923,5.563-7.142,8.492-2.117,2.788-3.85,5.979-6.118,8.64-4.792,5.612,2.314,13.141,8.064,8.275C382.388,10.9,384.4,4.9,386.975.813c1.933-3.066,5.816-8.816,1.764-11.8Z" transform="translate(-369.017 11.937)" fill="#4d4962"/>
        </g>
        <g id="Grupo_53-2" data-name="Grupo 53" transform="translate(148.123 244.164)">
          <path id="Trazado_444" data-name="Trazado 444" d="M356.173-5.837c-4.844.5-8.036,6.587-10.821,10.054-2.965,3.692-6.293,6.755-7.844,11.354-2.076,6.153,8.138,9.12,9.69,2.814.863-3.51,3.64-6.1,5.6-9.028,2.294-3.421,4.69-7.115,6.674-10.7,1.372-2.474-.773-4.754-3.3-4.493Z" transform="translate(-337.231 5.857)" fill="#4d4962"/>
        </g>
        <g id="Grupo_54-2" data-name="Grupo 54" transform="translate(119.053 217.968)">
          <path id="Trazado_445" data-name="Trazado 445" d="M337.018-14.669c-4.641,5.864-6.794,13.322-10.6,19.638-1.411,2.341.143,5.578,2.412,6.671,2.652,1.279,5.3-.1,6.689-2.405,1.876-3.112,2.8-6.809,4.224-10.138,1.434-3.355,3.756-6.842,4.3-10.478.566-3.812-4.439-6.546-7.017-3.288Z" transform="translate(-325.876 16.117)" fill="#4d4962"/>
        </g>
        <g id="Grupo_55-2" data-name="Grupo 55" transform="translate(114.394 152.238)">
          <path id="Trazado_446" data-name="Trazado 446" d="M331.184-39.611c-2.173,8.829-4.89,17.537-6.927,26.348-2,8.665,11.589,10.743,12.035,1.877.123-2.466.65-4.741.594-7.238a59.33,59.33,0,0,1,.571-8.629c.535-4.376,2-9.96-1.037-13.656-1.48-1.805-4.705-.86-5.235,1.3Z" transform="translate(-324.055 41.863)" fill="#4d4962"/>
        </g>
        <g id="Grupo_56-2" data-name="Grupo 56" transform="translate(165.466 112.329)">
          <path id="Trazado_447" data-name="Trazado 447" d="M351.474-56.814c-3,2.6-4.511,7.664-5.24,11.474-.791,4.113-2.447,8.07-2.2,12.324.417,7.322,12.4,6.066,11.346-1.2-1.019-7.036,5.007-15.232,1-21.854a3.526,3.526,0,0,0-4.9-.74Z" transform="translate(-344.006 57.495)" fill="#4d4962"/>
        </g>
        <g id="Grupo_57-2" data-name="Grupo 57" transform="translate(201.81 49.679)">
          <path id="Trazado_448" data-name="Trazado 448" d="M360.055-78.147c-.356-.745-.54,2.1-.6,2.775-.2,2.129-.228,4.266-.246,6.4-.031,4.56-.781,8.995-1,13.516-.315,6.684,10.693,6.763,10.253.276-.4-5.923-.742-11.609-1.569-17.522-.489-3.485-.041-7.542-3.863-9.15-2.227-.937-3.83,1.9-2.975,3.7Z" transform="translate(-358.202 82.033)" fill="#4d4962"/>
        </g>
        <g id="Grupo_58-2" data-name="Grupo 58" transform="translate(242.034 39.245)">
          <path id="Trazado_449" data-name="Trazado 449" d="M376.242-85.377c-2.394,2.272-2.028,7.938-2.125,10.968-.079,2.438.108,4.884.159,7.32,0,.13.333,5.114.474,1.917-.049,1.134-.835,2.247-.835,3.526-.005,3.756,4.634,7.624,8.233,5.009,6.528-4.744,1.792-12.845.737-19.337-.243-1.483-2.683-13.169-6.643-9.4Z" transform="translate(-373.915 86.12)" fill="#4d4962"/>
        </g>
        <g id="Grupo_59-2" data-name="Grupo 59" transform="translate(211.314 99.394)">
          <path id="Trazado_450" data-name="Trazado 450" d="M373.074-61.088a17.625,17.625,0,0,1-1.984,2.6,43.968,43.968,0,0,0-3.866,7.207c-1.971,4.335-4.275,9.015-5.192,13.7a4.777,4.777,0,0,0,9.167,2.663,78.711,78.711,0,0,0,2.26-8.252c.837-3.043,1.969-5.99,2.826-9.023.868-3.066,3.108-7.838-.233-10.064a2.05,2.05,0,0,0-2.98,1.167Z" transform="translate(-361.915 62.561)" fill="#4d4962"/>
        </g>
        <g id="Grupo_60" data-name="Grupo 60" transform="translate(261.877 86.657)">
          <path id="Trazado_451" data-name="Trazado 451" d="M381.666-65.832a53.793,53.793,0,0,0,1.277,10.22c.609,2.9.323,5.775.914,8.591.847,4.034,6.71,4.93,8.745,1.345,2.25-3.965.276-7.889-1.818-11.481-1.9-3.271-3.407-7.866-6.477-10.12a1.757,1.757,0,0,0-2.642,1.445Z" transform="translate(-381.666 67.55)" fill="#4d4962"/>
        </g>
        <g id="Grupo_61" data-name="Grupo 61" transform="translate(165.056 283.265)">
          <path id="Trazado_452" data-name="Trazado 452" d="M369.521,9.777c-4.273,1.963-8.538,3.86-12.79,6.035-4.923,2.52-10.719,3.556-12.708,9.153a3.961,3.961,0,0,0,2.685,4.882c6.08,1.384,11.507-3.628,16.251-7.041,3.4-2.446,8.668-4.807,10.9-8.535,1.728-2.885-1.515-5.793-4.339-4.493Z" transform="translate(-343.845 -9.458)" fill="#4d4962"/>
        </g>
        <g id="Grupo_62" data-name="Grupo 62" transform="translate(90.436 304.901)">
          <path id="Trazado_453" data-name="Trazado 453" d="M345.184,20.474c-.722-3.61-5.768-2.556-8.195-1.751A189.089,189.089,0,0,1,318.5,24.283c-6.707,1.494-3.681,12.385,2.4,10.077a92.792,92.792,0,0,0,15.357-7.6c2.168-1.323,5.532-4.5,8.041-4.859a1.2,1.2,0,0,0,.886-1.432Z" transform="translate(-314.697 -17.932)" fill="#4d4962"/>
        </g>
        <g id="Grupo_63" data-name="Grupo 63" transform="translate(65.485 278.451)">
          <path id="Trazado_454" data-name="Trazado 454" d="M333.987,7.6a84,84,0,0,0-14.651,2.9c-3.727,1.126-8.558,2.231-11.8,4.373-3.666,2.42-3.543,8.229,1.057,9.587,5.015,1.481,9.147-2.405,13.43-4.455,4.5-2.152,11.118-4.179,14.349-8.073A2.59,2.59,0,0,0,333.987,7.6Z" transform="translate(-304.95 -7.573)" fill="#4d4962"/>
        </g>
        <g id="Grupo_64" data-name="Grupo 64" transform="translate(24.321 255.416)">
          <path id="Trazado_455" data-name="Trazado 455" d="M320.889-1.427c-9.835,1.1-17.879,8.336-27.3,10.82-10.163,2.681-1.889,17.838,5.883,10.682,7.158-6.595,17.592-9.48,23.8-17.167a2.592,2.592,0,0,0-2.386-4.335Z" transform="translate(-288.871 1.45)" fill="#4d4962"/>
        </g>
        <g id="Grupo_65" data-name="Grupo 65" transform="translate(133.415 87.935)">
          <path id="Trazado_456" data-name="Trazado 456" d="M335.639-36.524c1.651-1.008,2.025-2.114,2.693-3.87,1.034-2.711,2.2-5.361,3.128-8.114a74.185,74.185,0,0,0,2.8-13.468c.8-5.351-7.058-6.786-9.554-2.773-1.239,1.994-.991,3.332-.886,5.5a34.74,34.74,0,0,1-.763,7.575c-.727,4.144-2.388,9.355-1.1,13.521a2.559,2.559,0,0,0,3.676,1.626Z" transform="translate(-331.485 67.049)" fill="#4d4962"/>
        </g>
        <g id="Grupo_66" data-name="Grupo 66" transform="translate(149.348 44.506)">
          <path id="Trazado_457" data-name="Trazado 457" d="M353.816-57.059c1.411-3.219.637-6.475-.028-9.791a60.19,60.19,0,0,0-5.207-14.3c-3.167-6.651-14.024-.615-9.981,5.464a89.783,89.783,0,0,1,7.5,12.674c1.083,2.387,2.593,6.268,5.527,6.817a1.973,1.973,0,0,0,2.191-.858Z" transform="translate(-337.709 84.06)" fill="#4d4962"/>
        </g>
        <g id="Grupo_67" data-name="Grupo 67" transform="translate(181.362)">
          <path id="Trazado_458" data-name="Trazado 458" d="M375.7-83.427c-.7-3.789-4.987-6.712-7.457-9.49-2.509-2.819-5.1-5.7-8.412-7.593-8.591-4.922-13.883,10.174-5.1,11.655,2.931.5,5.03,1.91,7.406,3.628,1.385,1,2.739,2.045,4.163,2.992,1.464.973,3.172,1.4,4.621,2.3,2.452,1.522,5.263-.865,4.78-3.49Z" transform="translate(-350.215 101.492)" fill="#4d4962"/>
        </g>
        <g id="Grupo_68" data-name="Grupo 68" transform="translate(291.752 62.096)">
          <path id="Trazado_459" data-name="Trazado 459" d="M394.278-73.828a40.23,40.23,0,0,0-.87,10.22c.312,4.052.963,8.106,1.439,12.142,1,8.466,15.027,5.545,13.187-3.122-.829-3.911-1.907-7.675-2.836-11.555-.817-3.424-.085-7.011-2.885-9.679-2.353-2.244-7.383-1.757-8.033,1.994Z" transform="translate(-393.336 77.17)" fill="#4d4962"/>
        </g>
        <g id="Grupo_69" data-name="Grupo 69" transform="translate(295.178 126.021)">
          <path id="Trazado_460" data-name="Trazado 460" d="M399.42-49.38c-.735,3.082-2.092,5.992-2.67,9.158-.558,3.048-.532,6.75-1.641,9.607-2.952,7.618,10,11.609,12.344,3.582a21.113,21.113,0,0,0,.581-5.729c.046-2.242.509-4.46.5-6.7-.013-4.236.392-8.16-2.647-11.52a3.889,3.889,0,0,0-6.469,1.606Z" transform="translate(-394.674 52.132)" fill="#4d4962"/>
        </g>
        <g id="Grupo_70" data-name="Grupo 70" transform="translate(174.078 163.676)">
          <path id="Trazado_461" data-name="Trazado 461" d="M361.366-36.372a41.725,41.725,0,0,0-8.773,12.74c-1.779,3.973-4.805,8.65-5.2,13.046-.581,6.457,9.6,6.727,10.1.271.069-.9,1.252-2.438,1.641-3.322,1.167-2.648,2.158-5.372,3.323-8.022,1.7-3.873,5.2-7.593,5.143-11.989a3.717,3.717,0,0,0-6.231-2.724Z" transform="translate(-347.37 37.383)" fill="#4d4962"/>
        </g>
        <g id="Grupo_71" data-name="Grupo 71" transform="translate(241.697 141.384)">
          <path id="Trazado_462" data-name="Trazado 462" d="M380.149-43.768c-.064,1.662-1.132,3.191-1.636,4.769a45.69,45.69,0,0,0-1.078,5.481c-.758,4-2.742,7.639-3.525,11.583a5.053,5.053,0,0,0,9.7,2.816c1.851-4.647,2.368-10.343,2.394-15.306.02-3.625,1.132-9.012-2.24-11.323a2.407,2.407,0,0,0-3.612,1.979Z" transform="translate(-373.783 46.114)" fill="#4d4962"/>
        </g>
        <g id="Grupo_72" data-name="Grupo 72" transform="translate(79.514 219.159)">
          <path id="Trazado_463" data-name="Trazado 463" d="M327.384-15.475a21.335,21.335,0,0,0-7.621,4.792c-2.391,2.137-5.238,3.648-7.749,5.653-4.818,3.842,2.5,11.563,6.73,6.906,1.784-1.968,3.955-3.523,5.686-5.53,1.69-1.956,3-4.7,5.117-6.219,2.509-1.8,1.405-6.771-2.163-5.6Z" transform="translate(-310.43 15.651)" fill="#4d4962"/>
        </g>
        <g id="Grupo_73" data-name="Grupo 73" transform="translate(0 304.915)">
          <path id="Trazado_464" data-name="Trazado 464" d="M310.453,21.709c-3.238-4.46-9.477-3.485-14.426-3.278-1.782.074-3.569.237-5.353.248.317,0-2.253-.1-1.574-.005,1.316.179-2.79-.743-3.21-.735a6.41,6.41,0,0,0-6.344,7.787l.09.37a6.552,6.552,0,0,0,4.613,4.838c3.8.761,6.856-.271,10.394-1.519a63.8,63.8,0,0,1,13.622-2.791c2.03-.245,3.4-3.242,2.189-4.915Z" transform="translate(-279.37 -17.938)" fill="#4d4962"/>
        </g>
        <g id="Grupo_74" data-name="Grupo 74" transform="translate(237.043 3.069)">
          <path id="Trazado_465" data-name="Trazado 465" d="M396.077-85.385c-1.976-4.082-6.18-7.846-9.574-10.825-3.7-3.25-8.776-5.987-13.107-2.349-2.12,1.777-1.651,4.92-.1,6.819,1.336,1.634,2.824,1.682,4.641,2.413a24.208,24.208,0,0,1,3.725,2.234c1.472.934,2.918,1.907,4.388,2.847a57.427,57.427,0,0,0,5.814,2.911,3.054,3.054,0,0,0,4.214-4.049Z" transform="translate(-371.965 100.29)" fill="#4d4962"/>
        </g>
      </g>
      <g id="Grupo_103" data-name="Grupo 103" transform="translate(155.451 746.586)">
        <path id="Trazado_45" data-name="Trazado 45" d="M91.071,259.593c10.757-.8,21.415-2.546,33.585-2.1s19.314-4.632,19.746-13.027c.594-11.558-6.73-24.073-14.806-39.324-7.727-14.593-14.678-7.808-25.666-7.573s-18.346-.633-20.987,11.8C77.1,236.88,70.457,261.12,91.071,259.593Z" transform="translate(-35.383 -121.837)" fill="#00c5a7"/>
        <g id="Grupo_26" data-name="Grupo 26" transform="translate(17.995 134.899)">
          <path id="Trazado_46" data-name="Trazado 46" d="M50.565,341.553a.307.307,0,0,1-.132-.04c-1.54-.99-6.016-5.548-7.383-3.894s7.034,9.968,9.631,8.272c.227-.148.579-.366,1.031-.644A11.864,11.864,0,0,0,50.565,341.553Z" transform="translate(-42.9 -300.103)" fill="#28285c"/>
          <path id="Trazado_47" data-name="Trazado 47" d="M84.049,320.7a64.378,64.378,0,0,1-6.38-3.387c-9.631,10.1-21.955,18.324-23.715,18.127a11.865,11.865,0,0,1,3.146,3.695A259.915,259.915,0,0,0,82.716,321.7C83.153,321.355,83.6,321.023,84.049,320.7Z" transform="translate(-46.288 -293.987)" fill="#f7c8ae"/>
          <path id="Trazado_48" data-name="Trazado 48" d="M188.306,326.128s-9.835-9.946-17.636-18.236a40.706,40.706,0,0,1-5.127,5.739,32.81,32.81,0,0,1,3.87,2.668c6.7,5.39,14.275,11.429,17.408,13.723a8.624,8.624,0,0,0,1.566-3.984Z" transform="translate(-80.496 -291.1)" fill="#f7c8ae"/>
          <path id="Trazado_49" data-name="Trazado 49" d="M204.015,326.458c-1.086-.346-5.587,4.566-6.222,5.267a8.624,8.624,0,0,1-1.566,3.984c.53.388.936.672,1.186.825C200.568,338.462,205.183,326.831,204.015,326.458Z" transform="translate(-89.902 -296.786)" fill="#28285c"/>
          <path id="Trazado_50" data-name="Trazado 50" d="M138.332,290.836a33.245,33.245,0,0,1-3.186-7.159c-11.339,3.924-23.586,4.892-35.926,4.625a24.9,24.9,0,0,1-2.336,7.372A59.233,59.233,0,0,1,88.152,307a64.407,64.407,0,0,0,6.38,3.387,40.789,40.789,0,0,1,19.372-7.48c1.562-.175,3.376-.455,5.258-.79a33.126,33.126,0,0,1,22.656,4.09,40.746,40.746,0,0,0,5.127-5.739C143.119,296.4,139.781,292.736,138.332,290.836Z" transform="translate(-56.772 -283.677)" fill="#28285c"/>
        </g>
        <path id="Trazado_51" data-name="Trazado 51" d="M200.34,161.368c-.268-.849-2.618.569-2.618.569s1.871-2.584,1.341-2.958-2.723,1.487-2.723,1.487,1.218-3.2.434-3.2-2.127,2.263-2.127,2.263.382-3.112-.367-2.928-2.577,4.435-2.589,4.461v0s-1.275-1.711-1.682-1.092c-.289.438.15,2.121.432,3.069a91.8,91.8,0,0,1-15.73,17.8c-13.03,11.543-35.941,14.151-35.941,14.151l.053.6a23.193,23.193,0,0,0,2.189,7.979h0c35.2-2.135,50.989-27.12,55.791-36.523h0C197.9,164.993,200.451,161.721,200.34,161.368Z" transform="translate(-54.294 -109.82)" fill="#f7c8ae"/>
        <path id="Trazado_52" data-name="Trazado 52" d="M16.956,159.063c.332-.827,2.568.766,2.568.766s-1.67-2.718-1.114-3.051,2.6,1.689,2.6,1.689-.972-3.279-.191-3.224,1.949,2.417,1.949,2.417-.146-3.131.587-2.892,2.234,4.616,2.243,4.643v0s1.4-1.61,1.76-.963c.255.459-.31,2.1-.663,3.027a91.78,91.78,0,0,0,14.34,18.937c12.119,12.5,34.532,16.938,34.532,16.938l-.02.377a17.313,17.313,0,0,1-2.514,8.1h0c-34.942-4.79-48.905-31.1-52.982-40.839v0C19.115,162.862,16.818,159.406,16.956,159.063Z" transform="translate(-16.95 -109.257)" fill="#f7c8ae"/>
        <path id="Trazado_53" data-name="Trazado 53" d="M122.518,220.358l10.7-1.813a.644.644,0,0,0,.528-.491c.84-3.928-.829-10.025-1.441-12.047a.642.642,0,0,0-.863-.407,88.442,88.442,0,0,1-19.344,5.227s-3.012,1.583-10.727,1.157c-11.354-.626-18.841-3.65-20.079-4.385a.654.654,0,0,0-.847.163c-2.513,3.125-3.343,9.31-3.544,11.2a.645.645,0,0,0,.5.7c4.293,1.014,15.669,3.009,15.673,3.008.874,13.2-.093,34.2-2.817,48.792,15.268.329,32.952-1.159,46.981-6.014C132.686,252.781,125.994,233.422,122.518,220.358Z" transform="translate(-35.329 -124.828)" fill="#d45d67"/>
        <g id="Grupo_27" data-name="Grupo 27" transform="translate(66.024 76.909)">
          <path id="Trazado_54" data-name="Trazado 54" d="M122.912,209.141s-2.81-.861-3.512-6.254c-.856-6.582-5.924.361-5.924.361s1.9,4.8-1.313,7.053c0,0,.841,4.229,4.377,4.7S123.091,211.741,122.912,209.141Z" transform="translate(-112.162 -200.052)" fill="#eaa896"/>
        </g>
        <path id="Trazado_55" data-name="Trazado 55" d="M132.258,204.386c1.408,7.027,6.581,28.094,20.8,46.463a2.572,2.572,0,0,0,3.686.408l.643-.539a2.557,2.557,0,0,0,.393-3.515c-4.179-5.453-15.8-22.117-20.186-43.906a2.555,2.555,0,0,0-3.1-1.974l-.316.076A2.558,2.558,0,0,0,132.258,204.386Z" transform="translate(-52.283 -123.511)" fill="#28285c"/>
        <path id="Trazado_56" data-name="Trazado 56" d="M98.442,206.347c.822,7.026,2.436,28.763-5.472,50.715a2.568,2.568,0,0,1-3.376,1.51l-.761-.308a2.558,2.558,0,0,1-1.45-3.241c2.361-6.507,8.466-26.027,5.974-48.08a2.56,2.56,0,0,1,2.439-2.851h0A2.557,2.557,0,0,1,98.442,206.347Z" transform="translate(-38.495 -124.381)" fill="#28285c"/>
        <g id="Grupo_42" data-name="Grupo 42" transform="translate(21.123 0)">
          <g id="Grupo_30" data-name="Grupo 30">
            <g id="Grupo_28" data-name="Grupo 28" transform="translate(0 37.976)">
              <path id="Trazado_57" data-name="Trazado 57" d="M70.274,156.854a4.893,4.893,0,0,0-5.247-4.511l-8.3.626a10.077,10.077,0,1,0,1.516,20.1l8.3-.626a4.893,4.893,0,0,0,4.511-5.247Z" transform="translate(-47.411 -146.489)" fill="#eaa896"/>
              <path id="Trazado_58" data-name="Trazado 58" d="M175.321,153.227h0a10.077,10.077,0,0,0-10.807-9.291l-8.3.625a4.893,4.893,0,0,0-4.511,5.247l.779,10.339a4.893,4.893,0,0,0,5.247,4.511l8.3-.625A10.077,10.077,0,0,0,175.321,153.227Z" transform="translate(-79.379 -143.907)" fill="#eaa896"/>
            </g>
            <g id="Grupo_29" data-name="Grupo 29" transform="translate(8.881 15.523)">
              <path id="Trazado_59" data-name="Trazado 59" d="M138.08,147.583c1.619,21.47-15.34,28.691-36.81,30.31s-39.321-2.976-40.94-24.445a38.985,38.985,0,0,1,77.749-5.865Z" transform="translate(-60.218 -111.529)" fill="#f7c8ae"/>
            </g>
            <path id="Trazado_60" data-name="Trazado 60" d="M125.053,107.13s8.153-3.356,5.3-9.719-20.27,2.625-20.27,2.625,6.68-5.927,1.463-9.675S85.674,91.422,78.2,106.168c0,0,1.777-5.506-1.494-5.259s-3.953,8.156-3.953,8.156-4.371-2.229-7.395,1.288,3.351,3.239,3.351,3.239-7.262,7.1-7.384,19.916a2.014,2.014,0,0,0,2.164,2.026h0a2.005,2.005,0,0,0,1.852-1.825c.454-5.372,2.423-14.256,10.328-17.006a23.241,23.241,0,0,1,14.621.01,25.437,25.437,0,0,0,15.721-.191c4.752-1.619,10.773-2.738,15.858-.746,6.219,2.437,8.459,8.316,9.262,12.516a2.39,2.39,0,0,0,2.523,1.949h0a2.384,2.384,0,0,0,2.174-2.747A35.646,35.646,0,0,0,125.053,107.13Z" transform="translate(-51.676 -89.144)" fill="#d45d67"/>
          </g>
          <g id="Grupo_35" data-name="Grupo 35" transform="translate(20.63 37.434)">
            <g id="Grupo_33" data-name="Grupo 33" transform="translate(0 2.788)">
              <g id="Grupo_32" data-name="Grupo 32">
                <g id="Grupo_31" data-name="Grupo 31">
                  <path id="Trazado_61" data-name="Trazado 61" d="M92.019,156.427a1.674,1.674,0,0,1-1.8-1.543,4.751,4.751,0,0,0-5.09-4.376l-.236.017a4.752,4.752,0,0,0-4.376,5.09,1.674,1.674,0,0,1-3.338.252,8.1,8.1,0,0,1,7.462-8.68l.236-.018a8.1,8.1,0,0,1,8.68,7.462A1.674,1.674,0,0,1,92.019,156.427Z" transform="translate(-77.161 -147.147)" fill="#28285c"/>
                </g>
              </g>
            </g>
            <g id="Grupo_34" data-name="Grupo 34" transform="translate(36.954)">
              <path id="Trazado_62" data-name="Trazado 62" d="M145.31,152.407a1.674,1.674,0,0,1-1.8-1.543,4.751,4.751,0,0,0-5.09-4.376l-.236.017a4.753,4.753,0,0,0-4.376,5.091,1.674,1.674,0,1,1-3.338.252,8.1,8.1,0,0,1,7.462-8.68l.236-.018a8.1,8.1,0,0,1,8.68,7.462A1.674,1.674,0,0,1,145.31,152.407Z" transform="translate(-130.451 -143.127)" fill="#28285c"/>
            </g>
          </g>
          <path id="Trazado_63" data-name="Trazado 63" d="M80.849,140.108c2.121-1.439,6.512-3.781,3.817-5.588s-8.887,2.315-8.81,5.05S80.849,140.108,80.849,140.108Z" transform="translate(-56.131 -102.918)" fill="#d45d67"/>
          <path id="Trazado_64" data-name="Trazado 64" d="M141.9,135.645c-2.312-1.1-7.005-2.761-4.612-4.951s9.133.956,9.468,3.672S141.9,135.645,141.9,135.645Z" transform="translate(-74.76 -101.656)" fill="#d45d67"/>
          <g id="Grupo_41" data-name="Grupo 41" transform="translate(27.454 53.479)">
            <g id="Grupo_38" data-name="Grupo 38">
              <g id="Grupo_37" data-name="Grupo 37">
                <g id="Grupo_36" data-name="Grupo 36">
                  <path id="Trazado_65" data-name="Trazado 65" d="M87.129,173.191a20.647,20.647,0,0,0,6.178,9.872,20.623,20.623,0,0,1,14.355-7.414l.763-.058a20.623,20.623,0,0,1,15.305,5.177,20.65,20.65,0,0,0,4.627-10.687,3.4,3.4,0,0,0-3.634-3.806l-34.572,2.608A3.4,3.4,0,0,0,87.129,173.191Z" transform="translate(-87.002 -166.265)" fill="#28285c"/>
                </g>
              </g>
            </g>
            <g id="Grupo_40" data-name="Grupo 40" transform="translate(6.305 9.267)">
              <g id="Grupo_39" data-name="Grupo 39">
                <path id="Trazado_66" data-name="Trazado 66" d="M111.212,179.688l-.763.058a20.623,20.623,0,0,0-14.355,7.414,20.626,20.626,0,0,0,15.305,5.177l.762-.058a20.624,20.624,0,0,0,14.356-7.414A20.623,20.623,0,0,0,111.212,179.688Z" transform="translate(-96.094 -179.628)" fill="#d45d67"/>
              </g>
            </g>
          </g>
          <path id="Trazado_67" data-name="Trazado 67" d="M117.831,158.311c2.752-1.764,4.589-5.8,1.723-6.839a4.189,4.189,0,0,0-4.618,1.095s-.551-6.1-2.925-4.911C108.787,149.268,109.057,163.934,117.831,158.311Z" transform="translate(-66.635 -107.034)" fill="#ea9c87"/>
        </g>
      </g>
      <g id="Grupo_118" data-name="Grupo 118" transform="translate(-98.853 363.04)">
        <path id="Trazado_265" data-name="Trazado 265" d="M366.129,506.384c42.476,13.151,115.318,25.053,120.136,33.228s-24.873,35.5-37.839,46.818c-18.081,15.776-36.493,26.943-53.645,43.7-1.966,1.912-4.357,5.89-1.769,7.573a2.8,2.8,0,0,0,2.33,1.634c28.792,5.619,114.806,11.351,121.661-3.222,18.706-39.782,44.065-104.582,45.327-121.5.906-12.124-73.7-31.339-106.975-36.09-10.6-1.512,54.676-78.331,64.581-100.972,2.115-4.851-4.283-4.887-6.725-3.11-46.684,34.03-103.368,89.611-144.166,122.806C366.625,499.225,361.682,505.008,366.129,506.384Z" transform="translate(-364.339 -373.37)" fill="#99ddc6"/>
        <path id="Trazado_266" data-name="Trazado 266" d="M430.8,452.446c1.052-1.5-.776-5.949-2.2-3.911C427.55,450.034,429.378,454.484,430.8,452.446Z" transform="translate(-264.577 -257.445)" fill="#fffbe9"/>
        <path id="Trazado_267" data-name="Trazado 267" d="M429.85,457.876a4.439,4.439,0,0,0,.1-3.332c-.292-.883-1.057-1.828-2.061-1.353.251-.212.079-.094-.125.061a2.12,2.12,0,0,1-.2.092.8.8,0,0,0-.364.516,3.677,3.677,0,0,0-.062,3.916C427.846,459.035,429.2,459.316,429.85,457.876Z" transform="translate(-267.21 -249.597)" fill="#fffbe9"/>
        <path id="Trazado_268" data-name="Trazado 268" d="M426.02,456.852c-.161.36-.143.383.061.077,1-1.248.63-3.442-.09-4.708-.835-1.481-2.534-1.912-3.282-.12a5.006,5.006,0,0,0-.392,2.257C422.452,456.144,424.482,459.928,426.02,456.852Z" transform="translate(-273.907 -252.92)" fill="#fffbe9"/>
        <path id="Trazado_269" data-name="Trazado 269" d="M428.276,452.224c.123-.722-.54-3.63-1.83-2.63-.909.7-.691,1.547-.392,2.54C426.454,453.493,428.013,453.84,428.276,452.224Z" transform="translate(-268.468 -255.308)" fill="#fffbe9"/>
        <path id="Trazado_270" data-name="Trazado 270" d="M425.861,443.488c.177-.038.348-.082.525-.115,1.769-.4,1.318-3.3.694-4.4-.9-1.588-2.58-1.317-2.862.5-.046.271-.084.546-.128.817C423.946,441.21,424.394,443.822,425.861,443.488Z" transform="translate(-271.167 -273.096)" fill="#fffbe9"/>
        <path id="Trazado_271" data-name="Trazado 271" d="M434.945,433.958c.983-1.4-.722-5.568-2.061-3.661C431.9,431.7,433.609,435.86,434.945,433.958Z" transform="translate(-257.861 -285.719)" fill="#fffbe9"/>
        <path id="Trazado_272" data-name="Trazado 272" d="M431.235,431.356c.978-1.4-.724-5.561-2.061-3.653C428.191,429.1,429.9,433.266,431.235,431.356Z" transform="translate(-263.651 -289.748)" fill="#fffbe9"/>
        <path id="Trazado_273" data-name="Trazado 273" d="M433.646,431.507c.123.023.246.036.369.059a.94.94,0,0,0,1.029-.426,3.686,3.686,0,0,0,.294-3.3A1.476,1.476,0,0,0,434,426.646l-.22-.008a1,1,0,0,0-.643.439,3.143,3.143,0,0,0-.466,1.34,1.373,1.373,0,0,0-.043.352c-.018.245-.038.5-.069.781C432.489,430.187,432.717,431.619,433.646,431.507Z" transform="translate(-257.937 -290.639)" fill="#fffbe9"/>
        <path id="Trazado_274" data-name="Trazado 274" d="M395.4,471.147a2.713,2.713,0,0,0,.781-2.908c-.287-.922-.875-2.7-2.2-2.466-1.551.276-1.349,2.77-.986,3.8C393.3,470.435,394.3,471.905,395.4,471.147Z" transform="translate(-320.038 -229.892)" fill="#fffbe9"/>
        <path id="Trazado_275" data-name="Trazado 275" d="M391.3,474.475a4.1,4.1,0,0,0,.218-3.368c-.246-.687-1.055-2.122-2.033-1.808a4.547,4.547,0,0,0-1.306.669c-1.421,1.008-1,4.4.507,5.18C389.752,475.7,390.684,475.632,391.3,474.475Z" transform="translate(-328.509 -224.45)" fill="#fffbe9"/>
        <path id="Trazado_276" data-name="Trazado 276" d="M395.316,475.362a3.748,3.748,0,0,0-.067-3.75c-.479-.848-1.631-1.624-2.373-.567a3.751,3.751,0,0,0,.077,3.748C393.429,475.638,394.578,476.417,395.316,475.362Z" transform="translate(-320.553 -222.465)" fill="#fffbe9"/>
        <path id="Trazado_277" data-name="Trazado 277" d="M402.245,472.033c.845-1.21-.63-4.807-1.782-3.158C399.614,470.082,401.091,473.677,402.245,472.033Z" transform="translate(-308.377 -225.702)" fill="#fffbe9"/>
        <path id="Trazado_278" data-name="Trazado 278" d="M401.77,467.414c.955-.276,1.183-.919,1.569-1.749a4.488,4.488,0,0,0-.773-4.356,1.455,1.455,0,0,0-2.621.465,5.764,5.764,0,0,0,.02,4.031C400.2,466.439,400.879,467.669,401.77,467.414Z" transform="translate(-309.345 -237.778)" fill="#fffbe9"/>
        <path id="Trazado_279" data-name="Trazado 279" d="M399.367,472.062c.033,0,.064.008.1.01,2.842.48,2.327-5.964-.579-6.074a2,2,0,0,0-.87.3c-1,.454-1.07,1.718-.76,2.923a3.839,3.839,0,0,0,.189.786,3.665,3.665,0,0,0,.666,1.18c.023.023.056.041.077.061A1.874,1.874,0,0,0,399.367,472.062Z" transform="translate(-313.238 -229.51)" fill="#fffbe9"/>
        <path id="Trazado_280" data-name="Trazado 280" d="M406.806,469.606a3.325,3.325,0,0,0,.195-1.19c-.026-.82-1.106-3.47-2.191-1.966-.712.991-.356,3.26.945,3.643-.036-.01-.072-.015-.105-.023C406.095,470.449,406.648,470.058,406.806,469.606Z" transform="translate(-301.767 -229.51)" fill="#fffbe9"/>
        <path id="Trazado_281" data-name="Trazado 281" d="M401.677,432.417a4.856,4.856,0,0,0-.09-4.836c-.619-1.088-2.1-2.088-3.057-.733a4.838,4.838,0,0,0,.095,4.833C399.24,432.769,400.722,433.772,401.677,432.417Z" transform="translate(-311.946 -291.329)" fill="#fffbe9"/>
        <path id="Trazado_282" data-name="Trazado 282" d="M394.918,425.869a1,1,0,0,0,.064-.128,3.9,3.9,0,0,0-1.121-4.325c-1.393-.95-2.25.973-2.174,2.109,0,.059.01.115.018.176C391.81,425.228,393.62,428.583,394.918,425.869Z" transform="translate(-321.683 -299.145)" fill="#fffbe9"/>
        <path id="Trazado_283" data-name="Trazado 283" d="M397.248,431.806a4.783,4.783,0,0,0-.957-3.7,1.428,1.428,0,0,0-2.445.158c-1.321.4-.735,3.449-.34,4.151C394.68,434.487,396.938,434.454,397.248,431.806Z" transform="translate(-319.582 -289.305)" fill="#fffbe9"/>
        <path id="Trazado_284" data-name="Trazado 284" d="M396.3,427.033c.3.784.8,1.517,1.521,1.249.092-.036.184-.072.284-.1,1.546-.572,1.075-3.276-.056-4.054-.095-.069-.192-.13-.289-.2-1.162-.8-1.784.82-1.772,1.711a4.116,4.116,0,0,0,.095.659c-.013-.013-.023-.031-.036-.041A4.3,4.3,0,0,0,396.3,427.033Z" transform="translate(-314.971 -295.188)" fill="#fffbe9"/>
        <path id="Trazado_285" data-name="Trazado 285" d="M378.445,429.312l.092.026c1.731.513,1.992-2.305,1.784-3.327a.452.452,0,0,0-.018-.1c-.2-.993-.722-2.369-1.843-2.66a1.1,1.1,0,0,0-.73.059C375.893,423.716,376.361,428.694,378.445,429.312Z" transform="translate(-345.236 -295.956)" fill="#fffbe9"/>
        <path id="Trazado_286" data-name="Trazado 286" d="M374.555,425.426a.588.588,0,0,0,.33-.242c1.812-1.764-.433-6.919-2.13-4.713l.031-.043C371.024,421.543,372.243,426.416,374.555,425.426Z" transform="translate(-352.469 -301.056)" fill="#fffbe9"/>
        <path id="Trazado_287" data-name="Trazado 287" d="M380.278,421.256c1.444-.633.671-2.15-.246-2.893-.86-.71-1.2,1.637-.353,2.16l.026.01C379.681,420.881,379.884,421.43,380.278,421.256Z" transform="translate(-341.173 -303.696)" fill="#fffbe9"/>
        <path id="Trazado_288" data-name="Trazado 288" d="M382.074,426.707c.338.327.781.615,1.244.3a2.23,2.23,0,0,0,.737-2.05,3.036,3.036,0,0,0-1.587-2.875,1.919,1.919,0,0,0-.934,0c-1.3-.151-1.2,1.984-.707,2.691,0-.46.061-.337.174.365.13.3.271.6.425.9C381.565,426.319,383.078,427.682,382.074,426.707Z" transform="translate(-339.14 -297.815)" fill="#fffbe9"/>
        <path id="Trazado_289" data-name="Trazado 289" d="M409.878,393.187c.863.222,1.244-.426,1.375-1.218a1.863,1.863,0,0,0,.108-.781,2.471,2.471,0,0,0-.079-.508,3.55,3.55,0,0,0-.148-.768,2.608,2.608,0,0,0-.973-1.34c-.43-.363-.922-.416-1.408.278C407.947,390,408.3,392.774,409.878,393.187Z" transform="translate(-295.706 -350.167)" fill="#fffbe9"/>
        <path id="Trazado_290" data-name="Trazado 290" d="M407.912,398.217c.044-.125.09-.253.133-.38.435-1.238-.343-6.107-2.583-4.585-.082.056-.164.115-.243.169-1.408.952-1,3.467-.31,4.69C405.631,399.389,407.31,399.93,407.912,398.217Z" transform="translate(-302.037 -342.944)" fill="#fffbe9"/>
        <path id="Trazado_291" data-name="Trazado 291" d="M409.438,396.581c.3-.656-.371-3.551-1.449-2.576-.878.8-1.636,1.935-1.075,3.191a1.9,1.9,0,0,0,.612.771C408.591,398.909,409.2,397.13,409.438,396.581Z" transform="translate(-298.221 -341.63)" fill="#fffbe9"/>
        <path id="Trazado_292" data-name="Trazado 292" d="M405.684,404.5a5.37,5.37,0,0,0,.525-2.127c-.008-.13-.018-.2-.023-.3a15.073,15.073,0,0,1,.323-1.494c.151-.615-.284-1.953-1.111-1.591a2.021,2.021,0,0,1-1.69-.2c-2.412-.942-2.2,3.738-1.833,4.782C402.5,405.333,404.691,406.954,405.684,404.5Z" transform="translate(-306.133 -334.08)" fill="#fffbe9"/>
        <path id="Trazado_293" data-name="Trazado 293" d="M399.249,400.461c.2.01.407.026.612.043,1.3.1,1.213-1.958.709-2.694-.151-.217-.3-.437-.448-.661C398.087,394.073,396.82,400.346,399.249,400.461Z" transform="translate(-311.952 -337.754)" fill="#fffbe9"/>
        <path id="Trazado_294" data-name="Trazado 294" d="M397.364,404.469a3,3,0,0,0-.486-4.427c-1.062-.643-1.288.8-1.126,1.772a2.064,2.064,0,0,0-.087.23C395.28,402.94,396.217,405.832,397.364,404.469Z" transform="translate(-315.607 -332.192)" fill="#fffbe9"/>
        <path id="Trazado_295" data-name="Trazado 295" d="M417.666,479.095c.1-.074.207-.148.31-.22,1.334-.968.98-3.337.292-4.562-.717-1.266-2.309-1.754-2.921-.1-.054.156-.113.3-.172.46C414.743,475.832,415.555,480.616,417.666,479.095Z" transform="translate(-285.209 -218.392)" fill="#fffbe9"/>
      </g>
    </g>
  </g>
</svg>
