<svg xmlns="http://www.w3.org/2000/svg" width="210.613" height="260.889" viewBox="0 0 210.613 260.889">
  <g id="Group_90" data-name="Group 90" transform="translate(-16.95 -89.144)">
    <path id="Path_45" data-name="Path 45" d="M97.257,287.8c15.512-1.149,30.882-3.671,48.432-3.025s27.852-6.68,28.475-18.786c.857-16.667-9.705-34.715-21.351-56.708-11.143-21.044-21.166-11.26-37.012-10.921s-26.456-.913-30.264,17.015C77.111,255.043,67.53,290,97.257,287.8Z" fill="#00c5a7"/>
    <g id="Group_26" data-name="Group 26">
      <path id="Path_46" data-name="Path 46" d="M53.953,343.45a.444.444,0,0,1-.191-.057c-2.221-1.428-8.676-8-10.647-5.616S53.258,352.151,57,349.706c.327-.213.835-.528,1.487-.928A17.11,17.11,0,0,0,53.953,343.45Z" fill="#28285c"/>
      <path id="Path_47" data-name="Path 47" d="M97.353,322.2a92.846,92.846,0,0,1-9.2-4.885c-13.888,14.566-31.661,26.424-34.2,26.14a17.11,17.11,0,0,1,4.537,5.328,374.839,374.839,0,0,0,36.941-25.139C96.062,323.143,96.7,322.664,97.353,322.2Z" fill="#f7c8ae"/>
      <path id="Path_48" data-name="Path 48" d="M198.369,334.189s-14.182-14.343-25.433-26.3a58.687,58.687,0,0,1-7.394,8.276,47.33,47.33,0,0,1,5.581,3.848c9.662,7.773,20.586,16.481,25.1,19.79a12.437,12.437,0,0,0,2.259-5.745Z" fill="#f7c8ae"/>
      <path id="Path_49" data-name="Path 49" d="M207.458,326.466c-1.566-.5-8.057,6.584-8.973,7.6a12.437,12.437,0,0,1-2.259,5.745c.764.559,1.35.969,1.71,1.189C202.488,343.776,209.143,327,207.458,326.466Z" fill="#28285c"/>
      <path id="Path_50" data-name="Path 50" d="M160.515,294c-1.19-1.561-2.787-5.3-4.6-10.324-16.351,5.658-34.013,7.054-51.807,6.67a35.9,35.9,0,0,1-3.368,10.631A85.419,85.419,0,0,1,88.152,317.31a92.846,92.846,0,0,0,9.2,4.885,58.82,58.82,0,0,1,27.936-10.786c2.253-.252,4.869-.657,7.582-1.139a47.771,47.771,0,0,1,32.671,5.9,58.749,58.749,0,0,0,7.394-8.276C167.418,302.029,162.6,296.74,160.515,294Z" fill="#28285c"/>
    </g>
    <path id="Path_51" data-name="Path 51" d="M227.558,163.479c-.387-1.224-3.776.821-3.776.821s2.7-3.726,1.934-4.265-3.926,2.144-3.926,2.144,1.756-4.609.626-4.615-3.067,3.263-3.067,3.263.551-4.487-.529-4.223-3.716,6.395-3.733,6.433v0s-1.838-2.468-2.426-1.575c-.417.632.216,3.058.623,4.425A132.378,132.378,0,0,1,190.6,191.556c-18.79,16.646-51.83,20.406-51.83,20.406l.076.868A33.447,33.447,0,0,0,142,224.336h0c50.767-3.079,73.53-39.109,80.454-52.668v0C224.04,168.707,227.719,163.988,227.558,163.479Z" fill="#f7c8ae"/>
    <path id="Path_52" data-name="Path 52" d="M16.959,160.968c.479-1.192,3.7,1.1,3.7,1.1s-2.408-3.92-1.606-4.4,3.753,2.435,3.753,2.435-1.4-4.729-.275-4.649,2.811,3.485,2.811,3.485-.211-4.515.847-4.17,3.222,6.657,3.235,6.7l0,0c0-.005,2.019-2.322,2.538-1.388.368.662-.447,3.033-.956,4.365A132.353,132.353,0,0,0,51.69,191.758c17.477,18.019,49.8,24.426,49.8,24.426l-.029.543a24.967,24.967,0,0,1-3.626,11.684h0c-50.389-6.908-70.525-44.849-76.4-58.892l0,0C20.072,166.446,16.76,161.463,16.959,160.968Z" fill="#f7c8ae"/>
    <path id="Path_53" data-name="Path 53" d="M142.683,226.9l15.437-2.614a.928.928,0,0,0,.762-.708c1.211-5.665-1.2-14.457-2.078-17.373a.926.926,0,0,0-1.245-.587c-8.238,3.366-20.986,6.792-27.9,7.537,0,0-4.344,2.283-15.469,1.669-16.373-.9-27.17-5.264-28.955-6.323a.943.943,0,0,0-1.221.235c-3.624,4.506-4.821,13.426-5.11,16.154a.93.93,0,0,0,.715,1.005c6.191,1.463,22.6,4.339,22.6,4.338,1.26,19.034-.134,49.319-4.063,70.361,22.017.474,47.519-1.672,67.75-8.673C157.346,273.66,147.7,245.743,142.683,226.9Z" fill="#d45d67"/>
    <g id="Group_27" data-name="Group 27">
      <path id="Path_54" data-name="Path 54" d="M127.664,213.159s-4.052-1.241-5.065-9.019c-1.235-9.492-8.543.521-8.543.521s2.741,6.927-1.894,10.171c0,0,1.213,6.1,6.312,6.777S127.923,216.908,127.664,213.159Z" fill="#eaa896"/>
    </g>
    <path id="Path_55" data-name="Path 55" d="M132.28,205.771c2.03,10.134,9.491,40.514,29.993,67a3.708,3.708,0,0,0,5.315.588l.927-.777a3.687,3.687,0,0,0,.567-5.069c-6.026-7.863-22.787-31.894-29.109-63.315a3.684,3.684,0,0,0-4.474-2.846l-.456.109A3.688,3.688,0,0,0,132.28,205.771Z" fill="#28285c"/>
    <path id="Path_56" data-name="Path 56" d="M103.4,207.345c1.185,10.132,3.513,41.478-7.891,73.135a3.7,3.7,0,0,1-4.869,2.177l-1.1-.444a3.689,3.689,0,0,1-2.091-4.673c3.405-9.383,12.209-37.533,8.615-69.334a3.692,3.692,0,0,1,3.517-4.112h0A3.687,3.687,0,0,1,103.4,207.345Z" fill="#28285c"/>
    <g id="Group_42" data-name="Group 42">
      <g id="Group_30" data-name="Group 30">
        <g id="Group_28" data-name="Group 28">
          <path id="Path_57" data-name="Path 57" d="M80.381,158.854a7.056,7.056,0,0,0-7.566-6.505l-11.964.9a14.532,14.532,0,1,0,2.186,28.982l11.964-.9a7.056,7.056,0,0,0,6.5-7.566Z" fill="#eaa896"/>
          <path id="Path_58" data-name="Path 58" d="M185.766,157.347h0a14.532,14.532,0,0,0-15.584-13.4l-11.963.9a7.056,7.056,0,0,0-6.5,7.567l1.124,14.91a7.056,7.056,0,0,0,7.567,6.5l11.963-.9A14.532,14.532,0,0,0,185.766,157.347Z" fill="#eaa896"/>
        </g>
        <g id="Group_29" data-name="Group 29">
          <path id="Path_59" data-name="Path 59" d="M172.5,163.522c2.335,30.961-22.121,41.374-53.082,43.709s-56.7-4.291-59.038-35.252a56.219,56.219,0,0,1,112.12-8.457Z" fill="#f7c8ae"/>
        </g>
        <path id="Path_60" data-name="Path 60" d="M153.226,115.081s11.757-4.84,7.639-14.016-29.23,3.786-29.23,3.786,9.633-8.547,2.11-13.952-37.306,1.53-48.087,22.795c0,0,2.563-7.94-2.154-7.584s-5.7,11.762-5.7,11.762-6.3-3.214-10.664,1.858,4.832,4.671,4.832,4.671S61.5,134.637,61.323,153.121a2.9,2.9,0,0,0,3.121,2.921h0a2.892,2.892,0,0,0,2.67-2.632c.654-7.747,3.494-20.558,14.894-24.524a33.516,33.516,0,0,1,21.085.015,36.682,36.682,0,0,0,22.671-.275c6.852-2.334,15.536-3.949,22.868-1.076,8.968,3.514,12.2,11.992,13.356,18.049a3.447,3.447,0,0,0,3.639,2.81h0a3.438,3.438,0,0,0,3.135-3.961A51.4,51.4,0,0,0,153.226,115.081Z" fill="#d45d67"/>
      </g>
      <g id="Group_35" data-name="Group 35">
        <g id="Group_33" data-name="Group 33">
          <g id="Group_32" data-name="Group 32">
            <g id="Group_31" data-name="Group 31">
              <path id="Path_61" data-name="Path 61" d="M98.588,160.529A2.414,2.414,0,0,1,96,158.3a6.851,6.851,0,0,0-7.34-6.31l-.341.025a6.853,6.853,0,0,0-6.31,7.34,2.414,2.414,0,0,1-4.814.364,11.685,11.685,0,0,1,10.761-12.517l.341-.026a11.685,11.685,0,0,1,12.517,10.761A2.413,2.413,0,0,1,98.588,160.529Z" fill="#28285c"/>
            </g>
          </g>
        </g>
        <g id="Group_34" data-name="Group 34">
          <path id="Path_62" data-name="Path 62" d="M151.879,156.509a2.414,2.414,0,0,1-2.589-2.225,6.852,6.852,0,0,0-7.34-6.31l-.341.025a6.854,6.854,0,0,0-6.311,7.341,2.413,2.413,0,0,1-4.813.363,11.684,11.684,0,0,1,10.761-12.517l.341-.026A11.685,11.685,0,0,1,154.1,153.921,2.413,2.413,0,0,1,151.879,156.509Z" fill="#28285c"/>
        </g>
      </g>
      <path id="Path_63" data-name="Path 63" d="M83.056,142.774c3.058-2.075,9.391-5.452,5.5-8.058s-12.815,3.339-12.7,7.283S83.056,142.774,83.056,142.774Z" fill="#d45d67"/>
      <path id="Path_64" data-name="Path 64" d="M144.23,138.159c-3.334-1.593-10.1-3.981-6.651-7.14s13.171,1.378,13.653,5.295S144.23,138.159,144.23,138.159Z" fill="#d45d67"/>
      <g id="Group_41" data-name="Group 41">
        <g id="Group_38" data-name="Group 38">
          <g id="Group_37" data-name="Group 37">
            <g id="Group_36" data-name="Group 36">
              <path id="Path_65" data-name="Path 65" d="M87.185,176.253a29.774,29.774,0,0,0,8.909,14.236,29.74,29.74,0,0,1,20.7-10.692l1.1-.083a29.74,29.74,0,0,1,22.071,7.466,29.779,29.779,0,0,0,6.673-15.412,4.91,4.91,0,0,0-5.241-5.489L91.543,170.04A4.909,4.909,0,0,0,87.185,176.253Z" fill="#28285c"/>
            </g>
          </g>
        </g>
        <g id="Group_40" data-name="Group 40">
          <g id="Group_39" data-name="Group 39">
            <path id="Path_66" data-name="Path 66" d="M117.895,179.714l-1.1.083a29.74,29.74,0,0,0-20.7,10.692,29.744,29.744,0,0,0,22.071,7.466l1.1-.083a29.74,29.74,0,0,0,20.7-10.692A29.74,29.74,0,0,0,117.895,179.714Z" fill="#d45d67"/>
          </g>
        </g>
      </g>
      <path id="Path_67" data-name="Path 67" d="M121.24,163.089c3.969-2.544,6.617-8.365,2.484-9.862a6.04,6.04,0,0,0-6.66,1.579s-.794-8.795-4.218-7.082C108.2,150.048,108.587,171.2,121.24,163.089Z" fill="#ea9c87"/>
    </g>
  </g>
</svg>
