<svg xmlns="http://www.w3.org/2000/svg" width="170.275" height="276.344" viewBox="0 0 170.275 276.344">
  <g id="Group_60" data-name="Group 60" transform="translate(-190.13 -178.345)">
    <path id="Path_68" data-name="Path 68" d="M327.023,201.549s18.429,1.131,26.542,25.7c7.9,23.928-7.577,48.866-5.418,65.263s14.033,31.368-.36,53.927S272.858,364.9,241.6,341.045s-30.537-47.693-22.536-64.893,9.4-39.761,9.909-41.509C228.971,234.643,265.135,185.851,327.023,201.549Z" fill="#763154"/>
    <g id="Group_59" data-name="Group 59">
      <path id="Path_69" data-name="Path 69" d="M292.592,380.1c-15.407-2.132-30.586-5.625-48.142-6.094s-27.371-8.435-27.225-20.556c.2-16.687,11.89-34.028,24.909-55.238,12.456-20.294,21.837-9.894,37.63-8.549s26.461.768,29.123,18.9C314.777,348.688,322.119,384.182,292.592,380.1Z" fill="#28285c"/>
      <path id="Path_70" data-name="Path 70" d="M190.162,232.171c.748-1.044,3.334,1.952,3.334,1.952s-1.407-4.38-.514-4.655,3.067,3.257,3.067,3.257-.239-4.927.837-4.581,1.9,4.053,1.9,4.053.868-4.436,1.813-3.85,1.548,7.232,1.552,7.274v0s2.513-1.775,2.8-.744c.2.731-1.156,2.84-1.966,4.013,1.837,6.7,14.471,43.493,16.333,44.944A72.889,72.889,0,0,0,258.1,298.593l-.131.863a33.454,33.454,0,0,1-3.88,11.282h0c-20.663-2.578-32.6-7.106-44.208-16.448-8.494-6.839-16.011-43.87-17.412-52.751v0C191.883,238.232,189.851,232.6,190.162,232.171Z" fill="#f7c8ae"/>
      <path id="Path_71" data-name="Path 71" d="M356.97,365.251v0C354.51,356.6,342.312,318.89,332.33,314.5c-10.142-4.459-19.775-6.294-32.525-5.754l.594,12.9a71.379,71.379,0,0,1,25.546,5.4c2.176.916,18.276,35.656,20.906,42.088-.664,1.263-1.756,3.519-1.469,4.221.4.989,2.681-1.071,2.685-1.075v0c.009.041,1.409,6.568,2.415,7.034s1.338-4.04,1.338-4.04,1.266,3.582,2.376,3.795.28-4.648.28-4.648,2.583,3.245,3.436,2.864-1.07-4.559-1.07-4.559,2.928,2.663,3.545,1.537C360.645,373.8,357.95,368.461,356.97,365.251Z" fill="#f7c8ae"/>
      <path id="Path_72" data-name="Path 72" d="M247.482,369.487s-25.481-6.655-42.468,2.9-1.1,34.755-1.1,34.755-8.542-2.117-10.134.225,10.566,6.543,13.843,3.212c4.205-4.274-4.2-23.955,3.23-28.287s28.034-4.215,45.566,8.525c18.628,13.536,23.444,37.574,11.5,44.74s-17.784,3.716-18.845,7.167-.531,11.413,1.592,11.944,2.123-9.024,2.123-9.024,21.613.53,31.51-10.087,0-51.141,0-51.141Z" fill="#28285c"/>
      <path id="Path_73" data-name="Path 73" d="M251.124,314.319l-15.24-3.589a.928.928,0,0,1-.716-.755c-.849-5.735,2.115-14.364,3.18-17.212a.918.918,0,0,1,1.27-.5c8.009,3.884,19.049,7.86,25.9,9.043h0l29.746,5.136c11.057,1.327,17.33.909,19.388.69a.937.937,0,0,1,1.005.718c1.421,5.607-1.209,14.224-2.081,16.822a.927.927,0,0,1-1.065.614c-6.237-1.248-19.22-4.94-19.224-4.941-1.474,11.3-3.707,28.72-2.625,48.861.694,12.921.065,23.392,3.221,34.647a1.069,1.069,0,0,1-1.255,1.339c-26.762-5.728-21.753-35.6-70.587-37.674C238.02,348.128,244.924,332.8,251.124,314.319Z" fill="#ed7c98"/>
      <g id="Group_44" data-name="Group 44">
        <path id="Path_74" data-name="Path 74" d="M266.985,301.556s4.123-.982,5.627-8.68c1.836-9.4,8.494,1.062,8.494,1.062s-3.176,6.739,1.243,10.271c0,0-1.6,6.008-6.729,6.362S266.489,305.28,266.985,301.556Z" fill="#eaa896"/>
      </g>
      <path id="Path_75" data-name="Path 75" d="M262.847,293.889c-2.669,9.985-12.044,39.83-34.185,64.964a3.711,3.711,0,0,1-5.343.249l-.876-.834a3.689,3.689,0,0,1-.243-5.1c6.513-7.465,24.766-30.383,33.07-61.339a3.684,3.684,0,0,1,4.645-2.557l.449.139A3.686,3.686,0,0,1,262.847,293.889Z" fill="#56479a"/>
      <path id="Path_76" data-name="Path 76" d="M291.571,297.294c-1.827,10.036-6.139,41.171,3.231,73.488a3.7,3.7,0,0,0,4.721,2.481l1.123-.373a3.688,3.688,0,0,0,2.383-4.531c-2.8-9.58-9.8-38.233-4.195-69.741a3.693,3.693,0,0,0-3.249-4.327h0A3.686,3.686,0,0,0,291.571,297.294Z" fill="#56479a"/>
      <g id="Group_58" data-name="Group 58">
        <g id="Group_47" data-name="Group 47">
          <g id="Group_45" data-name="Group 45">
            <path id="Path_77" data-name="Path 77" d="M322.1,253.422a7.056,7.056,0,0,1,8.315-5.516l11.759,2.378a14.533,14.533,0,0,1-5.763,28.488l-11.759-2.379a7.057,7.057,0,0,1-5.517-8.315Z" fill="#eaa896"/>
            <path id="Path_78" data-name="Path 78" d="M217.719,243.061h0A14.531,14.531,0,0,1,234.844,231.7l11.759,2.378a7.056,7.056,0,0,1,5.517,8.315l-2.965,14.656a7.056,7.056,0,0,1-8.315,5.517l-11.759-2.379A14.533,14.533,0,0,1,217.719,243.061Z" fill="#eaa896"/>
          </g>
          <path id="Path_79" data-name="Path 79" d="M337.134,274.562s16.7-12.856,9.709-45.228c-5.042-23.357-25.855-51.639-65.764-47.053S224.52,216.508,225.886,238.6c1.1,17.8,11.248,22.573,11.248,22.573Z" fill="#763154"/>
          <g id="Group_46" data-name="Group 46">
            <path id="Path_80" data-name="Path 80" d="M230.118,246.632c-6.156,30.433,16.82,43.8,47.253,49.954s56.8,2.773,62.953-27.66a56.219,56.219,0,1,0-110.206-22.294Z" fill="#f7c8ae"/>
          </g>
        </g>
        <g id="Group_52" data-name="Group 52">
          <g id="Group_50" data-name="Group 50">
            <g id="Group_49" data-name="Group 49">
              <g id="Group_48" data-name="Group 48">
                <path id="Path_81" data-name="Path 81" d="M303.83,252.827a2.415,2.415,0,0,0,2.845-1.887,6.852,6.852,0,0,1,8.066-5.352l.335.068a6.853,6.853,0,0,1,5.352,8.066,2.413,2.413,0,1,0,4.731.957,11.686,11.686,0,0,0-9.126-13.755l-.335-.068a11.686,11.686,0,0,0-13.755,9.127A2.414,2.414,0,0,0,303.83,252.827Z" fill="#28285c"/>
              </g>
            </g>
          </g>
          <g id="Group_51" data-name="Group 51">
            <path id="Path_82" data-name="Path 82" d="M251.449,242.23a2.414,2.414,0,0,0,2.845-1.887,6.851,6.851,0,0,1,8.065-5.351l.336.067a6.854,6.854,0,0,1,5.352,8.067,2.413,2.413,0,0,0,4.731.957,11.685,11.685,0,0,0-9.126-13.755l-.336-.068a11.685,11.685,0,0,0-13.754,9.126A2.414,2.414,0,0,0,251.449,242.23Z" fill="#28285c"/>
          </g>
        </g>
        <g id="Group_57" data-name="Group 57">
          <g id="Group_55" data-name="Group 55">
            <g id="Group_54" data-name="Group 54">
              <g id="Group_53" data-name="Group 53">
                <path id="Path_83" data-name="Path 83" d="M313.2,269.843a29.78,29.78,0,0,1-10.606,13.022,29.744,29.744,0,0,0-19.216-13.177l-1.08-.218a29.741,29.741,0,0,0-22.827,4.671,29.767,29.767,0,0,1-4.71-16.12,4.908,4.908,0,0,1,5.881-4.8l49,9.913A4.909,4.909,0,0,1,313.2,269.843Z" fill="#28285c"/>
              </g>
            </g>
          </g>
          <g id="Group_56" data-name="Group 56">
            <path id="Path_84" data-name="Path 84" d="M282.294,269.47l1.08.218a29.744,29.744,0,0,1,19.216,13.177,29.742,29.742,0,0,1-22.826,4.671l-1.081-.218a29.744,29.744,0,0,1-19.216-13.177A29.741,29.741,0,0,1,282.294,269.47Z" fill="#d45d67"/>
          </g>
        </g>
      </g>
    </g>
    <path id="Path_85" data-name="Path 85" d="M327.023,210.656s-15.468,17.207-47.068,14.469-40.7-.49-47.8,14.082c0,0-2.806-19.35,10.819-30.5S301.9,184.821,327.023,210.656Z" fill="#763154"/>
    <path id="Path_86" data-name="Path 86" d="M325.029,238.917A2.752,2.752,0,0,0,328.546,235c-1.919-3.246-6.057-7.707-14.016-6.675-9.689,1.256-9.6,8.745.8,7.177C320.092,234.785,321.841,237.338,325.029,238.917Z" fill="#763154"/>
    <path id="Path_87" data-name="Path 87" d="M229.115,253.61s-15.407-20.554-3.307-48.174c10.361-23.648,48.18-36.275,86.583-19.235L288.978,201.68S234.845,200.736,229.115,253.61Z" fill="#763154"/>
    <path id="Path_88" data-name="Path 88" d="M327.212,206.619c-4.152,4.01-21.756,19.45-52.17,25.4a1.29,1.29,0,0,0-.925,1.826l2.907,5.973a1.287,1.287,0,0,0,1.527.673c5.753-1.726,33.807-10.952,51.149-31.389a1.3,1.3,0,0,0-.012-1.685l-.607-.705A1.286,1.286,0,0,0,327.212,206.619Z" fill="#763154"/>
    <path id="Path_89" data-name="Path 89" d="M289.408,249.442s2.382-6.921.338-7.173-3.762,3.961-3.762,3.961-3.623-2.148-5.346.4C278.436,249.875,288.243,254.883,289.408,249.442Z" fill="#ea9c87"/>
  </g>
</svg>
