<svg id="lista" xmlns="http://www.w3.org/2000/svg" width="63.455" height="63.455" viewBox="0 0 63.455 63.455">
  <path id="Path_528" data-name="Path 528" d="M8.923,0a8.923,8.923,0,1,0,8.923,8.923A8.934,8.934,0,0,0,8.923,0Zm0,13.881a4.957,4.957,0,1,1,4.957-4.957A4.963,4.963,0,0,1,8.923,13.881Z" fill="#ff8e7b"/>
  <path id="Path_529" data-name="Path 529" d="M8.923,184a8.923,8.923,0,1,0,8.923,8.923A8.933,8.933,0,0,0,8.923,184Zm0,13.881a4.957,4.957,0,1,1,4.957-4.957A4.963,4.963,0,0,1,8.923,197.881Z" transform="translate(0 -161.196)" fill="#ffcb78"/>
  <path id="Path_530" data-name="Path 530" d="M8.923,368a8.923,8.923,0,1,0,8.923,8.923A8.933,8.933,0,0,0,8.923,368Zm0,13.881a4.957,4.957,0,1,1,4.957-4.957A4.963,4.963,0,0,1,8.923,381.881Z" transform="translate(0 -322.391)" fill="#99ddc6"/>
  <path id="Path_531" data-name="Path 531" d="M184.923,17.847h23.8a8.923,8.923,0,1,0,0-17.847h-23.8a8.923,8.923,0,0,0,0,17.847Zm0-13.881h23.8a4.957,4.957,0,0,1,0,9.915h-23.8a4.957,4.957,0,0,1,0-9.915Z" transform="translate(-154.187)" fill="#ff8e7b"/>
  <path id="Path_532" data-name="Path 532" d="M208.719,184h-23.8a8.923,8.923,0,0,0,0,17.847h23.8a8.923,8.923,0,1,0,0-17.847Zm0,13.881h-23.8a4.957,4.957,0,0,1,0-9.915h23.8a4.957,4.957,0,0,1,0,9.915Z" transform="translate(-154.187 -161.196)" fill="#ffcb78"/>
  <path id="Path_533" data-name="Path 533" d="M208.719,368h-23.8a8.923,8.923,0,0,0,0,17.847h23.8a8.923,8.923,0,1,0,0-17.847Zm0,13.881h-23.8a4.957,4.957,0,1,1,0-9.915h23.8a4.957,4.957,0,1,1,0,9.915Z" transform="translate(-154.187 -322.391)" fill="#99ddc6"/>
</svg>
