<svg xmlns="http://www.w3.org/2000/svg" width="135.422" height="164.298" viewBox="0 0 135.422 164.298">
  <g id="Group_92" data-name="Group 92" transform="translate(-1497.957 -1395.316)">
    <path id="Path_521" data-name="Path 521" d="M208.862,178.463c.537,0,1.072.008,1.6.017,2.216.028,4.427.137,6.638.276q3.374.221,6.749.38c2.135.1,4.258.345,6.391.474,2.195.135,4.381.349,6.572.507a29.216,29.216,0,0,1,7.155,1.118,21.89,21.89,0,0,1,3.534,1.549,11.142,11.142,0,0,1,3.425,2.658,14.074,14.074,0,0,1,1.988,3.12c.527,1.212.979,2.425,1.39,3.675a37.565,37.565,0,0,1,1.439,6.125,60.544,60.544,0,0,1,.585,7.526,50.616,50.616,0,0,1-.379,6.193c-.245,2.471-.427,4.959-.879,7.4a35.9,35.9,0,0,1-1.681,6.348,19.893,19.893,0,0,1-1.713,3.459c-.3.477-.666.92-1.014,1.363a7.505,7.505,0,0,1-.724.847,12.688,12.688,0,0,1-2.3,1.711c-2.347,1.361-5.062,1.7-7.71,1.994-2.2.238-4.4.426-6.617.553s-4.421.139-6.632.152c-2.188.013-4.377.04-6.565.028-2.335-.017-4.667-.053-7-.124-2.11-.063-4.209-.306-6.314-.456-2.2-.152-4.389-.352-6.575-.619-1.509-.185-3.024-.363-4.513-.661-1.11-.221-2.2-.507-3.278-.831-2.786-.837-5.61-1.989-7.526-4.268a16.116,16.116,0,0,1-1.554-2.109,15.641,15.641,0,0,1-1.136-2.435,18.476,18.476,0,0,1-.909-4.316,31.665,31.665,0,0,1,.058-6.226c.166-2.324.472-4.625.787-6.931q.311-2.4.634-4.79c.328-2.663.628-5.327,1.062-7.973a25.522,25.522,0,0,1,.77-3.129,23.22,23.22,0,0,1,1.08-2.874,12.592,12.592,0,0,1,1.732-2.626,13.85,13.85,0,0,1,2.917-2.737l.4-.268.31-.193a21.531,21.531,0,0,1,2.9-1.394,19.1,19.1,0,0,1,7.774-1.665l.079,0a3.2,3.2,0,0,1,1.565-.4c.161-.02.321-.038.48-.056,1.12-.152,2.236-.286,3.364-.355C207.769,178.473,208.315,178.463,208.862,178.463Zm-6.007,9.022c-.323.048-.643.1-.959.172a15.487,15.487,0,0,0-2.153.652,21.572,21.572,0,0,0-3.145,1.71l-.325.221c-.232.215-.449.438-.656.671a11.953,11.953,0,0,0-.807,1.368,29.336,29.336,0,0,0-1,4.245c-.5,4-.807,8.024-1.3,12.025-.273,2.233-.464,4.465-.586,6.71a38.631,38.631,0,0,0-.025,5.236,12.81,12.81,0,0,0,.383,1.43c.164.317.34.624.533.925l.235.235a13.813,13.813,0,0,0,1.469.816,30.5,30.5,0,0,0,4.051,1.254c1.477.344,3,.545,4.493.776,1.827.226,3.655.418,5.481.652,2.261.289,4.518.469,6.794.593,4.5.248,9.007.294,13.507.362a92.929,92.929,0,0,0,12.273-.58,14.408,14.408,0,0,0,2.241-.532c.235-.124.462-.258.684-.4l.328-.334a15.2,15.2,0,0,0,1.179-2.17,39.36,39.36,0,0,0,1.454-6.236c.157-1.351.275-2.7.378-4.063.114-1.482.3-2.957.416-4.442.119-1.541.124-3.069.1-4.615a44.529,44.529,0,0,0-.239-4.486,37.92,37.92,0,0,0-.8-4.313,44.529,44.529,0,0,0-1.254-4.295A9.829,9.829,0,0,0,245,189.95l-.151-.147a15.284,15.284,0,0,0-1.423-.808,18.2,18.2,0,0,0-3.043-.824c-1.6-.15-3.218-.175-4.825-.3-1.857-.145-3.717-.216-5.573-.355-2.168-.16-4.333-.34-6.5-.431-2.085-.084-4.164-.2-6.246-.329l-1.037.033C211.749,186.927,207.282,187.008,202.855,187.485Z" transform="translate(1316.776 1309.917)" fill="#4d4962"/>
    <path id="Path_522" data-name="Path 522" d="M198.67,236c2.14,0,4.285.043,6.423.16,1.072.058,2.143.144,3.216.15,1,.007,1.992.008,2.986.048a37.949,37.949,0,0,1,7.044.847c2.054.476,4.126.867,6.178,1.356,2.509.6,5.206,1.169,7.3,2.758a13.172,13.172,0,0,1,2.021,1.758,10.535,10.535,0,0,1,1.623,2.322,23.234,23.234,0,0,1,1.438,3.713c.558,2,1.057,4.016,1.573,6.027,1.07,4.136,1.746,8.345,2.421,12.56.345,2.165.7,4.329,1.009,6.5.366,2.6.586,5.208.734,7.834.245,4.323.447,8.652.3,12.982-.08,2.415-.171,4.825-.308,7.235a74.864,74.864,0,0,1-.841,7.64,16.768,16.768,0,0,1-1.3,4.222,12.618,12.618,0,0,1-1.867,2.838,11.876,11.876,0,0,1-2.983,2.517,23.827,23.827,0,0,1-3.026,1.511l-.116.051c-.182.079-.364.155-.545.231l-.227.1-.005,0c-1.017.423-2.042.837-3.087,1.191-1.025.348-2.064.661-3.105.955-.653.183-1.3.375-1.959.547a30.751,30.751,0,0,1-4.1.72c-1.04.126-2.089.226-3.134.317a135.372,135.372,0,0,1-13.725.231,89.466,89.466,0,0,1-14.25-1.4,51.611,51.611,0,0,1-6.257-1.561,38.533,38.533,0,0,1-3.9-1.439,12.646,12.646,0,0,1-2.7-1.54,9.622,9.622,0,0,1-2.69-2.793,9.006,9.006,0,0,1-1.042-2.648,30.677,30.677,0,0,1-.507-4.045c-.137-2.1-.179-4.192-.108-6.292.306-9.121.456-18.247.643-27.373.114-5.646.23-11.295.277-16.942a3.18,3.18,0,0,1-.836-2.152,56.735,56.735,0,0,1-.01-6.412c.123-2.451.306-5.058,1.5-7.258a8.679,8.679,0,0,1,3.274-3.6,16.127,16.127,0,0,1,3.291-1.3c.987-.286,1.961-.621,2.966-.846.962-.218,1.948-.439,2.927-.585s1.951-.322,2.928-.481c1.272-.2,2.552-.335,3.838-.451C194.182,236,196.423,236,198.67,236Zm-12.3,7.732q-1.255.188-2.513.363c.184-.025.369-.05.553-.076-.98.172-1.941.4-2.9.666-.663.182-1.322.355-1.969.58-.2.1-.4.206-.6.325l-.169.182a9.587,9.587,0,0,0-.553.887,8.382,8.382,0,0,0-.219.9c-.142,1.4-.141,2.808-.149,4.212-.008,1.176.012,2.35-.038,3.522q0,.51.01,1.022c.1,9.029.287,18.059.482,27.086.1,4.663.192,9.328.3,13.992.1,4.06.21,8.114.691,12.152a16.253,16.253,0,0,0,.566,2.7l.088.154.422.406a15.742,15.742,0,0,0,1.886,1.064,46.631,46.631,0,0,0,5.217,1.648c1,.254,1.994.494,3.006.681,1.166.215,2.329.393,3.5.557a117.814,117.814,0,0,0,13.245.651c2.143.026,4.278,0,6.421-.088,1.963-.078,3.922-.254,5.875-.471a46.125,46.125,0,0,0,5.671-1.475c1.226-.372,2.423-.816,3.611-1.293a4.058,4.058,0,0,1,.553-.246,17.485,17.485,0,0,0,2.43-1.345c.22-.2.434-.408.638-.626a10.108,10.108,0,0,0,.518-.869,14.024,14.024,0,0,0,.542-2.237,60.832,60.832,0,0,0,.323-6.188q.045-3.625.02-7.25c-.012-2.26-.106-4.509-.227-6.764-.225-4.134-.429-8.275-.936-12.387-.407-2.862-.86-5.72-1.249-8.586-.426-3.077-.931-6.135-1.58-9.176-.331-1.564-.674-3.133-1.05-4.688a39.013,39.013,0,0,0-1.1-3.935,10.182,10.182,0,0,0-.5-.889,9.714,9.714,0,0,0-.739-.737,8.1,8.1,0,0,0-.813-.469,57,57,0,0,0-6.16-1.845q-1.687-.426-3.362-.892a24.26,24.26,0,0,0-2.768-.588c-.856-.1-1.716-.17-2.577-.23-.954-.063-1.911-.069-2.864-.13-1.022-.066-2.041-.175-3.064-.241-2.262-.154-4.528-.273-6.792-.372-2.18-.1-4.354-.221-6.534-.135C189.8,243.326,188.084,243.509,186.371,243.729Z" transform="translate(1335.382 1159.319)" fill="#99ddc6"/>
    <path id="Path_523" data-name="Path 523" d="M171.966,168.308c-1.034,0-2.065.017-3.1.058a47.588,47.588,0,0,0-7.447.918,20.279,20.279,0,0,0-3.041.854,15.76,15.76,0,0,0-3.723,1.777,8.551,8.551,0,0,0-2.45,2.443c-.156.259-.287.522-.416.795a18.041,18.041,0,0,0-.89,2.187,22.2,22.2,0,0,0-.714,2.977,69.155,69.155,0,0,0-.635,13.987c.044,2.205.107,4.412.208,6.617a61.709,61.709,0,0,0,.635,7.332,10.853,10.853,0,0,0,.633,2.582A17.774,17.774,0,0,0,152,212.9a13.5,13.5,0,0,0,1.324,1.8,9,9,0,0,0,1.453,1.425,11.686,11.686,0,0,0,1.665,1.084c.434.223.932.4,1.376.576.519.2,1.041.375,1.581.529a11.942,11.942,0,0,0,1.625.319c.808.109,1.618.236,2.434.287,2.343.15,4.692.182,7.043.114,1.222-.04,2.441-.088,3.662-.152.572-.028,1.144-.092,1.714-.145a23.877,23.877,0,0,0,2.42-.32,11.019,11.019,0,0,0,2.018-.517,12.538,12.538,0,0,0,2.5-1.188,7.913,7.913,0,0,0,2.116-2.022,11.968,11.968,0,0,0,1.271-2.493,14.456,14.456,0,0,0,.808-3.925,43.781,43.781,0,0,0,.282-6.148c-.086-4.551-.187-9.1-.257-13.65-.033-2.177-.056-4.354-.056-6.531,0-.312,0-.621.005-.932a22.3,22.3,0,0,0,.121-2.712c-.007-.2-.016-.4-.026-.6q.055-1.249.136-2.5a3.045,3.045,0,0,0-1.161-2.493,5.046,5.046,0,0,0-.507-.788,7.055,7.055,0,0,0-2.6-2.152,14.075,14.075,0,0,0-2.006-.76,14.393,14.393,0,0,0-1.527-.309,30.4,30.4,0,0,0-4.043-.355C174.242,168.328,173.1,168.308,171.966,168.308Zm6.24,6.2a9.851,9.851,0,0,1,1.191.276l.392.206.122.121.054.086.026.084c-.135,2.1-.254,4.2-.32,6.3-.142,4.442-.25,8.883-.348,13.327a125.168,125.168,0,0,1-.6,12.676,16.1,16.1,0,0,1-.7,2.854l-.07.116-.348.192a16.876,16.876,0,0,1-2.518.585c-2.141.24-4.281.385-6.434.507a50.82,50.82,0,0,1-6.6.056,14.783,14.783,0,0,1-2.239-.542c-.185-.092-.367-.19-.546-.3a8.187,8.187,0,0,1-.64-.646,5.3,5.3,0,0,1-1.116-2.582,108.144,108.144,0,0,1-.43-12.324,118.88,118.88,0,0,1,.413-12.995,22.116,22.116,0,0,1,1.1-4.448l.166-.276.28-.274a13.337,13.337,0,0,1,1.714-.887,12.538,12.538,0,0,1,1.254-.428c.663-.18,1.326-.337,1.994-.5,1.263-.3,2.529-.529,3.811-.71,1.689-.195,3.379-.353,5.079-.453.99-.059,1.978-.109,2.971-.14A18.832,18.832,0,0,1,178.206,174.51Z" transform="translate(1437.446 1261.892)" fill="#ffcb78"/>
    <path id="Path_525" data-name="Path 525" d="M54.685,26.195c0,.505-.008,1.014-.017,1.517-.027,2.095-.127,4.19-.264,6.28q-.205,3.192-.359,6.386c-.1,2.024-.33,4.032-.452,6.05-.127,2.076-.33,4.144-.484,6.22a27.425,27.425,0,0,1-1.061,6.769,20.515,20.515,0,0,1-1.476,3.343A10.5,10.5,0,0,1,48.045,66a13.381,13.381,0,0,1-2.97,1.882c-1.152.5-2.3.927-3.5,1.316a36.005,36.005,0,0,1-5.826,1.36,57.539,57.539,0,0,1-7.161.553,47.96,47.96,0,0,1-5.89-.358c-2.352-.232-4.718-.4-7.044-.832a34.147,34.147,0,0,1-6.04-1.592,18.794,18.794,0,0,1-3.29-1.619,16,16,0,0,1-1.3-.96,6.855,6.855,0,0,1-.805-.685A12.026,12.026,0,0,1,2.6,62.894,18.075,18.075,0,0,1,.7,55.6C.474,53.512.3,51.431.178,49.339S.043,45.153.03,43.061C.018,40.991-.009,38.919,0,36.849c.015-2.211.05-4.417.118-6.624.062-2,.291-3.983.434-5.976.145-2.082.334-4.152.591-6.222.174-1.428.345-2.861.625-4.27.21-1.047.484-2.08.793-3.1.8-2.639,1.889-5.309,4.06-7.123A15.611,15.611,0,0,1,8.631,2.062,15.157,15.157,0,0,1,10.947.988,17.643,17.643,0,0,1,15.055.129a30.117,30.117,0,0,1,5.921.056c2.21.155,4.4.445,6.594.743q2.282.292,4.558.6c2.532.31,5.068.592,7.586,1a24.519,24.519,0,0,1,2.974.729,22.264,22.264,0,0,1,2.736,1.02,12.049,12.049,0,0,1,2.5,1.641,13.17,13.17,0,0,1,2.6,2.759l.255.377.183.292a20.373,20.373,0,0,1,1.326,2.743,18.008,18.008,0,0,1,1.584,7.356l0,.075a3.029,3.029,0,0,1,.382,1.484l.054.451c.143,1.06.27,2.115.336,3.186C54.674,25.158,54.685,25.677,54.685,26.195ZM46.1,20.507c-.046-.3-.1-.607-.162-.907a14.525,14.525,0,0,0-.621-2.037,20.275,20.275,0,0,0-1.627-2.976l-.212-.308c-.2-.217-.415-.422-.635-.617a11.58,11.58,0,0,0-1.3-.766A28.407,28.407,0,0,0,37.5,11.95c-3.8-.468-7.634-.764-11.44-1.225-2.125-.259-4.246-.441-6.384-.557a36.675,36.675,0,0,0-4.979-.023,12.038,12.038,0,0,0-1.364.362,9.88,9.88,0,0,0-.876.5l-.226.224a13.169,13.169,0,0,0-.774,1.389,29.135,29.135,0,0,0-1.2,3.836c-.326,1.4-.517,2.832-.737,4.252-.216,1.728-.4,3.457-.621,5.187-.276,2.138-.446,4.272-.565,6.427-.235,4.254-.282,8.522-.347,12.782a87.918,87.918,0,0,0,.554,11.612,13.632,13.632,0,0,0,.5,2.12c.12.224.245.439.382.648l.315.31a14.633,14.633,0,0,0,2.067,1.118,37.467,37.467,0,0,0,5.932,1.374c1.287.149,2.572.261,3.865.358,1.413.106,2.814.281,4.226.391,1.467.114,2.922.12,4.392.1a42.54,42.54,0,0,0,4.269-.226,36.132,36.132,0,0,0,4.1-.756,42.412,42.412,0,0,0,4.085-1.186,9.686,9.686,0,0,0,1.069-.58l.139-.143a14.149,14.149,0,0,0,.768-1.345,16.934,16.934,0,0,0,.785-2.879c.143-1.519.166-3.043.284-4.564.139-1.757.205-3.519.338-5.274.154-2.051.324-4.1.409-6.156.083-1.975.191-3.941.311-5.912-.008-.325-.019-.654-.029-.979C46.632,28.927,46.555,24.7,46.1,20.507Z" transform="translate(1633.379 1559.614) rotate(180)" fill="#ff8e7b"/>
  </g>
</svg>
