<svg xmlns="http://www.w3.org/2000/svg" width="295.05" height="259.58" viewBox="0 0 295.05 259.58">
  <g id="OBJECTS" transform="translate(-16.95 -60.534)">
    <g id="Grupo_61" data-name="Grupo 61" transform="translate(16.95 60.534)">
      <g id="Grupo_25" data-name="Grupo 25" transform="translate(170.121)">
        <path id="Trazado_20" data-name="Trazado 20" d="M376.961,229.806c9.387-2.522,18.528-5.948,29.374-7.5s16.321-7.622,15.3-15.8c-1.4-11.266-9.973-22.167-19.666-35.59-9.273-12.843-14.292-5.155-23.978-3.139s-16.342,2.375-16.605,14.82C360.807,210.132,358.972,234.639,376.961,229.806Z" transform="translate(-304.554 -95.741)" fill="#56479a"/>
        <g id="Grupo_8" data-name="Grupo 8" transform="translate(68.245 127.872)">
          <path id="Trazado_21" data-name="Trazado 21" d="M386.974,303.892c-1.5-1.53-.946-6.354.6-10.434a74.474,74.474,0,0,1-8.462.614c-.526,6.246-.259,12.693,2.446,15.52,5.937,6.2,20.022-3.637,21.3-2a18.659,18.659,0,0,0-.144-3.918C399.283,304.471,389.234,306.194,386.974,303.892Z" transform="translate(-378.893 -267.932)" fill="#ea945e"/>
          <path id="Trazado_22" data-name="Trazado 22" d="M442.235,286.256c-2.555,2.119-9.43,8.293-11.69,4.553-1.157-1.915-.892-5.357-.6-9.693-2.819,1.228-5.677,2.366-8.569,3.388,2.583,6.322,2.95,10.52,7.269,12.687,5.217,2.618,16.1-8.642,16.672-9.238a6.753,6.753,0,0,0-.833-3.38A20.365,20.365,0,0,0,442.235,286.256Z" transform="translate(-393.397 -263.718)" fill="#ea945e"/>
          <path id="Trazado_23" data-name="Trazado 23" d="M415.878,308.64c-.2.056-.471.126-.805.2a18.659,18.659,0,0,1,.144,3.918.367.367,0,0,1,.059.073c.908,2.014.463,5.282,2.272,5.041S418.087,308.01,415.878,308.64Z" transform="translate(-391.246 -273.105)" fill="#28285c"/>
          <path id="Trazado_24" data-name="Trazado 24" d="M415.249,257.8c-1.727-10.189-33.539,8.017-33.539,8.017a108.226,108.226,0,0,0-2.482,15.025,7.084,7.084,0,0,0,8.462-.614c1.007-2.655,2.432-5,3.986-5.906,3.944-2.31,11.69-6.95,14.587-.522.261.581.5,1.139.721,1.688,3.278-.239,6.6-1.4,8.569-3.388A59.913,59.913,0,0,0,415.249,257.8Z" transform="translate(-379.008 -254.698)" fill="#28285c"/>
          <path id="Trazado_25" data-name="Trazado 25" d="M459.59,286.84c-.809-1.5-1.658-1.66-3.13-.762a6.753,6.753,0,0,1,.833,3.38l.028-.029s2.225,6.153,3.9,5.288C463.415,293.586,460.743,288.971,459.59,286.84Z" transform="translate(-405.377 -265.224)" fill="#28285c"/>
        </g>
        <path id="Trazado_26" data-name="Trazado 26" d="M275.27,147.487c.21-.819,2.512.4,2.512.4s-1.909-2.352-1.427-2.734,2.66,1.266,2.66,1.266-1.322-2.966-.58-3.011,2.135,2.033,2.135,2.033-.526-2.93.194-2.8,2.676,4.069,2.689,4.094v0s1.118-1.689,1.538-1.124c.3.4-.031,2.019-.249,2.933A87.177,87.177,0,0,0,300.6,164.6c12.962,10.261,34.616,11.664,34.616,11.664l.028.357a16.444,16.444,0,0,1-1.363,7.941h0c-33.494-.175-49.907-23.215-54.953-31.878h0C277.774,150.8,275.182,147.827,275.27,147.487Z" transform="translate(-275.268 -88.568)" fill="#ea945e"/>
        <path id="Trazado_27" data-name="Trazado 27" d="M420.017,188.641s19.147,3.635,24.2,11.19c5.169,7.725-17.4,15.282-17.4,15.282l-5.8-6.237,15.154-7.475a104.357,104.357,0,0,0-17.086-4.15Z" transform="translate(-324.372 -104.273)" fill="#ea945e"/>
        <path id="Trazado_28" data-name="Trazado 28" d="M386.527,193.856l6.565,3.8a.611.611,0,0,0,.642-.238c2.169-3.143,2.925-9.1,3.122-11.1a.6.6,0,0,0-.6-.667c-5.862-.032-7.964-1.652-19.807.342h0l-14.323,3.055a23.464,23.464,0,0,1-14.809-1.638l-.229-.109a.622.622,0,0,0-.788.225c-2.117,3.167-2.386,9.092-2.418,10.895a.606.606,0,0,0,.519.614c4.14.6,14.724.8,14.726.8,2.532,12.3,4.343,32.188,3.67,46.269,14.408-1.668,30.852-5.359,43.423-11.744C400.294,223.044,391.491,205.7,386.527,193.856Z" transform="translate(-298.694 -103.032)" fill="#00c5a7"/>
        <path id="Trazado_29" data-name="Trazado 29" d="M359.413,180.893a2.428,2.428,0,0,0-2.229,2.435c.011,1.567.078,3.9.3,6.8.217,2.865.585,6.283,1.2,10.082a106.03,106.03,0,0,0,8.513,28.051,234.461,234.461,0,0,0-2.411-24.006s-2.078-11.844-2.331-15.04c-.155-1.949-.387-3.9-.41-5.919A2.432,2.432,0,0,0,359.413,180.893Z" transform="translate(-303.236 -101.625)" fill="#28285c"/>
        <g id="Grupo_9" data-name="Grupo 9" transform="translate(66.636 75.333)">
          <path id="Trazado_30" data-name="Trazado 30" d="M386.614,182.795s-2.755-.446-4.115-5.429c-1.659-6.082-5.527,1.107-5.527,1.107s2.21,3.923-.522,6.455c0,0,1.084,4.505,4.927,4.2C384.755,188.869,387.12,185.217,386.614,182.795Z" transform="translate(-376.45 -174.922)" fill="#d47952"/>
        </g>
        <path id="Trazado_31" data-name="Trazado 31" d="M415.727,217.059a1.957,1.957,0,0,0-1.05,2.78c1.032,1.884,3.4,4.151,4.517,3.789s1.579-2.934,1.579-2.934Z" transform="translate(-322.768 -113.976)" fill="#ea945e"/>
        <path id="Trazado_32" data-name="Trazado 32" d="M395.379,177.2c2.235,6.429,9.832,25.58,25.587,41.019a2.443,2.443,0,0,0,3.521-.094l.535-.59a2.429,2.429,0,0,0-.086-3.358c-4.638-4.589-17.732-18.761-24.679-38.692a2.425,2.425,0,0,0-3.174-1.455l-.288.113A2.429,2.429,0,0,0,395.379,177.2Z" transform="translate(-316.231 -99.226)" fill="#28285c"/>
        <g id="Grupo_24" data-name="Grupo 24" transform="translate(6.641)">
          <g id="Grupo_13" data-name="Grupo 13">
            <g id="Grupo_10" data-name="Grupo 10" transform="translate(12.889 35.24)">
              <path id="Trazado_33" data-name="Trazado 33" d="M325.94,136.754a4.647,4.647,0,0,0-5.413-3.726l-7.77,1.434a9.57,9.57,0,0,0,3.476,18.823l7.77-1.434a4.647,4.647,0,0,0,3.726-5.413Z" transform="translate(-304.923 -120.499)" fill="#d47952"/>
              <path id="Trazado_34" data-name="Trazado 34" d="M429.674,121.878h0a9.571,9.571,0,0,0-11.15-7.673l-7.77,1.434a4.647,4.647,0,0,0-3.726,5.413l1.788,9.684a4.647,4.647,0,0,0,5.414,3.726l7.77-1.434A9.571,9.571,0,0,0,429.674,121.878Z" transform="translate(-339.758 -114.044)" fill="#d47952"/>
            </g>
            <path id="Trazado_35" data-name="Trazado 35" d="M376.715,114.123s13.112-17.6,5.236-31.879c-6.117-11.095-17.145-13.809-27.713-12.585,0,0-8.215-9.789-23.5-9.09-16.8.768-21.053,14.858-21.053,14.858s-8.488-6.293-18.626,2.1c-10.813,8.949-7.624,39.1,21.5,45.187Z" transform="translate(-285.351 -60.534)" fill="#28285c"/>
            <g id="Grupo_12" data-name="Grupo 12" transform="translate(21.114 17.746)">
              <g id="Grupo_11" data-name="Grupo 11">
                <path id="Trazado_36" data-name="Trazado 36" d="M390.85,117.787c3.714,20.108-11.566,28.651-31.673,32.364s-37.431,1.191-41.144-18.917a37.024,37.024,0,1,1,72.818-13.447Z" transform="translate(-317.41 -87.479)" fill="#ea945e"/>
              </g>
            </g>
          </g>
          <g id="Grupo_18" data-name="Grupo 18" transform="translate(31.752 36.773)">
            <g id="Grupo_16" data-name="Grupo 16" transform="translate(0 6.391)">
              <g id="Grupo_15" data-name="Grupo 15">
                <g id="Grupo_14" data-name="Grupo 14">
                  <path id="Trazado_37" data-name="Trazado 37" d="M347.758,134.219a1.59,1.59,0,0,1-1.852-1.274,4.512,4.512,0,0,0-5.251-3.614l-.222.041a4.513,4.513,0,0,0-3.614,5.251,1.59,1.59,0,1,1-3.126.578,7.7,7.7,0,0,1,6.163-8.955l.222-.041a7.7,7.7,0,0,1,8.955,6.163A1.59,1.59,0,0,1,347.758,134.219Z" transform="translate(-333.565 -126.076)" fill="#28285c"/>
                </g>
              </g>
            </g>
            <g id="Grupo_17" data-name="Grupo 17" transform="translate(34.611)">
              <path id="Trazado_38" data-name="Trazado 38" d="M400.312,124.514a1.589,1.589,0,0,1-1.852-1.274,4.513,4.513,0,0,0-5.251-3.614l-.221.041a4.513,4.513,0,0,0-3.614,5.251,1.59,1.59,0,0,1-3.126.578,7.7,7.7,0,0,1,6.163-8.955l.222-.041a7.7,7.7,0,0,1,8.955,6.163A1.589,1.589,0,0,1,400.312,124.514Z" transform="translate(-386.119 -116.371)" fill="#28285c"/>
            </g>
          </g>
          <path id="Trazado_39" data-name="Trazado 39" d="M392.19,106.667c-2.433-.06-7.144.325-5.92-2.5s8.288-2.716,9.632-.491S392.19,106.667,392.19,106.667Z" transform="translate(-319.739 -74.699)" fill="#28285c"/>
          <g id="Grupo_23" data-name="Grupo 23" transform="translate(39.357 51.998)">
            <g id="Grupo_21" data-name="Grupo 21">
              <g id="Grupo_20" data-name="Grupo 20">
                <g id="Grupo_19" data-name="Grupo 19">
                  <path id="Trazado_40" data-name="Trazado 40" d="M345.344,149.9a19.617,19.617,0,0,0,6.838,8.693,19.586,19.586,0,0,1,12.8-8.461L365.7,150a19.59,19.59,0,0,1,14.979,3.332,19.614,19.614,0,0,0,3.282-10.562,3.233,3.233,0,0,0-3.819-3.224l-32.379,5.979A3.233,3.233,0,0,0,345.344,149.9Z" transform="translate(-345.112 -139.49)" fill="#28285c"/>
                </g>
              </g>
            </g>
            <g id="Grupo_22" data-name="Grupo 22" transform="translate(7.07 10.179)">
              <path id="Trazado_41" data-name="Trazado 41" d="M369.362,155.276l-.714.132a19.586,19.586,0,0,0-12.8,8.461,19.589,19.589,0,0,0,14.979,3.331l.714-.132a19.586,19.586,0,0,0,12.8-8.461A19.589,19.589,0,0,0,369.362,155.276Z" transform="translate(-355.847 -154.947)" fill="#d45d67"/>
            </g>
          </g>
          <path id="Trazado_42" data-name="Trazado 42" d="M366.422,132.454c-2.944-.986-5.571-4.277-3.173-5.9a3.978,3.978,0,0,1,4.507-.063s-.908-5.744,1.555-5.2C372.653,122.028,375.806,135.6,366.422,132.454Z" transform="translate(-311.628 -81.266)" fill="#d47952"/>
        </g>
        <path id="Trazado_43" data-name="Trazado 43" d="M423.329,221.909s3.548-1.265,3.27-4.044-4.412-7.767-9.06-6-4.438,3.088-3.648,3.9c1.11,1.146,5.172-.759,5.172-.759s-4.189,1.6-3.4,2.911c1.1,1.83,6.057-1.7,6.057-1.7s-4.579,2.291-3.222,3.888c.736.866,3.922-.839,3.922-.839s-2.742,1.949-2.21,3.048S423.329,221.909,423.329,221.909Z" transform="translate(-322.447 -112.076)" fill="#ea945e"/>
        <path id="Trazado_44" data-name="Trazado 44" d="M358,81.958s6.541,7.106,0,13-12.354,1.533-12.354,1.533.182,4.419-5.812,7.295-10.535-.393-12.351-5.116c0,0-3.208,16.7-16.546,16.42-17.122-.362-17.333-15.849-5.89-25.941S339.48,70.879,358,81.958Z" transform="translate(-282.743 -66.037)" fill="#28285c"/>
      </g>
      <g id="Grupo_43" data-name="Grupo 43" transform="translate(0 18.842)">
        <path id="Trazado_45" data-name="Trazado 45" d="M90.367,256.384c10.216-.757,20.338-2.418,31.9-1.992s18.343-4.4,18.753-12.372c.564-10.976-6.391-22.862-14.061-37.346-7.338-13.859-13.939-7.416-24.375-7.192s-17.423-.6-19.931,11.206C77.1,234.813,70.79,257.835,90.367,256.384Z" transform="translate(-37.48 -125.557)" fill="#00c5a7"/>
        <g id="Grupo_26" data-name="Grupo 26" transform="translate(17.09 128.114)">
          <path id="Trazado_46" data-name="Trazado 46" d="M50.179,341.337a.293.293,0,0,1-.126-.038c-1.463-.94-5.714-5.269-7.012-3.7s6.68,9.466,9.146,7.856c.215-.14.55-.348.979-.611A11.268,11.268,0,0,0,50.179,341.337Z" transform="translate(-42.9 -301.972)" fill="#28285c"/>
          <path id="Trazado_47" data-name="Trazado 47" d="M82.535,320.527a61.147,61.147,0,0,1-6.06-3.217c-9.146,9.593-20.851,17.4-22.523,17.215a11.268,11.268,0,0,1,2.988,3.509,246.861,246.861,0,0,0,24.328-16.556C81.685,321.151,82.108,320.836,82.535,320.527Z" transform="translate(-46.674 -295.16)" fill="#f7c8ae"/>
          <path id="Trazado_48" data-name="Trazado 48" d="M187.161,325.21s-9.34-9.446-16.749-17.318a38.651,38.651,0,0,1-4.869,5.45,31.168,31.168,0,0,1,3.675,2.534c6.363,5.119,13.557,10.854,16.532,13.033a8.19,8.19,0,0,0,1.488-3.783Z" transform="translate(-84.773 -291.945)" fill="#f7c8ae"/>
          <path id="Trazado_49" data-name="Trazado 49" d="M203.623,326.457c-1.031-.329-5.306,4.336-5.909,5a8.19,8.19,0,0,1-1.488,3.783c.5.368.889.638,1.126.783C200.35,337.857,204.733,326.811,203.623,326.457Z" transform="translate(-95.25 -298.278)" fill="#28285c"/>
          <path id="Trazado_50" data-name="Trazado 50" d="M135.808,290.476a31.577,31.577,0,0,1-3.026-6.8c-10.768,3.726-22.4,4.646-34.119,4.393a23.644,23.644,0,0,1-2.218,7,56.253,56.253,0,0,1-8.293,10.756,61.141,61.141,0,0,0,6.06,3.217,38.737,38.737,0,0,1,18.4-7.1c1.484-.166,3.207-.433,4.993-.75a31.461,31.461,0,0,1,21.516,3.884,38.692,38.692,0,0,0,4.869-5.45C140.354,295.763,137.184,292.28,135.808,290.476Z" transform="translate(-58.35 -283.677)" fill="#28285c"/>
        </g>
        <path id="Trazado_51" data-name="Trazado 51" d="M197.243,161.128c-.255-.806-2.487.541-2.487.541s1.777-2.454,1.274-2.809-2.586,1.412-2.586,1.412,1.156-3.035.412-3.039-2.02,2.149-2.02,2.149.363-2.955-.348-2.781-2.447,4.212-2.458,4.237v0s-1.21-1.625-1.6-1.037c-.275.416.142,2.014.41,2.914a87.181,87.181,0,0,1-14.939,16.9c-12.375,10.963-34.134,13.439-34.134,13.439l.05.572a22.026,22.026,0,0,0,2.078,7.578h0c33.434-2.028,48.425-25.756,52.985-34.686h0C194.926,164.571,197.349,161.463,197.243,161.128Z" transform="translate(-58.543 -112.173)" fill="#f7c8ae"/>
        <path id="Trazado_52" data-name="Trazado 52" d="M16.956,158.846c.315-.785,2.439.727,2.439.727s-1.586-2.582-1.058-2.9,2.472,1.6,2.472,1.6-.923-3.114-.181-3.062,1.851,2.3,1.851,2.3-.139-2.973.558-2.746,2.122,4.384,2.13,4.41v0s1.33-1.529,1.671-.914c.242.436-.294,2-.63,2.875a87.164,87.164,0,0,0,13.619,17.984c11.51,11.867,32.795,16.086,32.795,16.086l-.019.358a16.443,16.443,0,0,1-2.388,7.695h0c-33.185-4.549-46.446-29.536-50.317-38.785v0C19.006,162.454,16.825,159.172,16.956,158.846Z" transform="translate(-16.95 -111.545)" fill="#f7c8ae"/>
        <path id="Trazado_53" data-name="Trazado 53" d="M120.224,219.613l10.166-1.722a.611.611,0,0,0,.5-.466c.8-3.731-.787-9.521-1.369-11.441a.61.61,0,0,0-.82-.387,83.991,83.991,0,0,1-18.371,4.964s-2.861,1.5-10.187,1.1c-10.783-.595-17.893-3.467-19.069-4.164a.621.621,0,0,0-.8.155c-2.387,2.968-3.175,8.842-3.365,10.639a.613.613,0,0,0,.471.662c4.077.963,14.881,2.858,14.884,2.857.83,12.535-.088,32.48-2.676,46.338,14.5.312,31.295-1.1,44.618-5.712C129.881,250.406,123.526,232.02,120.224,219.613Z" transform="translate(-37.42 -128.888)" fill="#d45d67"/>
        <g id="Grupo_27" data-name="Grupo 27" transform="translate(62.704 73.041)">
          <path id="Trazado_54" data-name="Trazado 54" d="M122.371,208.684s-2.669-.817-3.336-5.94c-.813-6.251-5.626.343-5.626.343s1.805,4.562-1.247,6.7c0,0,.8,4.016,4.157,4.463S122.542,211.153,122.371,208.684Z" transform="translate(-112.162 -200.052)" fill="#eaa896"/>
        </g>
        <path id="Trazado_55" data-name="Trazado 55" d="M132.255,204.228c1.337,6.674,6.251,26.681,19.753,44.126a2.442,2.442,0,0,0,3.5.387l.611-.512a2.428,2.428,0,0,0,.373-3.338c-3.969-5.178-15.007-21-19.17-41.7a2.426,2.426,0,0,0-2.946-1.874l-.3.072A2.429,2.429,0,0,0,132.255,204.228Z" transform="translate(-56.302 -127.421)" fill="#28285c"/>
        <path id="Trazado_56" data-name="Trazado 56" d="M97.879,206.234c.78,6.673,2.314,27.316-5.2,48.165a2.439,2.439,0,0,1-3.207,1.434l-.722-.292a2.43,2.43,0,0,1-1.377-3.078c2.242-6.179,8.041-24.718,5.674-45.661a2.432,2.432,0,0,1,2.316-2.708h0A2.428,2.428,0,0,1,97.879,206.234Z" transform="translate(-40.946 -128.39)" fill="#28285c"/>
        <g id="Grupo_42" data-name="Grupo 42" transform="translate(20.061)">
          <g id="Grupo_30" data-name="Grupo 30">
            <g id="Grupo_28" data-name="Grupo 28" transform="translate(0 36.066)">
              <path id="Trazado_57" data-name="Trazado 57" d="M69.124,156.626a4.647,4.647,0,0,0-4.983-4.284l-7.879.595a9.57,9.57,0,1,0,1.44,19.087l7.879-.595a4.647,4.647,0,0,0,4.284-4.983Z" transform="translate(-47.411 -146.782)" fill="#eaa896"/>
              <path id="Trazado_58" data-name="Trazado 58" d="M174.133,152.758h0a9.57,9.57,0,0,0-10.263-8.824l-7.879.594a4.647,4.647,0,0,0-4.284,4.983l.74,9.819a4.647,4.647,0,0,0,4.983,4.284l7.878-.594A9.57,9.57,0,0,0,174.133,152.758Z" transform="translate(-83.016 -143.907)" fill="#eaa896"/>
            </g>
            <g id="Grupo_29" data-name="Grupo 29" transform="translate(8.434 14.742)">
              <path id="Trazado_59" data-name="Trazado 59" d="M134.164,145.77c1.538,20.39-14.568,27.248-34.958,28.786S61.862,171.73,60.325,151.34a37.024,37.024,0,0,1,73.839-5.57Z" transform="translate(-60.218 -111.529)" fill="#f7c8ae"/>
            </g>
            <path id="Trazado_60" data-name="Trazado 60" d="M121.848,106.225s7.743-3.187,5.031-9.231-19.25,2.493-19.25,2.493,6.344-5.629,1.39-9.188-24.569,1.008-31.669,15.012c0,0,1.688-5.229-1.419-4.995s-3.755,7.746-3.755,7.746-4.151-2.117-7.023,1.224,3.182,3.076,3.182,3.076-6.9,6.741-7.012,18.914a1.913,1.913,0,0,0,2.055,1.924h0a1.9,1.9,0,0,0,1.758-1.733c.431-5.1,2.3-13.539,9.809-16.151a22.073,22.073,0,0,1,13.886.01,24.158,24.158,0,0,0,14.93-.181c4.513-1.537,10.232-2.6,15.06-.709,5.906,2.314,8.034,7.9,8.8,11.887a2.27,2.27,0,0,0,2.4,1.851h0a2.264,2.264,0,0,0,2.065-2.609A33.854,33.854,0,0,0,121.848,106.225Z" transform="translate(-52.161 -89.144)" fill="#d45d67"/>
          </g>
          <g id="Grupo_35" data-name="Grupo 35" transform="translate(19.592 35.552)">
            <g id="Grupo_33" data-name="Grupo 33" transform="translate(0 2.647)">
              <g id="Grupo_32" data-name="Grupo 32">
                <g id="Grupo_31" data-name="Grupo 31">
                  <path id="Trazado_61" data-name="Trazado 61" d="M91.272,155.96a1.59,1.59,0,0,1-1.705-1.465,4.512,4.512,0,0,0-4.834-4.156l-.225.016a4.513,4.513,0,0,0-4.156,4.834,1.59,1.59,0,0,1-3.17.24,7.7,7.7,0,0,1,7.087-8.243l.225-.017a7.7,7.7,0,0,1,8.243,7.087A1.589,1.589,0,0,1,91.272,155.96Z" transform="translate(-77.161 -147.147)" fill="#28285c"/>
                </g>
              </g>
            </g>
            <g id="Grupo_34" data-name="Grupo 34" transform="translate(35.096)">
              <path id="Trazado_62" data-name="Trazado 62" d="M144.563,151.94a1.59,1.59,0,0,1-1.705-1.465,4.513,4.513,0,0,0-4.834-4.156l-.225.016a4.514,4.514,0,0,0-4.156,4.835,1.589,1.589,0,0,1-3.17.239,7.7,7.7,0,0,1,7.087-8.243l.225-.017a7.7,7.7,0,0,1,8.243,7.087A1.589,1.589,0,0,1,144.563,151.94Z" transform="translate(-130.451 -143.127)" fill="#28285c"/>
            </g>
          </g>
          <path id="Trazado_63" data-name="Trazado 63" d="M80.6,139.8c2.014-1.367,6.185-3.591,3.625-5.307s-8.44,2.2-8.367,4.8S80.6,139.8,80.6,139.8Z" transform="translate(-57.123 -104.485)" fill="#d45d67"/>
          <path id="Trazado_64" data-name="Trazado 64" d="M141.633,135.359c-2.2-1.049-6.653-2.622-4.38-4.7s8.674.908,8.991,3.487S141.633,135.359,141.633,135.359Z" transform="translate(-77.871 -103.079)" fill="#d45d67"/>
          <g id="Grupo_41" data-name="Grupo 41" transform="translate(26.073 50.79)">
            <g id="Grupo_38" data-name="Grupo 38">
              <g id="Grupo_37" data-name="Grupo 37">
                <g id="Grupo_36" data-name="Grupo 36">
                  <path id="Trazado_65" data-name="Trazado 65" d="M87.122,172.843a19.608,19.608,0,0,0,5.867,9.375,19.586,19.586,0,0,1,13.633-7.041l.724-.055a19.586,19.586,0,0,1,14.535,4.917,19.611,19.611,0,0,0,4.395-10.15,3.234,3.234,0,0,0-3.452-3.615l-32.833,2.477A3.233,3.233,0,0,0,87.122,172.843Z" transform="translate(-87.002 -166.265)" fill="#28285c"/>
                </g>
              </g>
            </g>
            <g id="Grupo_40" data-name="Grupo 40" transform="translate(5.988 8.801)">
              <g id="Grupo_39" data-name="Grupo 39">
                <path id="Trazado_66" data-name="Trazado 66" d="M110.452,179.685l-.724.055a19.586,19.586,0,0,0-13.633,7.041,19.588,19.588,0,0,0,14.535,4.917l.724-.055a19.586,19.586,0,0,0,13.634-7.041A19.586,19.586,0,0,0,110.452,179.685Z" transform="translate(-96.094 -179.628)" fill="#d45d67"/>
              </g>
            </g>
          </g>
          <path id="Trazado_67" data-name="Trazado 67" d="M117.444,157.767c2.614-1.675,4.358-5.509,1.636-6.495a3.978,3.978,0,0,0-4.386,1.04s-.523-5.792-2.778-4.664C108.855,149.179,109.111,163.108,117.444,157.767Z" transform="translate(-68.822 -109.069)" fill="#ea9c87"/>
        </g>
      </g>
      <g id="Grupo_60" data-name="Grupo 60" transform="translate(114.051 77.587)">
        <path id="Trazado_68" data-name="Trazado 68" d="M288.568,200.486s12.137.745,17.48,16.925c5.2,15.758-4.99,32.182-3.568,42.98s9.242,20.658-.237,35.515-49.346,12.161-69.933-3.552-20.111-31.409-14.842-42.737,6.191-26.186,6.526-27.337C223.994,222.281,247.811,190.148,288.568,200.486Z" transform="translate(-198.414 -185.205)" fill="#763154"/>
        <g id="Grupo_59" data-name="Grupo 59" transform="translate(0 2.267)">
          <path id="Trazado_69" data-name="Trazado 69" d="M266.859,347.9c-10.147-1.4-20.143-3.7-31.7-4.013s-18.026-5.555-17.93-13.538c.134-10.99,7.83-22.41,16.4-36.378,8.2-13.365,14.381-6.516,24.782-5.63s17.427.506,19.18,12.448C281.47,327.218,286.3,350.594,266.859,347.9Z" transform="translate(-199.38 -217.302)" fill="#28285c"/>
          <path id="Trazado_70" data-name="Trazado 70" d="M190.151,230.79c.493-.688,2.2,1.286,2.2,1.286s-.927-2.885-.339-3.066,2.02,2.145,2.02,2.145-.157-3.245.551-3.017,1.253,2.669,1.253,2.669.572-2.921,1.194-2.536,1.019,4.763,1.022,4.79v0s1.655-1.169,1.841-.49c.131.481-.761,1.87-1.295,2.643,1.21,4.414,9.53,28.643,10.756,29.6a48,48,0,0,0,25.543,9.718l-.086.568a22.032,22.032,0,0,1-2.555,7.43h0c-13.608-1.7-21.472-4.68-29.114-10.832-5.594-4.5-10.544-28.892-11.467-34.74v0C191.284,234.782,189.946,231.075,190.151,230.79Z" transform="translate(-190.13 -197.609)" fill="#f7c8ae"/>
          <path id="Trazado_71" data-name="Trazado 71" d="M337.452,345.928v0c-1.619-5.695-9.653-30.53-16.227-33.421a45.142,45.142,0,0,0-21.42-3.789l.391,8.5a47.009,47.009,0,0,1,16.824,3.556c1.433.6,12.036,23.482,13.768,27.718-.437.832-1.156,2.318-.967,2.78.266.651,1.766-.705,1.768-.708v0c.006.027.928,4.326,1.59,4.632s.881-2.661.881-2.661.834,2.359,1.565,2.5.184-3.061.184-3.061,1.7,2.137,2.263,1.886-.7-3-.7-3,1.928,1.754,2.335,1.012C339.873,351.56,338.1,348.042,337.452,345.928Z" transform="translate(-227.576 -225.104)" fill="#f7c8ae"/>
          <path id="Trazado_72" data-name="Trazado 72" d="M229.1,368.717s-16.781-4.383-27.968,1.91-.724,22.889-.724,22.889-5.626-1.394-6.674.148,6.958,4.309,9.117,2.115c2.769-2.815-2.767-15.776,2.127-18.629s18.462-2.776,30.009,5.614c12.268,8.914,15.44,24.745,7.574,29.465s-11.712,2.447-12.411,4.72-.35,7.516,1.048,7.866,1.4-5.943,1.4-5.943,14.234.349,20.752-6.643,0-33.68,0-33.68Z" transform="translate(-191.328 -245.103)" fill="#28285c"/>
          <path id="Trazado_73" data-name="Trazado 73" d="M241.194,306.755l-10.037-2.364a.611.611,0,0,1-.472-.5c-.559-3.777,1.393-9.46,2.094-11.335a.6.6,0,0,1,.836-.332c5.275,2.558,12.545,5.176,17.055,5.955h0l19.59,3.382a59.389,59.389,0,0,0,12.768.454.617.617,0,0,1,.662.473c.936,3.693-.8,9.368-1.37,11.078a.611.611,0,0,1-.7.4c-4.107-.822-12.658-3.253-12.66-3.254a170.987,170.987,0,0,0-1.729,32.179c.457,8.509.043,15.405,2.121,22.818a.7.7,0,0,1-.827.882c-17.625-3.772-14.326-23.448-46.487-24.811C232.564,329.02,237.11,318.927,241.194,306.755Z" transform="translate(-201.024 -219.473)" fill="#ed7c98"/>
          <g id="Grupo_44" data-name="Grupo 44" transform="translate(50.587 70.58)">
            <path id="Trazado_74" data-name="Trazado 74" d="M266.971,297.255s2.715-.647,3.706-5.716c1.209-6.187,5.594.7,5.594.7s-2.092,4.438.819,6.764c0,0-1.052,3.957-4.432,4.19S266.644,299.708,266.971,297.255Z" transform="translate(-266.943 -288.959)" fill="#eaa896"/>
          </g>
          <path id="Trazado_75" data-name="Trazado 75" d="M248.66,292.258c-1.758,6.576-7.932,26.231-22.513,42.784a2.444,2.444,0,0,1-3.519.164l-.577-.549a2.429,2.429,0,0,1-.16-3.355c4.289-4.916,16.31-20.009,21.779-40.4a2.426,2.426,0,0,1,3.059-1.684l.3.092A2.428,2.428,0,0,1,248.66,292.258Z" transform="translate(-200.77 -218.431)" fill="#56479a"/>
          <path id="Trazado_76" data-name="Trazado 76" d="M290.686,296.262c-1.2,6.609-4.043,27.114,2.128,48.4a2.438,2.438,0,0,0,3.109,1.634l.74-.246a2.429,2.429,0,0,0,1.569-2.984c-1.845-6.309-6.455-25.179-2.763-45.93a2.432,2.432,0,0,0-2.14-2.85h0A2.428,2.428,0,0,0,290.686,296.262Z" transform="translate(-223.879 -220.192)" fill="#56479a"/>
          <g id="Grupo_58" data-name="Grupo 58" transform="translate(17.978)">
            <g id="Grupo_47" data-name="Grupo 47">
              <g id="Grupo_45" data-name="Grupo 45" transform="translate(0 32.678)">
                <path id="Trazado_77" data-name="Trazado 77" d="M321.043,251.49a4.647,4.647,0,0,1,5.476-3.633l7.744,1.566a9.571,9.571,0,0,1-3.8,18.761l-7.744-1.567a4.647,4.647,0,0,1-3.633-5.476Z" transform="translate(-252.107 -236.992)" fill="#eaa896"/>
                <path id="Trazado_78" data-name="Trazado 78" d="M217.62,239.082h0A9.57,9.57,0,0,1,228.9,231.6l7.744,1.566a4.647,4.647,0,0,1,3.633,5.476l-1.953,9.652a4.647,4.647,0,0,1-5.476,3.633L225.1,250.36A9.571,9.571,0,0,1,217.62,239.082Z" transform="translate(-217.428 -231.407)" fill="#eaa896"/>
              </g>
              <path id="Trazado_79" data-name="Trazado 79" d="M299.124,242.886s11-8.467,6.394-29.786c-3.32-15.382-17.027-34.008-43.31-30.988S224.96,204.653,225.86,219.2c.724,11.725,7.408,14.866,7.408,14.866Z" transform="translate(-220.289 -181.787)" fill="#763154"/>
              <g id="Grupo_46" data-name="Grupo 46" transform="translate(7.697 13.014)">
                <path id="Trazado_80" data-name="Trazado 80" d="M229.776,231.239c-4.054,20.042,11.077,28.843,31.12,32.9s37.4,1.826,41.459-18.216a37.024,37.024,0,0,0-72.579-14.682Z" transform="translate(-229.115 -201.549)" fill="#f7c8ae"/>
              </g>
            </g>
            <g id="Grupo_52" data-name="Grupo 52" transform="translate(21.131 31.769)">
              <g id="Grupo_50" data-name="Grupo 50" transform="translate(34.497 6.978)">
                <g id="Grupo_49" data-name="Grupo 49">
                  <g id="Grupo_48" data-name="Grupo 48">
                    <path id="Trazado_81" data-name="Trazado 81" d="M303.169,248.66a1.59,1.59,0,0,0,1.874-1.243,4.512,4.512,0,0,1,5.312-3.525l.221.045a4.513,4.513,0,0,1,3.525,5.312,1.589,1.589,0,1,0,3.116.63,7.7,7.7,0,0,0-6.01-9.059l-.221-.045a7.7,7.7,0,0,0-9.059,6.011A1.59,1.59,0,0,0,303.169,248.66Z" transform="translate(-301.895 -240.623)" fill="#28285c"/>
                  </g>
                </g>
              </g>
              <g id="Grupo_51" data-name="Grupo 51">
                <path id="Trazado_82" data-name="Trazado 82" d="M250.788,238.064a1.589,1.589,0,0,0,1.874-1.243,4.512,4.512,0,0,1,5.311-3.524l.221.044a4.514,4.514,0,0,1,3.525,5.313,1.589,1.589,0,1,0,3.116.63,7.7,7.7,0,0,0-6.01-9.059l-.221-.045a7.7,7.7,0,0,0-9.058,6.01A1.589,1.589,0,0,0,250.788,238.064Z" transform="translate(-249.514 -230.027)" fill="#28285c"/>
              </g>
            </g>
            <g id="Grupo_57" data-name="Grupo 57" transform="translate(24.584 46.982)">
              <g id="Grupo_55" data-name="Grupo 55">
                <g id="Grupo_54" data-name="Grupo 54">
                  <g id="Grupo_53" data-name="Grupo 53">
                    <path id="Trazado_83" data-name="Trazado 83" d="M293.243,264.135a19.612,19.612,0,0,1-6.985,8.576,19.589,19.589,0,0,0-12.655-8.678l-.711-.144a19.586,19.586,0,0,0-15.033,3.076,19.6,19.6,0,0,1-3.1-10.616,3.232,3.232,0,0,1,3.873-3.159L290.9,259.72A3.233,3.233,0,0,1,293.243,264.135Z" transform="translate(-254.757 -253.126)" fill="#28285c"/>
                  </g>
                </g>
              </g>
              <g id="Grupo_56" data-name="Grupo 56" transform="translate(3.102 10.37)">
                <path id="Trazado_84" data-name="Trazado 84" d="M274.5,269.266l.711.144a19.589,19.589,0,0,1,12.655,8.678,19.588,19.588,0,0,1-15.033,3.076l-.712-.144a19.589,19.589,0,0,1-12.655-8.678A19.586,19.586,0,0,1,274.5,269.266Z" transform="translate(-259.467 -268.872)" fill="#d45d67"/>
              </g>
            </g>
          </g>
        </g>
        <path id="Trazado_85" data-name="Trazado 85" d="M294.55,205.493s-10.187,11.332-31,9.529-26.8-.323-31.481,9.274c0,0-1.848-12.743,7.125-20.085S278,188.478,294.55,205.493Z" transform="translate(-204.396 -184.214)" fill="#763154"/>
        <path id="Trazado_86" data-name="Trazado 86" d="M319.007,235.249a1.813,1.813,0,0,0,2.316-2.58,8.784,8.784,0,0,0-9.231-4.4c-6.381.827-6.323,5.759.527,4.727C315.756,232.528,316.908,234.209,319.007,235.249Z" transform="translate(-230.167 -195.358)" fill="#763154"/>
        <path id="Trazado_87" data-name="Trazado 87" d="M226.4,227.913s-10.147-13.536-2.178-31.726c6.823-15.574,31.73-23.89,57.021-12.668l-15.419,10.194S230.176,193.091,226.4,227.913Z" transform="translate(-200.728 -178.345)" fill="#763154"/>
        <path id="Trazado_88" data-name="Trazado 88" d="M309.04,206.5c-2.734,2.641-14.328,12.809-34.358,16.727a.85.85,0,0,0-.609,1.2l1.914,3.934a.848.848,0,0,0,1.006.443c3.789-1.137,22.264-7.213,33.685-20.672a.856.856,0,0,0-.008-1.11l-.4-.464A.847.847,0,0,0,309.04,206.5Z" transform="translate(-218.761 -187.876)" fill="#763154"/>
        <path id="Trazado_89" data-name="Trazado 89" d="M286.3,246.989s1.569-4.558.223-4.724-2.478,2.609-2.478,2.609-2.386-1.415-3.521.26C279.078,247.274,285.537,250.573,286.3,246.989Z" transform="translate(-220.922 -200.167)" fill="#ea9c87"/>
      </g>
    </g>
  </g>
</svg>
